  0
SECTION
  2
HEADER
  9
$ACADVER
  1
AC1006
  9
$EXTMIN
 10
0.000000
 20
0.000000
 30
0.000000
  9
$EXTMAX
 10
750.000000
 20
732.000000
 30
0.000000
  0
ENDSEC
  0
SECTION
  2
ENTITIES
  0
POLYLINE
  8
0
 66
1
 70
1
  0
VERTEX
  8
0
 10
398.919393
 20
730.989510
 42
0.031012
  0
VERTEX
  8
0
 10
386.586237
 20
728.106179
 42
0.028121
  0
VERTEX
  8
0
 10
374.283131
 20
723.644552
 42
0.028058
  0
VERTEX
  8
0
 10
362.529912
 20
717.818192
 42
0.030500
  0
VERTEX
  8
0
 10
351.840167
 20
710.855726
 42
-0.000196
  0
VERTEX
  8
0
 10
348.269889
 20
708.209176
 42
-0.000159
  0
VERTEX
  8
0
 10
344.437770
 20
705.372744
 42
-0.000160
  0
VERTEX
  8
0
 10
340.902256
 20
702.759345
 42
-0.000416
  0
VERTEX
  8
0
 10
338.352243
 20
700.878958
 42
0.020491
  0
VERTEX
  8
0
 10
335.965458
 20
698.966427
 42
0.009316
  0
VERTEX
  8
0
 10
332.997543
 20
696.282790
 42
0.009206
  0
VERTEX
  8
0
 10
329.969117
 20
693.333369
 42
0.012485
  0
VERTEX
  8
0
 10
327.352243
 20
690.553657
 42
0.060091
  0
VERTEX
  8
0
 10
314.964677
 20
672.838352
 42
0.063547
  0
VERTEX
  8
0
 10
307.427265
 20
653.010281
 42
0.061479
  0
VERTEX
  8
0
 10
304.957361
 20
631.350439
 42
0.050733
  0
VERTEX
  8
0
 10
307.525626
 20
608.233016
 42
0.007496
  0
VERTEX
  8
0
 10
310.940927
 20
593.447894
 42
0.004783
  0
VERTEX
  8
0
 10
315.333282
 20
576.358131
 42
0.004617
  0
VERTEX
  8
0
 10
320.294657
 20
558.457352
 42
0.005037
  0
VERTEX
  8
0
 10
325.448900
 20
541.165120
 42
-0.000960
  0
VERTEX
  8
0
 10
336.621926
 20
504.767098
 42
-0.011222
  0
VERTEX
  8
0
 10
340.635426
 20
490.458844
 42
-0.028755
  0
VERTEX
  8
0
 10
342.407916
 20
481.415106
 42
-0.034024
  0
VERTEX
  8
0
 10
343.000000
 20
472.724189
 42
-0.005581
  0
VERTEX
  8
0
 10
342.934527
 20
466.858955
 42
-0.033751
  0
VERTEX
  8
0
 10
342.661816
 20
463.830325
 42
-0.068913
  0
VERTEX
  8
0
 10
342.091285
 20
461.951998
 42
-0.101025
  0
VERTEX
  8
0
 10
341.071664
 20
460.564855
 42
-0.110951
  0
VERTEX
  8
0
 10
339.226712
 20
459.521777
 42
-0.137296
  0
VERTEX
  8
0
 10
337.260728
 20
459.481113
 42
-0.117250
  0
VERTEX
  8
0
 10
335.329001
 20
460.500678
 42
-0.068026
  0
VERTEX
  8
0
 10
333.598010
 20
462.490762
 42
0.020263
  0
VERTEX
  8
0
 10
332.582069
 20
463.912146
 42
0.002636
  0
VERTEX
  8
0
 10
330.278527
 20
466.841623
 42
0.003067
  0
VERTEX
  8
0
 10
327.504914
 20
470.287282
 42
0.002559
  0
VERTEX
  8
0
 10
324.517644
 20
473.914051
 42
-0.034527
  0
VERTEX
  8
0
 10
318.771729
 20
481.876371
 42
-0.025176
  0
VERTEX
  8
0
 10
313.483063
 20
491.426670
 42
-0.011163
  0
VERTEX
  8
0
 10
306.256778
 20
507.056566
 42
-0.001292
  0
VERTEX
  8
0
 10
290.929585
 20
542.500000
 42
0.009466
  0
VERTEX
  8
0
 10
281.004107
 20
564.459711
 42
0.008387
  0
VERTEX
  8
0
 10
269.859775
 20
586.941293
 42
0.007605
  0
VERTEX
  8
0
 10
259.365786
 20
606.512045
 42
0.040445
  0
VERTEX
  8
0
 10
252.633364
 20
616.605307
 42
0.053568
  0
VERTEX
  8
0
 10
240.242276
 20
629.228292
 42
0.049469
  0
VERTEX
  8
0
 10
225.133036
 20
639.318008
 42
0.049386
  0
VERTEX
  8
0
 10
208.309575
 20
646.257493
 42
0.052979
  0
VERTEX
  8
0
 10
190.844650
 20
649.556158
 42
0.028811
  0
VERTEX
  8
0
 10
181.364749
 20
649.776215
 42
0.011002
  0
VERTEX
  8
0
 10
168.176163
 20
649.031567
 42
0.011067
  0
VERTEX
  8
0
 10
154.955983
 20
647.697947
 42
0.026777
  0
VERTEX
  8
0
 10
145.292605
 20
645.977306
 42
0.019632
  0
VERTEX
  8
0
 10
136.358702
 20
643.514272
 42
0.022365
  0
VERTEX
  8
0
 10
128.033350
 20
640.446987
 42
0.022744
  0
VERTEX
  8
0
 10
120.139813
 20
636.699964
 42
0.021772
  0
VERTEX
  8
0
 10
112.500000
 20
632.200893
 42
0.027730
  0
VERTEX
  8
0
 10
101.682189
 20
624.293600
 42
0.030491
  0
VERTEX
  8
0
 10
92.163065
 20
615.468070
 42
0.032892
  0
VERTEX
  8
0
 10
84.556610
 20
606.372288
 42
0.053630
  0
VERTEX
  8
0
 10
79.532125
 20
597.668557
 42
0.031479
  0
VERTEX
  8
0
 10
76.437366
 20
589.280387
 42
0.040123
  0
VERTEX
  8
0
 10
74.716761
 20
581.220031
 42
0.023155
  0
VERTEX
  8
0
 10
73.782911
 20
570.102671
 42
0.003988
  0
VERTEX
  8
0
 10
73.158387
 20
548.956132
 42
-0.001521
  0
VERTEX
  8
0
 10
72.728339
 20
531.471328
 42
-0.011306
  0
VERTEX
  8
0
 10
72.310567
 20
523.163333
 42
-0.022067
  0
VERTEX
  8
0
 10
71.739431
 20
518.303312
 42
-0.105204
  0
VERTEX
  8
0
 10
70.732095
 20
515.711881
 42
-0.057695
  0
VERTEX
  8
0
 10
69.287366
 20
513.981389
 42
-0.002147
  0
VERTEX
  8
0
 10
63.099709
 20
508.151956
 42
-0.003868
  0
VERTEX
  8
0
 10
55.686652
 20
501.334530
 42
-0.002707
  0
VERTEX
  8
0
 10
47.232095
 20
493.762076
 42
0.002134
  0
VERTEX
  8
0
 10
27.272717
 20
475.926388
 42
0.022039
  0
VERTEX
  8
0
 10
19.408841
 20
468.184112
 42
0.046502
  0
VERTEX
  8
0
 10
14.629144
 20
461.976734
 42
0.027798
  0
VERTEX
  8
0
 10
10.097075
 20
453.829816
 42
0.017650
  0
VERTEX
  8
0
 10
4.918386
 20
442.132353
 42
0.042959
  0
VERTEX
  8
0
 10
2.172514
 20
433.116039
 42
0.039815
  0
VERTEX
  8
0
 10
0.895990
 20
423.364829
 42
0.013367
  0
VERTEX
  8
0
 10
0.553336
 20
409.000000
 42
0.003523
  0
VERTEX
  8
0
 10
0.665033
 20
397.750360
 42
0.021268
  0
VERTEX
  8
0
 10
1.012243
 20
391.922237
 42
0.032790
  0
VERTEX
  8
0
 10
1.797771
 20
387.279066
 42
0.016165
  0
VERTEX
  8
0
 10
3.369072
 20
381.500000
 42
0.029049
  0
VERTEX
  8
0
 10
8.120727
 20
368.716917
 42
0.033860
  0
VERTEX
  8
0
 10
14.122503
 20
357.235238
 42
0.034171
  0
VERTEX
  8
0
 10
21.566355
 20
346.756866
 42
0.030611
  0
VERTEX
  8
0
 10
30.628830
 20
336.974006
 42
0.031675
  0
VERTEX
  8
0
 10
40.905112
 20
328.334658
 42
0.034173
  0
VERTEX
  8
0
 10
51.942646
 20
321.299950
 42
0.034190
  0
VERTEX
  8
0
 10
63.830280
 20
315.837163
 42
0.031772
  0
VERTEX
  8
0
 10
76.643690
 20
311.889231
 42
0.013453
  0
VERTEX
  8
0
 10
81.693173
 20
310.821128
 42
0.025523
  0
VERTEX
  8
0
 10
85.812788
 20
310.280380
 42
0.023712
  0
VERTEX
  8
0
 10
90.160128
 20
310.140935
 42
0.010008
  0
VERTEX
  8
0
 10
96.000000
 20
310.347545
 42
0.019388
  0
VERTEX
  8
0
 10
111.624387
 20
311.822961
 42
0.006733
  0
VERTEX
  8
0
 10
134.014117
 20
315.124186
 42
0.006516
  0
VERTEX
  8
0
 10
159.251042
 20
319.531298
 42
0.006412
  0
VERTEX
  8
0
 10
184.500000
 20
324.616449
 42
-0.004926
  0
VERTEX
  8
0
 10
200.779350
 20
327.945484
 42
-0.009936
  0
VERTEX
  8
0
 10
213.683220
 20
330.186950
 42
-0.012344
  0
VERTEX
  8
0
 10
224.473150
 20
331.569395
 42
-0.017479
  0
VERTEX
  8
0
 10
234.132473
 20
332.225176
 42
0.000000
  0
VERTEX
  8
0
 10
242.500000
 20
332.500000
 42
0.000000
  0
VERTEX
  8
0
 10
242.809932
 20
329.817258
 42
-0.047840
  0
VERTEX
  8
0
 10
242.833937
 20
328.580743
 42
-0.079187
  0
VERTEX
  8
0
 10
242.592185
 20
327.567614
 42
-0.090779
  0
VERTEX
  8
0
 10
242.080830
 20
326.775669
 42
-0.084234
  0
VERTEX
  8
0
 10
241.309932
 20
326.191668
 42
-0.058612
  0
VERTEX
  8
0
 10
236.432969
 20
324.338339
 42
-0.005935
  0
VERTEX
  8
0
 10
224.346862
 20
321.454815
 42
-0.007985
  0
VERTEX
  8
0
 10
210.930769
 20
318.646226
 42
-0.010243
  0
VERTEX
  8
0
 10
198.500000
 20
316.513557
 42
0.007246
  0
VERTEX
  8
0
 10
170.896805
 20
311.947997
 42
0.005839
  0
VERTEX
  8
0
 10
141.369299
 20
306.266657
 42
0.005245
  0
VERTEX
  8
0
 10
114.959175
 20
300.575308
 42
0.027449
  0
VERTEX
  8
0
 10
100.665396
 20
296.501782
 42
0.064419
  0
VERTEX
  8
0
 10
85.113374
 20
288.773880
 42
0.049422
  0
VERTEX
  8
0
 10
70.448412
 20
276.705027
 42
0.047574
  0
VERTEX
  8
0
 10
57.890254
 20
261.438446
 42
0.048985
  0
VERTEX
  8
0
 10
48.584761
 20
244.216904
 42
0.024191
  0
VERTEX
  8
0
 10
45.260650
 20
235.085859
 42
0.030411
  0
VERTEX
  8
0
 10
43.121569
 20
226.343125
 42
0.028142
  0
VERTEX
  8
0
 10
41.952459
 20
216.877065
 42
0.016655
  0
VERTEX
  8
0
 10
41.573381
 20
205.500000
 42
0.018563
  0
VERTEX
  8
0
 10
42.033908
 20
193.099546
 42
0.033520
  0
VERTEX
  8
0
 10
43.464388
 20
183.040112
 42
0.035274
  0
VERTEX
  8
0
 10
46.162694
 20
173.613502
 42
0.023275
  0
VERTEX
  8
0
 10
50.511024
 20
163.208537
 42
0.031299
  0
VERTEX
  8
0
 10
56.912495
 20
151.627837
 42
0.030410
  0
VERTEX
  8
0
 10
64.765805
 20
140.819298
 42
0.031667
  0
VERTEX
  8
0
 10
73.472198
 20
131.519602
 42
0.044164
  0
VERTEX
  8
0
 10
82.423667
 20
124.474975
 42
0.042687
  0
VERTEX
  8
0
 10
85.863933
 20
122.625997
 42
0.003986
  0
VERTEX
  8
0
 10
94.736048
 20
118.876351
 42
0.005039
  0
VERTEX
  8
0
 10
105.514532
 20
114.548617
 42
0.003745
  0
VERTEX
  8
0
 10
117.500000
 20
109.979082
 42
-0.002057
  0
VERTEX
  8
0
 10
138.058456
 20
102.220443
 42
-0.016820
  0
VERTEX
  8
0
 10
147.304605
 20
98.326294
 42
-0.038043
  0
VERTEX
  8
0
 10
152.464260
 20
95.451684
 42
-0.101952
  0
VERTEX
  8
0
 10
155.417279
 20
92.485904
 42
-0.045053
  0
VERTEX
  8
0
 10
156.378436
 20
90.683897
 42
-0.002032
  0
VERTEX
  8
0
 10
159.089143
 20
84.198229
 42
-0.003392
  0
VERTEX
  8
0
 10
162.225620
 20
76.458982
 42
-0.002420
  0
VERTEX
  8
0
 10
165.636420
 20
67.753515
 42
0.002504
  0
VERTEX
  8
0
 10
169.148642
 20
58.793622
 42
0.002876
  0
VERTEX
  8
0
 10
172.594290
 20
50.274470
 42
0.002588
  0
VERTEX
  8
0
 10
175.594305
 20
43.084151
 42
0.016534
  0
VERTEX
  8
0
 10
177.253324
 20
39.500000
 42
0.026498
  0
VERTEX
  8
0
 10
180.734556
 20
33.413661
 42
0.024479
  0
VERTEX
  8
0
 10
184.926591
 20
27.560153
 42
0.025536
  0
VERTEX
  8
0
 10
189.403978
 20
22.470588
 42
0.042003
  0
VERTEX
  8
0
 10
193.733710
 20
18.716703
 42
0.037877
  0
VERTEX
  8
0
 10
203.244839
 20
12.824900
 42
0.026097
  0
VERTEX
  8
0
 10
214.788398
 20
7.576698
 42
0.025673
  0
VERTEX
  8
0
 10
227.097422
 20
3.453969
 42
0.031677
  0
VERTEX
  8
0
 10
238.934398
 20
0.949265
 42
0.030786
  0
VERTEX
  8
0
 10
247.512094
 20
0.230160
 42
0.014569
  0
VERTEX
  8
0
 10
258.616773
 20
0.308439
 42
0.014333
  0
VERTEX
  8
0
 10
269.464994
 20
1.012916
 42
0.039613
  0
VERTEX
  8
0
 10
277.000000
 20
2.327280
 42
0.007052
  0
VERTEX
  8
0
 10
286.731909
 20
4.978659
 42
0.006749
  0
VERTEX
  8
0
 10
296.529683
 20
7.940767
 42
0.006771
  0
VERTEX
  8
0
 10
305.127338
 20
10.795931
 42
0.022728
  0
VERTEX
  8
0
 10
310.637204
 20
12.994201
 42
0.063678
  0
VERTEX
  8
0
 10
328.778623
 20
24.173045
 42
0.060170
  0
VERTEX
  8
0
 10
343.917378
 20
39.748967
 42
0.060114
  0
VERTEX
  8
0
 10
354.924208
 20
58.496436
 42
0.063321
  0
VERTEX
  8
0
 10
360.916502
 20
79.000341
 42
0.012938
  0
VERTEX
  8
0
 10
362.492863
 20
90.874285
 42
0.003869
  0
VERTEX
  8
0
 10
364.286668
 20
109.049925
 42
0.004024
  0
VERTEX
  8
0
 10
365.889035
 20
128.407536
 42
0.006395
  0
VERTEX
  8
0
 10
366.914933
 20
145.000000
 42
0.000008
  0
VERTEX
  8
0
 10
367.386180
 20
154.620409
 42
0.000004
  0
VERTEX
  8
0
 10
367.980224
 20
166.753409
 42
0.000004
  0
VERTEX
  8
0
 10
368.593852
 20
179.290369
 42
0.000006
  0
VERTEX
  8
0
 10
369.130896
 20
190.266924
 42
-0.004281
  0
VERTEX
  8
0
 10
370.157721
 20
208.124264
 42
-0.044236
  0
VERTEX
  8
0
 10
371.290920
 20
215.404459
 42
-0.109485
  0
VERTEX
  8
0
 10
373.389202
 20
219.629659
 42
-0.086272
  0
VERTEX
  8
0
 10
377.240860
 20
223.005402
 42
-0.075185
  0
VERTEX
  8
0
 10
381.270247
 20
224.696847
 42
-0.105333
  0
VERTEX
  8
0
 10
385.159119
 20
224.842588
 42
-0.094326
  0
VERTEX
  8
0
 10
389.079838
 20
223.364454
 42
-0.050492
  0
VERTEX
  8
0
 10
393.216211
 20
220.223094
 42
-0.110100
  0
VERTEX
  8
0
 10
395.394359
 20
217.046541
 42
-0.037079
  0
VERTEX
  8
0
 10
397.105151
 20
211.661701
 42
-0.010367
  0
VERTEX
  8
0
 10
399.410410
 20
200.990870
 42
-0.000477
  0
VERTEX
  8
0
 10
406.469082
 20
164.500000
 42
-0.003555
  0
VERTEX
  8
0
 10
409.914442
 20
145.884805
 42
-0.003268
  0
VERTEX
  8
0
 10
413.196403
 20
126.692671
 42
-0.003346
  0
VERTEX
  8
0
 10
416.135245
 20
108.023986
 42
-0.004440
  0
VERTEX
  8
0
 10
418.544148
 20
91.000000
 42
0.001177
  0
VERTEX
  8
0
 10
421.465803
 20
69.334167
 42
0.013681
  0
VERTEX
  8
0
 10
422.860527
 20
60.893379
 42
0.036551
  0
VERTEX
  8
0
 10
424.130703
 20
56.197853
 42
0.083803
  0
VERTEX
  8
0
 10
425.896297
 20
53.000000
 42
0.053305
  0
VERTEX
  8
0
 10
429.646450
 20
49.195398
 42
0.064806
  0
VERTEX
  8
0
 10
433.892474
 20
46.553033
 42
0.062606
  0
VERTEX
  8
0
 10
438.795298
 20
45.024659
 42
0.045361
  0
VERTEX
  8
0
 10
444.500000
 20
44.530106
 42
0.016109
  0
VERTEX
  8
0
 10
448.052854
 20
44.659486
 42
0.031593
  0
VERTEX
  8
0
 10
450.857115
 20
45.031185
 42
0.037206
  0
VERTEX
  8
0
 10
453.268793
 20
45.696882
 42
0.035509
  0
VERTEX
  8
0
 10
455.594680
 20
46.720785
 42
0.048290
  0
VERTEX
  8
0
 10
459.144742
 20
49.057777
 42
0.036147
  0
VERTEX
  8
0
 10
462.569722
 20
52.254579
 42
0.037026
  0
VERTEX
  8
0
 10
465.293100
 20
55.667033
 42
0.088641
  0
VERTEX
  8
0
 10
466.616944
 20
58.609919
 42
0.075142
  0
VERTEX
  8
0
 10
466.805036
 20
60.565185
 42
0.001121
  0
VERTEX
  8
0
 10
466.155758
 20
72.076931
 42
0.003015
  0
VERTEX
  8
0
 10
465.290047
 20
85.456616
 42
0.001984
  0
VERTEX
  8
0
 10
464.140023
 20
100.841580
 42
0.000000
  0
VERTEX
  8
0
 10
461.017260
 20
140.500000
 42
0.000000
  0
VERTEX
  8
0
 10
448.575027
 20
192.859539
 42
-0.001298
  0
VERTEX
  8
0
 10
442.679179
 20
217.960141
 42
-0.004783
  0
VERTEX
  8
0
 10
439.145058
 20
233.873026
 42
-0.002824
  0
VERTEX
  8
0
 10
436.804630
 20
245.224401
 42
-0.141178
  0
VERTEX
  8
0
 10
436.991718
 20
247.478216
 42
-0.123641
  0
VERTEX
  8
0
 10
439.377717
 20
250.896758
 42
-0.090368
  0
VERTEX
  8
0
 10
443.376480
 20
253.267516
 42
-0.095421
  0
VERTEX
  8
0
 10
447.750048
 20
253.994206
 42
-0.160869
  0
VERTEX
  8
0
 10
451.216349
 20
252.750000
 42
-0.067098
  0
VERTEX
  8
0
 10
453.282924
 20
250.632283
 42
-0.001208
  0
VERTEX
  8
0
 10
462.698193
 20
237.900798
 42
-0.003105
  0
VERTEX
  8
0
 10
473.235964
 20
223.391274
 42
-0.002422
  0
VERTEX
  8
0
 10
484.511063
 20
207.500000
 42
0.006275
  0
VERTEX
  8
0
 10
498.510075
 20
188.088336
 42
0.006425
  0
VERTEX
  8
0
 10
512.883832
 20
169.188048
 42
0.006689
  0
VERTEX
  8
0
 10
526.048401
 20
152.788838
 42
0.018132
  0
VERTEX
  8
0
 10
535.948147
 20
141.638499
 42
0.032008
  0
VERTEX
  8
0
 10
544.800475
 20
133.482414
 42
0.033273
  0
VERTEX
  8
0
 10
554.512173
 20
126.637165
 42
0.033110
  0
VERTEX
  8
0
 10
565.092233
 20
121.112207
 42
0.031045
  0
VERTEX
  8
0
 10
576.535940
 20
116.896153
 42
0.043979
  0
VERTEX
  8
0
 10
584.898629
 20
115.174689
 42
0.018687
  0
VERTEX
  8
0
 10
596.314105
 20
114.285402
 42
0.018731
  0
VERTEX
  8
0
 10
607.817038
 20
114.251824
 42
0.041783
  0
VERTEX
  8
0
 10
616.500000
 20
115.281682
 42
0.021496
  0
VERTEX
  8
0
 10
632.977256
 20
119.393644
 42
0.023444
  0
VERTEX
  8
0
 10
648.561027
 20
124.808613
 42
0.025159
  0
VERTEX
  8
0
 10
662.294067
 20
131.133645
 42
0.040968
  0
VERTEX
  8
0
 10
673.135026
 20
137.988006
 42
0.037946
  0
VERTEX
  8
0
 10
684.371898
 20
147.874412
 42
0.031549
  0
VERTEX
  8
0
 10
694.754255
 20
159.945918
 42
0.032481
  0
VERTEX
  8
0
 10
703.135312
 20
172.674292
 42
0.053157
  0
VERTEX
  8
0
 10
708.291190
 20
184.500000
 42
0.020783
  0
VERTEX
  8
0
 10
709.389579
 20
188.573683
 42
0.026642
  0
VERTEX
  8
0
 10
710.040850
 20
192.401279
 42
0.021660
  0
VERTEX
  8
0
 10
710.361412
 20
196.848804
 42
0.008492
  0
VERTEX
  8
0
 10
710.433106
 20
203.000000
 42
0.015544
  0
VERTEX
  8
0
 10
710.171226
 20
210.188498
 42
0.020061
  0
VERTEX
  8
0
 10
709.461796
 20
216.755250
 42
0.013270
  0
VERTEX
  8
0
 10
708.001897
 20
225.047452
 42
0.003049
  0
VERTEX
  8
0
 10
705.082054
 20
238.957353
 42
-0.003397
  0
VERTEX
  8
0
 10
702.745806
 20
250.125790
 42
-0.008325
  0
VERTEX
  8
0
 10
701.220425
 20
258.378819
 42
-0.008971
  0
VERTEX
  8
0
 10
700.316327
 20
264.435811
 42
-0.065986
  0
VERTEX
  8
0
 10
700.320857
 20
267.355503
 42
-0.088346
  0
VERTEX
  8
0
 10
701.656754
 20
271.532150
 42
-0.024627
  0
VERTEX
  8
0
 10
705.171549
 20
277.462176
 42
-0.011888
  0
VERTEX
  8
0
 10
711.829145
 20
287.027177
 42
-0.001568
  0
VERTEX
  8
0
 10
726.485516
 20
306.920253
 42
0.002657
  0
VERTEX
  8
0
 10
735.990522
 20
319.880431
 42
0.016243
  0
VERTEX
  8
0
 10
740.642112
 20
326.753213
 42
0.030563
  0
VERTEX
  8
0
 10
743.402541
 20
331.789337
 42
0.033592
  0
VERTEX
  8
0
 10
745.430959
 20
336.970790
 42
0.017949
  0
VERTEX
  8
0
 10
747.894796
 20
345.870307
 42
0.028634
  0
VERTEX
  8
0
 10
749.283764
 20
353.638100
 42
0.026156
  0
VERTEX
  8
0
 10
749.847982
 20
361.997813
 42
0.012222
  0
VERTEX
  8
0
 10
749.746456
 20
372.854150
 42
0.006538
  0
VERTEX
  8
0
 10
749.373720
 20
380.800785
 42
0.018184
  0
VERTEX
  8
0
 10
748.836376
 20
386.362751
 42
0.022768
  0
VERTEX
  8
0
 10
747.979921
 20
391.117790
 42
0.016825
  0
VERTEX
  8
0
 10
746.618939
 20
396.288320
 42
0.072100
  0
VERTEX
  8
0
 10
733.965667
 20
423.519565
 42
0.075489
  0
VERTEX
  8
0
 10
714.259545
 20
445.556441
 42
0.075442
  0
VERTEX
  8
0
 10
688.888579
 20
460.760559
 42
0.071879
  0
VERTEX
  8
0
 10
659.724418
 20
468.076220
 42
0.025125
  0
VERTEX
  8
0
 10
650.983029
 20
468.531381
 42
0.029720
  0
VERTEX
  8
0
 10
642.721766
 20
468.054691
 42
0.029348
  0
VERTEX
  8
0
 10
634.488238
 20
466.592656
 42
0.023451
  0
VERTEX
  8
0
 10
625.828231
 20
464.090124
 42
0.008779
  0
VERTEX
  8
0
 10
606.790771
 20
457.232168
 42
0.005072
  0
VERTEX
  8
0
 10
584.124069
 20
448.350144
 42
0.004996
  0
VERTEX
  8
0
 10
560.887848
 20
438.700856
 42
0.006669
  0
VERTEX
  8
0
 10
540.000000
 20
429.449738
 42
-0.009661
  0
VERTEX
  8
0
 10
534.090992
 20
426.874850
 42
-0.004895
  0
VERTEX
  8
0
 10
526.559672
 20
423.850699
 42
-0.004860
  0
VERTEX
  8
0
 10
518.721628
 20
420.879591
 42
-0.007226
  0
VERTEX
  8
0
 10
511.798884
 20
418.445106
 42
-0.003270
  0
VERTEX
  8
0
 10
503.182000
 20
415.616644
 42
-0.021270
  0
VERTEX
  8
0
 10
498.782008
 20
414.407941
 42
-0.041824
  0
VERTEX
  8
0
 10
496.179685
 20
414.036009
 42
-0.238482
  0
VERTEX
  8
0
 10
494.937008
 20
414.575900
 42
-0.067152
  0
VERTEX
  8
0
 10
494.534740
 20
415.219497
 42
-0.054568
  0
VERTEX
  8
0
 10
494.282132
 20
415.993431
 42
-0.056276
  0
VERTEX
  8
0
 10
494.208473
 20
416.774459
 42
-0.087221
  0
VERTEX
  8
0
 10
494.337644
 20
417.437503
 42
-0.157313
  0
VERTEX
  8
0
 10
496.584806
 20
420.225051
 42
-0.003104
  0
VERTEX
  8
0
 10
512.134513
 20
430.280878
 42
-0.008021
  0
VERTEX
  8
0
 10
528.747296
 20
440.507300
 42
-0.010025
  0
VERTEX
  8
0
 10
544.500000
 20
449.437016
 42
0.007578
  0
VERTEX
  8
0
 10
571.839693
 20
464.758754
 42
0.008464
  0
VERTEX
  8
0
 10
597.702787
 20
480.363702
 42
0.007629
  0
VERTEX
  8
0
 10
619.269664
 20
494.342338
 42
0.048243
  0
VERTEX
  8
0
 10
629.377444
 20
502.629468
 42
0.041557
  0
VERTEX
  8
0
 10
636.627651
 20
511.157719
 42
0.031207
  0
VERTEX
  8
0
 10
643.164595
 20
521.604825
 42
0.029996
  0
VERTEX
  8
0
 10
648.615397
 20
533.281425
 42
0.030202
  0
VERTEX
  8
0
 10
652.615584
 20
545.500000
 42
0.013055
  0
VERTEX
  8
0
 10
654.003443
 20
551.430232
 42
0.024343
  0
VERTEX
  8
0
 10
654.765495
 20
556.303812
 42
0.020219
  0
VERTEX
  8
0
 10
655.128087
 20
561.789821
 42
0.006391
  0
VERTEX
  8
0
 10
655.233037
 20
570.000000
 42
0.006391
  0
VERTEX
  8
0
 10
655.128087
 20
578.210179
 42
0.020219
  0
VERTEX
  8
0
 10
654.765495
 20
583.696188
 42
0.024343
  0
VERTEX
  8
0
 10
654.003443
 20
588.569768
 42
0.013055
  0
VERTEX
  8
0
 10
652.615584
 20
594.500000
 42
0.057995
  0
VERTEX
  8
0
 10
643.652507
 20
617.481837
 42
0.061546
  0
VERTEX
  8
0
 10
629.788594
 20
637.290213
 42
0.061819
  0
VERTEX
  8
0
 10
611.581249
 20
653.058033
 42
0.059402
  0
VERTEX
  8
0
 10
589.833449
 20
664.148237
 42
0.000000
  0
VERTEX
  8
0
 10
581.500000
 20
667.217676
 42
0.000000
  0
VERTEX
  8
0
 10
546.000000
 20
667.865437
 42
-0.001157
  0
VERTEX
  8
0
 10
524.492666
 20
668.307646
 42
-0.011109
  0
VERTEX
  8
0
 10
515.342624
 20
668.720479
 42
-0.026319
  0
VERTEX
  8
0
 10
510.099710
 20
669.352298
 42
-0.077491
  0
VERTEX
  8
0
 10
506.669772
 20
670.516534
 42
-0.072793
  0
VERTEX
  8
0
 10
504.158249
 20
672.337098
 42
-0.008623
  0
VERTEX
  8
0
 10
499.296820
 20
677.241583
 42
-0.008724
  0
VERTEX
  8
0
 10
493.050003
 20
683.997067
 42
-0.004056
  0
VERTEX
  8
0
 10
485.169772
 20
692.968432
 42
0.009961
  0
VERTEX
  8
0
 10
468.887992
 20
711.069002
 42
0.043389
  0
VERTEX
  8
0
 10
458.168800
 20
720.692784
 42
0.065350
  0
VERTEX
  8
0
 10
448.249158
 20
726.298395
 42
0.045122
  0
VERTEX
  8
0
 10
435.886780
 20
730.036885
 42
0.029061
  0
VERTEX
  8
0
 10
427.557585
 20
731.256346
 42
0.015378
  0
VERTEX
  8
0
 10
417.131048
 20
731.846243
 42
0.015350
  0
VERTEX
  8
0
 10
406.820198
 20
731.795365
 42
0.033018
  0
SEQEND
  0
ENDSEC
  0
EOF
