999
dxfrw 0.6.3
  0
SECTION
  2
HEADER
  9
$ACADVER
  1
AC1021
  9
$DWGCODEPAGE
  3
ANSI_1252
  9
$INSBASE
 10
0
 20
0
 30
0
  9
$EXTMIN
 10
0.1810535905392605
 20
-1.169530349230979
 30
0
  9
$EXTMAX
 10
1038.743348121643
 20
735.7448339462281
 30
0
  9
$LIMMIN
 10
0
 20
0
  9
$LIMMAX
 10
420
 20
297
  9
$ORTHOMODE
 70
    0
  9
$REGENMODE
 70
    1
  9
$FILLMODE
 70
    1
  9
$QTEXTMODE
 70
    0
  9
$MIRRTEXT
 70
    0
  9
$LTSCALE
 40
1
  9
$ATTMODE
 70
    0
  9
$TEXTSIZE
 40
2.5
  9
$TRACEWID
 40
15.68
  9
$TEXTSTYLE
  7
STANDARD
  9
$CLAYER
  8
0
  9
$CELTYPE
  6
BYLAYER
  9
$CECOLOR
 62
  256
  9
$CELTSCALE
 40
1
  9
$DISPSILH
 70
    0
  9
$DIMSCALE
 40
1
  9
$DIMASZ
 40
2.5
  9
$DIMEXO
 40
0.625
  9
$DIMDLI
 40
3.75
  9
$DIMRND
 40
0
  9
$DIMDLE
 40
0
  9
$DIMEXE
 40
1.25
  9
$DIMTP
 40
0
  9
$DIMTM
 40
0
  9
$DIMTXT
 40
2.5
  9
$DIMCEN
 40
2.5
  9
$DIMTSZ
 40
0
  9
$DIMTOL
 70
    0
  9
$DIMLIM
 70
    0
  9
$DIMTIH
 70
    0
  9
$DIMTOH
 70
    0
  9
$DIMSE1
 70
    0
  9
$DIMSE2
 70
    0
  9
$DIMTAD
 70
    1
  9
$DIMZIN
 70
    8
  9
$DIMBLK
  1

  9
$DIMASO
 70
    1
  9
$DIMSHO
 70
    1
  9
$DIMPOST
  1

  9
$DIMAPOST
  1

  9
$DIMALT
 70
    0
  9
$DIMALTD
 70
    3
  9
$DIMALTF
 40
0.03937
  9
$DIMLFAC
 40
1
  9
$DIMTOFL
 70
    1
  9
$DIMTVP
 40
0
  9
$DIMTIX
 70
    0
  9
$DIMSOXD
 70
    0
  9
$DIMSAH
 70
    0
  9
$DIMBLK1
  1

  9
$DIMBLK2
  1

  9
$DIMSTYLE
  2
Standard
  9
$DIMCLRD
 70
    0
  9
$DIMCLRE
 70
    0
  9
$DIMCLRT
 70
    0
  9
$DIMTFAC
 40
1
  9
$DIMGAP
 40
0.625
  9
$DIMJUST
 70
    0
  9
$DIMSD1
 70
    0
  9
$DIMSD2
 70
    0
  9
$DIMTOLJ
 70
    0
  9
$DIMTZIN
 70
    8
  9
$DIMALTZ
 70
    0
  9
$DIMALTTZ
 70
    0
  9
$DIMUPT
 70
    0
  9
$DIMDEC
 70
    2
  9
$DIMTDEC
 70
    2
  9
$DIMALTU
 70
    2
  9
$DIMALTTD
 70
    3
  9
$DIMTXSTY
  7
STANDARD
  9
$DIMAUNIT
 70
    0
  9
$DIMADEC
 70
    0
  9
$DIMALTRND
 40
0
  9
$DIMAZIN
 70
    0
  9
$DIMDSEP
 70
   44
  9
$DIMATFIT
 70
    3
  9
$DIMFRAC
 70
    0
  9
$DIMLDRBLK
  1
STANDARD
  9
$DIMLUNIT
 70
    2
  9
$DIMLWD
 70
   -2
  9
$DIMLWE
 70
   -2
  9
$DIMTMOVE
 70
    0
  9
$DIMFXL
 40
1
  9
$DIMFXLON
 70
    0
  9
$DIMJOGANG
 40
0.7854
  9
$DIMTFILL
 70
    0
  9
$DIMTFILLCLR
 70
    0
  9
$DIMARCSYM
 70
    0
  9
$DIMLTYPE
  6

  9
$DIMLTEX1
  6

  9
$DIMLTEX2
  6

  9
$LUNITS
 70
    2
  9
$LUPREC
 70
    4
  9
$SKETCHINC
 40
1
  9
$FILLETRAD
 40
0
  9
$AUNITS
 70
    0
  9
$AUPREC
 70
    2
  9
$MENU
  1
.
  9
$ELEVATION
 40
0
  9
$PELEVATION
 40
0
  9
$THICKNESS
 40
0
  9
$LIMCHECK
 70
    0
  9
$CHAMFERA
 40
0
  9
$CHAMFERB
 40
0
  9
$CHAMFERC
 40
0
  9
$CHAMFERD
 40
0
  9
$SKPOLY
 70
    0
  9
$USRTIMER
 70
    1
  9
$ANGBASE
 50
0
  9
$ANGDIR
 70
    0
  9
$PDMODE
 70
   34
  9
$PDSIZE
 40
0
  9
$PLINEWID
 40
0
  9
$SPLFRAME
 70
    0
  9
$SPLINETYPE
 70
    2
  9
$SPLINESEGS
 70
    8
  9
$HANDSEED
  5
20000
  9
$SURFTAB1
 70
    6
  9
$SURFTAB2
 70
    6
  9
$SURFTYPE
 70
    6
  9
$SURFU
 70
    6
  9
$SURFV
 70
    6
  9
$UCSBASE
  2

  9
$UCSNAME
  2

  9
$UCSORG
 10
0
 20
0
 30
0
  9
$UCSXDIR
 10
1
 20
0
 30
0
  9
$UCSYDIR
 10
0
 20
1
 30
0
  9
$UCSORTHOREF
  2

  9
$UCSORTHOVIEW
 70
    0
  9
$UCSORGTOP
 10
0
 20
0
 30
0
  9
$UCSORGBOTTOM
 10
0
 20
0
 30
0
  9
$UCSORGLEFT
 10
0
 20
0
 30
0
  9
$UCSORGRIGHT
 10
0
 20
0
 30
0
  9
$UCSORGFRONT
 10
0
 20
0
 30
0
  9
$UCSORGBACK
 10
0
 20
0
 30
0
  9
$PUCSBASE
  2

  9
$PUCSNAME
  2

  9
$PUCSORG
 10
0
 20
0
 30
0
  9
$PUCSXDIR
 10
1
 20
0
 30
0
  9
$PUCSYDIR
 10
0
 20
1
 30
0
  9
$PUCSORTHOREF
  2

  9
$PUCSORTHOVIEW
 70
    0
  9
$PUCSORGTOP
 10
0
 20
0
 30
0
  9
$PUCSORGBOTTOM
 10
0
 20
0
 30
0
  9
$PUCSORGLEFT
 10
0
 20
0
 30
0
  9
$PUCSORGRIGHT
 10
0
 20
0
 30
0
  9
$PUCSORGFRONT
 10
0
 20
0
 30
0
  9
$PUCSORGBACK
 10
0
 20
0
 30
0
  9
$USERI1
 70
    0
  9
$USERI2
 70
    0
  9
$USERI3
 70
    0
  9
$USERI4
 70
    0
  9
$USERI5
 70
    0
  9
$USERR1
 40
0
  9
$USERR2
 40
0
  9
$USERR3
 40
0
  9
$USERR4
 40
0
  9
$USERR5
 40
0
  9
$WORLDVIEW
 70
    1
  9
$SHADEDGE
 70
    3
  9
$SHADEDIF
 70
   70
  9
$TILEMODE
 70
    1
  9
$MAXACTVP
 70
   64
  9
$PINSBASE
 10
0
 20
0
 30
0
  9
$PLIMCHECK
 70
    0
  9
$PEXTMIN
 10
0
 20
0
 30
0
  9
$PEXTMAX
 10
0
 20
0
 30
0
  9
$SNAPSTYLE
 70
    0
  9
$PLIMMIN
 10
0
 20
0
  9
$PLIMMAX
 10
210
 20
297
  9
$UNITMODE
 70
    0
  9
$VISRETAIN
 70
    1
  9
$PLINEGEN
 70
    0
  9
$PSLTSCALE
 70
    1
  9
$TREEDEPTH
 70
 3020
  9
$CMLSTYLE
  2
Standard
  9
$CMLJUST
 70
    0
  9
$CMLSCALE
 40
20
  9
$PROXYGRAPHICS
 70
    1
  9
$MEASUREMENT
 70
    1
  9
$CELWEIGHT
370
   -1
  9
$ENDCAPS
280
    0
  9
$JOINSTYLE
280
    0
  9
$LWDISPLAY
290
    0
  9
$INSUNITS
 70
    4
  9
$HYPERLINKBASE
  1

  9
$STYLESHEET
  1

  9
$XEDIT
290
    1
  9
$CEPSNTYPE
380
    0
  9
$PSTYLEMODE
290
    1
  9
$EXTNAMES
290
    1
  9
$PSVPSCALE
 40
1
  9
$OLESTARTUP
290
    0
  9
$SORTENTS
280
  127
  9
$INDEXCTL
280
    0
  9
$HIDETEXT
280
    1
  9
$XCLIPFRAME
290
    0
  9
$HALOGAP
280
    0
  9
$OBSCOLOR
 70
  257
  9
$OBSLTYPE
280
    0
  9
$INTERSECTIONDISPLAY
280
    0
  9
$INTERSECTIONCOLOR
 70
  257
  9
$DIMASSOC
280
    1
  9
$PROJECTNAME
  1

  9
$CAMERADISPLAY
290
    0
  9
$LENSLENGTH
 40
50
  9
$CAMERAHEIGHT
 40
0
  9
$STEPSPERSEC
 40
2
  9
$STEPSIZE
 40
50
  9
$3DDWFPREC
 40
2
  9
$PSOLWIDTH
 40
5
  9
$PSOLHEIGHT
 40
80
  9
$LOFTANG1
 40
1.570796326794897
  9
$LOFTANG2
 40
1.570796326794897
  9
$LOFTMAG1
 40
0
  9
$LOFTMAG2
 40
0
  9
$LOFTPARAM
 70
    7
  9
$LOFTNORMALS
280
    1
  9
$LATITUDE
 40
1
  9
$LONGITUDE
 40
1
  9
$NORTHDIRECTION
 40
0
  9
$TIMEZONE
 70
-8000
  9
$LIGHTGLYPHDISPLAY
280
    1
  9
$TILEMODELIGHTSYNCH
280
    1
  9
$SOLIDHIST
280
    1
  9
$SHOWHIST
280
    1
  9
$DWFFRAME
280
    2
  9
$DGNFRAME
280
    0
  9
$REALWORLDSCALE
290
    1
  9
$INTERFERECOLOR
 62
    1
  9
$CSHADOW
280
    0
  9
$SHADOWPLANELOCATION
 40
0
  0
ENDSEC
  0
SECTION
  2
CLASSES
  0
ENDSEC
  0
SECTION
  2
TABLES
  0
TABLE
  2
VPORT
  5
8
330
0
100
AcDbSymbolTable
 70
    1
  0
VPORT
  5
31
330
2
100
AcDbSymbolTableRecord
100
AcDbViewportTableRecord
  2
*ACTIVE
 70
    0
 10
0
 20
0
 11
1
 21
1
 12
28.47539200000042
 22
14.09024000000021
 13
0
 23
0
 14
10
 24
10
 15
10
 25
10
 16
0
 26
0
 36
1
 17
0
 27
0
 37
0
 40
50.59379200000075
 41
1.933937823834197
 42
50
 43
0
 44
0
 50
0
 51
0
 71
    0
 72
  100
 73
    1
 74
    3
 75
    0
 76
    1
 77
    0
 78
    0
281
    0
 65
    1
110
0
120
0
130
0
111
1
121
0
131
0
112
0
122
1
132
0
 79
    0
146
0
348
10020
 60
    7
 61
    5
292
1
282
    1
141
0
142
0
 63
  250
421
3358443
  0
ENDTAB
  0
TABLE
  2
LTYPE
  5
5
330
0
100
AcDbSymbolTable
 70
    4
  0
LTYPE
  5
14
330
5
100
AcDbSymbolTableRecord
100
AcDbLinetypeTableRecord
  2
ByBlock
 70
    0
  3

 72
   65
 73
    0
 40
0
  0
LTYPE
  5
15
330
5
100
AcDbSymbolTableRecord
100
AcDbLinetypeTableRecord
  2
ByLayer
 70
    0
  3

 72
   65
 73
    0
 40
0
  0
LTYPE
  5
16
330
5
100
AcDbSymbolTableRecord
100
AcDbLinetypeTableRecord
  2
Continuous
 70
    0
  3
Solid line
 72
   65
 73
    0
 40
0
  0
LTYPE
  5
32
330
5
100
AcDbSymbolTableRecord
100
AcDbLinetypeTableRecord
  2
DOT
 70
    0
  3
Dot . . . . . . . . . . . . . . . . . . . . . .
 72
   65
 73
    2
 40
6.35
 49
0
 74
    0
 49
-6.35
 74
    0
  0
LTYPE
  5
33
330
5
100
AcDbSymbolTableRecord
100
AcDbLinetypeTableRecord
  2
DOTTINY
 70
    0
  3
Dot (.15x) .....................................
 72
   65
 73
    2
 40
0.9525
 49
0
 74
    0
 49
-0.9525
 74
    0
  0
LTYPE
  5
34
330
5
100
AcDbSymbolTableRecord
100
AcDbLinetypeTableRecord
  2
DOT2
 70
    0
  3
Dot (.5x) .....................................
 72
   65
 73
    2
 40
3.175
 49
0
 74
    0
 49
-3.175
 74
    0
  0
LTYPE
  5
35
330
5
100
AcDbSymbolTableRecord
100
AcDbLinetypeTableRecord
  2
DOTX2
 70
    0
  3
Dot (2x) .  .  .  .  .  .  .  .  .  .  .  .  .
 72
   65
 73
    2
 40
12.7
 49
0
 74
    0
 49
-12.7
 74
    0
  0
LTYPE
  5
36
330
5
100
AcDbSymbolTableRecord
100
AcDbLinetypeTableRecord
  2
DASHED
 70
    0
  3
Dashed _ _ _ _ _ _ _ _ _ _ _ _ _ _ _ _ _
 72
   65
 73
    2
 40
19.05
 49
12.7
 74
    0
 49
-6.35
 74
    0
  0
LTYPE
  5
37
330
5
100
AcDbSymbolTableRecord
100
AcDbLinetypeTableRecord
  2
DASHEDTINY
 70
    0
  3
Dashed (.15x) _ _ _ _ _ _ _ _ _ _ _ _ _ _ _ _ _
 72
   65
 73
    2
 40
2.8575
 49
1.905
 74
    0
 49
-0.9525
 74
    0
  0
LTYPE
  5
38
330
5
100
AcDbSymbolTableRecord
100
AcDbLinetypeTableRecord
  2
DASHED2
 70
    0
  3
Dashed (.5x) _ _ _ _ _ _ _ _ _ _ _ _ _ _ _ _ _
 72
   65
 73
    2
 40
9.524999999999999
 49
6.35
 74
    0
 49
-3.175
 74
    0
  0
LTYPE
  5
39
330
5
100
AcDbSymbolTableRecord
100
AcDbLinetypeTableRecord
  2
DASHEDX2
 70
    0
  3
Dashed (2x) ____  ____  ____  ____  ____  ___
 72
   65
 73
    2
 40
38.09999999999999
 49
25.4
 74
    0
 49
-12.7
 74
    0
  0
LTYPE
  5
3A
330
5
100
AcDbSymbolTableRecord
100
AcDbLinetypeTableRecord
  2
DASHDOT
 70
    0
  3
Dash dot __ . __ . __ . __ . __ . __ . __ . __
 72
   65
 73
    4
 40
25.4
 49
12.7
 74
    0
 49
-6.35
 74
    0
 49
0
 74
    0
 49
-6.35
 74
    0
  0
LTYPE
  5
3B
330
5
100
AcDbSymbolTableRecord
100
AcDbLinetypeTableRecord
  2
DASHDOTTINY
 70
    0
  3
Dash dot (.15x) _._._._._._._._._._._._._._._.
 72
   65
 73
    4
 40
3.81
 49
1.905
 74
    0
 49
-0.9525
 74
    0
 49
0
 74
    0
 49
-0.9525
 74
    0
  0
LTYPE
  5
3C
330
5
100
AcDbSymbolTableRecord
100
AcDbLinetypeTableRecord
  2
DASHDOT2
 70
    0
  3
Dash dot (.5x) _._._._._._._._._._._._._._._.
 72
   65
 73
    4
 40
12.7
 49
6.35
 74
    0
 49
-3.175
 74
    0
 49
0
 74
    0
 49
-3.175
 74
    0
  0
LTYPE
  5
3D
330
5
100
AcDbSymbolTableRecord
100
AcDbLinetypeTableRecord
  2
DASHDOTX2
 70
    0
  3
Dash dot (2x) ____  .  ____  .  ____  .  ___
 72
   65
 73
    4
 40
50.8
 49
25.4
 74
    0
 49
-12.7
 74
    0
 49
0
 74
    0
 49
-12.7
 74
    0
  0
LTYPE
  5
3E
330
5
100
AcDbSymbolTableRecord
100
AcDbLinetypeTableRecord
  2
DIVIDE
 70
    0
  3
Divide ____ . . ____ . . ____ . . ____ . . ____
 72
   65
 73
    6
 40
31.75
 49
12.7
 74
    0
 49
-6.35
 74
    0
 49
0
 74
    0
 49
-6.35
 74
    0
 49
0
 74
    0
 49
-6.35
 74
    0
  0
LTYPE
  5
3F
330
5
100
AcDbSymbolTableRecord
100
AcDbLinetypeTableRecord
  2
DIVIDETINY
 70
    0
  3
Divide (.15x) __..__..__..__..__..__..__..__.._
 72
   65
 73
    6
 40
4.7625
 49
1.905
 74
    0
 49
-0.9525
 74
    0
 49
0
 74
    0
 49
-0.9525
 74
    0
 49
0
 74
    0
 49
-0.9525
 74
    0
  0
LTYPE
  5
40
330
5
100
AcDbSymbolTableRecord
100
AcDbLinetypeTableRecord
  2
DIVIDE2
 70
    0
  3
Divide (.5x) __..__..__..__..__..__..__..__.._
 72
   65
 73
    6
 40
15.875
 49
6.35
 74
    0
 49
-3.175
 74
    0
 49
0
 74
    0
 49
-3.175
 74
    0
 49
0
 74
    0
 49
-3.175
 74
    0
  0
LTYPE
  5
41
330
5
100
AcDbSymbolTableRecord
100
AcDbLinetypeTableRecord
  2
DIVIDEX2
 70
    0
  3
Divide (2x) ________  .  .  ________  .  .  _
 72
   65
 73
    6
 40
63.5
 49
25.4
 74
    0
 49
-12.7
 74
    0
 49
0
 74
    0
 49
-12.7
 74
    0
 49
0
 74
    0
 49
-12.7
 74
    0
  0
LTYPE
  5
42
330
5
100
AcDbSymbolTableRecord
100
AcDbLinetypeTableRecord
  2
BORDER
 70
    0
  3
Border __ __ . __ __ . __ __ . __ __ . __ __ .
 72
   65
 73
    6
 40
44.45
 49
12.7
 74
    0
 49
-6.35
 74
    0
 49
12.7
 74
    0
 49
-6.35
 74
    0
 49
0
 74
    0
 49
-6.35
 74
    0
  0
LTYPE
  5
43
330
5
100
AcDbSymbolTableRecord
100
AcDbLinetypeTableRecord
  2
BORDERTINY
 70
    0
  3
Border (.15x) __.__.__.__.__.__.__.__.__.__.__.
 72
   65
 73
    6
 40
6.6675
 49
1.905
 74
    0
 49
-0.9525
 74
    0
 49
1.905
 74
    0
 49
-0.9525
 74
    0
 49
0
 74
    0
 49
-0.9525
 74
    0
  0
LTYPE
  5
44
330
5
100
AcDbSymbolTableRecord
100
AcDbLinetypeTableRecord
  2
BORDER2
 70
    0
  3
Border (.5x) __.__.__.__.__.__.__.__.__.__.__.
 72
   65
 73
    6
 40
22.225
 49
6.35
 74
    0
 49
-3.175
 74
    0
 49
6.35
 74
    0
 49
-3.175
 74
    0
 49
0
 74
    0
 49
-3.175
 74
    0
  0
LTYPE
  5
45
330
5
100
AcDbSymbolTableRecord
100
AcDbLinetypeTableRecord
  2
BORDERX2
 70
    0
  3
Border (2x) ____  ____  .  ____  ____  .  ___
 72
   65
 73
    6
 40
88.89999999999999
 49
25.4
 74
    0
 49
-12.7
 74
    0
 49
25.4
 74
    0
 49
-12.7
 74
    0
 49
0
 74
    0
 49
-12.7
 74
    0
  0
LTYPE
  5
46
330
5
100
AcDbSymbolTableRecord
100
AcDbLinetypeTableRecord
  2
CENTER
 70
    0
  3
Center ____ _ ____ _ ____ _ ____ _ ____ _ ____
 72
   65
 73
    4
 40
50.8
 49
31.75
 74
    0
 49
-6.35
 74
    0
 49
6.35
 74
    0
 49
-6.35
 74
    0
  0
LTYPE
  5
47
330
5
100
AcDbSymbolTableRecord
100
AcDbLinetypeTableRecord
  2
CENTERTINY
 70
    0
  3
Center (.15x) ___ _ ___ _ ___ _ ___ _ ___ _ ___
 72
   65
 73
    4
 40
7.619999999999999
 49
4.7625
 74
    0
 49
-0.9525
 74
    0
 49
0.9525
 74
    0
 49
-0.9525
 74
    0
  0
LTYPE
  5
48
330
5
100
AcDbSymbolTableRecord
100
AcDbLinetypeTableRecord
  2
CENTER2
 70
    0
  3
Center (.5x) ___ _ ___ _ ___ _ ___ _ ___ _ ___
 72
   65
 73
    4
 40
28.575
 49
19.05
 74
    0
 49
-3.175
 74
    0
 49
3.175
 74
    0
 49
-3.175
 74
    0
  0
LTYPE
  5
49
330
5
100
AcDbSymbolTableRecord
100
AcDbLinetypeTableRecord
  2
CENTERX2
 70
    0
  3
Center (2x) ________  __  ________  __  _____
 72
   65
 73
    4
 40
101.6
 49
63.5
 74
    0
 49
-12.7
 74
    0
 49
12.7
 74
    0
 49
-12.7
 74
    0
  0
ENDTAB
  0
TABLE
  2
LAYER
  5
2
330
0
100
AcDbSymbolTable
 70
    1
  0
LAYER
  5
10
330
2
100
AcDbSymbolTableRecord
100
AcDbLayerTableRecord
  2
0
 70
    0
 62
    7
  6
CONTINUOUS
370
    0
390
F
  0
ENDTAB
  0
TABLE
  2
STYLE
  5
3
330
0
100
AcDbSymbolTable
 70
    3
  0
STYLE
  5
4A
330
2
100
AcDbSymbolTableRecord
100
AcDbTextStyleTableRecord
  2
Standard
 70
    0
 40
0
 41
1
 50
0
 71
    0
 42
1
  3
txt
  4

  0
ENDTAB
  0
TABLE
  2
VIEW
  5
6
330
0
100
AcDbSymbolTable
 70
    0
  0
ENDTAB
  0
TABLE
  2
UCS
  5
7
330
0
100
AcDbSymbolTable
 70
    0
  0
ENDTAB
  0
TABLE
  2
APPID
  5
9
330
0
100
AcDbSymbolTable
 70
    1
  0
APPID
  5
12
330
9
100
AcDbSymbolTableRecord
100
AcDbRegAppTableRecord
  2
ACAD
 70
    0
  0
APPID
  5
4B
330
9
100
AcDbSymbolTableRecord
100
AcDbRegAppTableRecord
  2
LibreCad
 70
    0
  0
ENDTAB
  0
TABLE
  2
DIMSTYLE
  5
A
330
0
100
AcDbSymbolTable
 70
    1
100
AcDbDimStyleTable
 71
    1
  0
DIMSTYLE
105
4C
330
A
100
AcDbSymbolTableRecord
100
AcDbDimStyleTableRecord
  2
Standard
 70
    0
 40
1
 41
2.5
 42
0.625
 43
0.38
 44
1.25
 45
0
 46
0
 47
0
 48
0
 49
1
140
2.5
141
0.09
142
0
143
25.4
144
1
145
0
146
1
147
0.625
148
0
 71
    0
 72
    0
 73
    0
 74
    1
 75
    0
 76
    0
 77
    0
 78
    1
 79
    0
170
    0
171
    2
172
    0
173
    0
174
    0
175
    0
176
    0
177
    0
178
    0
179
    0
271
    2
272
    4
273
    2
274
    2
275
    0
276
    0
277
    2
278
    0
279
    0
280
    0
281
    0
282
    0
283
    1
284
    0
285
    0
286
    0
288
    0
289
    3
340
standard
341

371
   -2
372
   -2
  0
ENDTAB
  0
TABLE
  2
BLOCK_RECORD
  5
1
330
0
100
AcDbSymbolTable
 70
    2
  0
BLOCK_RECORD
  5
1F
330
1
100
AcDbSymbolTableRecord
100
AcDbBlockTableRecord
  2
*Model_Space
 70
    0
280
    1
281
    0
  0
BLOCK_RECORD
  5
1E
330
1
100
AcDbSymbolTableRecord
100
AcDbBlockTableRecord
  2
*Paper_Space
 70
    0
280
    1
281
    0
  0
ENDTAB
  0
ENDSEC
  0
SECTION
  2
BLOCKS
  0
BLOCK
  5
20
330
1F
100
AcDbEntity
  8
0
100
AcDbBlockBegin
  2
*Model_Space
 70
    0
 10
0
 20
0
 30
0
  3
*Model_Space
  1

  0
ENDBLK
  5
21
330
1F
100
AcDbEntity
  8
0
100
AcDbBlockEnd
  0
BLOCK
  5
1C
330
1B
100
AcDbEntity
  8
0
100
AcDbBlockBegin
  2
*Paper_Space
 70
    0
 10
0
 20
0
 30
0
  3
*Paper_Space
  1

  0
ENDBLK
  5
1D
330
1F
100
AcDbEntity
  8
0
100
AcDbBlockEnd
  0
ENDSEC
  0
SECTION
  2
ENTITIES
  0
LWPOLYLINE
  5
4D
100
AcDbEntity
  8
0
  6
ByLayer
 62
  256
370
   -1
100
AcDbPolyline
 90
  342
 70
    1
 43
0
 10
6.714275247921876
 20
11.96911899197853
 42
0.03101200000000001
 10
6.512011489521853
 20
11.92183236357853
 42
0.02812100000000001
 10
6.310240551121865
 20
11.84866168077853
 42
0.02805799999999999
 10
6.11748775952185
 20
11.75310937677853
 42
0.03049999999999997
 10
5.942175941521896
 20
11.63892493437854
 42
-0.0001960000000001601
 10
5.883623382321844
 20
11.59552151437849
 42
-0.0001590000000000961
 10
5.820776630721809
 20
11.54900402957848
 42
-0.000159999999999919
 10
5.762794201121892
 20
11.50614428597852
 42
-0.0004160000000000416
 10
5.720973987921866
 20
11.47530593917851
 42
0.02049100000000002
 10
5.681830713921897
 20
11.44394043077853
 42
0.009316000000000015
 10
5.633156907921887
 20
11.39992878397852
 42
0.009206000000000006
 10
5.583490721521855
 20
11.35155827957853
 42
0.01248500000000006
 10
5.540573987921903
 20
11.30597100277853
 42
0.06009099999999992
 10
5.337417905521875
 20
11.01544000077853
 42
0.06354699999999998
 10
5.213804348721851
 20
10.69025963637852
 42
0.06147900000000008
 10
5.173297923121879
 20
10.33503822757853
 42
0.05073299999999997
 10
5.21541746912186
 20
9.955912490378527
 42
0.007496000000000015
 10
5.271428405521874
 20
9.713436489578527
 42
0.004783000000000004
 10
5.343463027521864
 20
9.433164376378535
 42
0.004617000000000043
 10
5.424829577521848
 20
9.139591600778544
 42
0.005037000000000161
 10
5.509359162721921
 20
8.85599899597849
 42
-0.0009599999999999251
 10
5.692596789121865
 20
8.259071435178539
 42
-0.01122199999999998
 10
5.758418189121869
 20
8.024416069578528
 42
-0.02875500000000004
 10
5.787487025121891
 20
7.876098766378527
 42
-0.0340240000000002
 10
5.797197202721861
 20
7.733567727578524
 42
-0.005580999999999815
 10
5.796123445521857
 20
7.637377889978527
 42
-0.03375099999999991
 10
5.791650985121862
 20
7.587708357978527
 42
-0.06891299999999971
 10
5.782294276721871
 20
7.556903795178527
 42
-0.1010249999999999
 10
5.765572492321894
 20
7.534154649978527
 42
-0.1109509999999998
 10
5.735315279521899
 20
7.517048170778526
 42
-0.1372960000000009
 10
5.703073141921891
 20
7.516381281178526
 42
-0.1172500000000007
 10
5.671392819121877
 20
7.533102147178527
 42
-0.06802600000000002
 10
5.643004566721856
 20
7.565739524778527
 42
0.02026300000000003
 10
5.626343134321871
 20
7.589050222378527
 42
0.002636000000000029
 10
5.588565045521875
 20
7.637093645178529
 42
0.003066999999999992
 10
5.543077792321867
 20
7.693602452778526
 42
0.002558999999999971
 10
5.49408656432189
 20
7.753081464378525
 42
-0.03452699999999997
 10
5.399853558321865
 20
7.883663512378526
 42
-0.02517600000000001
 10
5.313119435921863
 20
8.04028841597853
 42
-0.01116299999999981
 10
5.194608361921837
 20
8.296618710378537
 42
-0.001292000000000104
 10
4.943242396721871
 20
8.877891027978587
 42
0.009466000000000033
 10
4.780464557521896
 20
9.238030288378528
 42
0.008387000000000058
 10
4.597697512721879
 20
9.606728233178526
 42
0.007605000000000053
 10
4.425596093121897
 20
9.927688565978528
 42
0.04044500000000001
 10
4.31518437232188
 20
10.09321806277853
 42
0.053568
 10
4.111970529121891
 20
10.30023501677853
 42
0.0494690000000001
 10
3.864178993121868
 20
10.46570635917852
 42
0.04938599999999999
 10
3.588274232721858
 20
10.57951391317852
 42
0.05297900000000001
 10
3.301849462721862
 20
10.63361201917853
 42
0.02881100000000004
 10
3.146379086321872
 20
10.63722095397853
 42
0.0110019999999999
 10
2.930086275921894
 20
10.62500872677852
 42
0.01106699999999992
 10
2.713275323921891
 20
10.60313735877853
 42
0.02677699999999997
 10
2.554795924721873
 20
10.57491884637853
 42
0.01963199999999999
 10
2.408279915521859
 20
10.53452508877853
 42
0.02236500000000008
 10
2.2717441427219
 20
10.48422161477853
 42
0.0227440000000001
 10
2.142290135921883
 20
10.42277043757853
 42
0.02177199999999996
 10
2.016997202721882
 20
10.34898567317853
 42
0.02773000000000006
 10
1.839585102321905
 20
10.21930606797853
 42
0.03049099999999996
 10
1.683471468721905
 20
10.07456737597852
 42
0.03289199999999991
 10
1.558725606721907
 20
9.925396551178526
 42
0.05363000000000008
 10
1.47632405272185
 20
9.782655362778524
 42
0.03147900000000003
 10
1.42557000512187
 20
9.645089374778525
 42
0.04012300000000001
 10
1.397352083121859
 20
9.512899536378526
 42
0.02315499999999998
 10
1.382036943121875
 20
9.330574832378524
 42
0.003987999999999953
 10
1.371794749521882
 20
8.983771592778524
 42
-0.001520999999999964
 10
1.364741962321887
 20
8.697020807178522
 42
-0.01130599999999998
 10
1.357890501521865
 20
8.560769689178525
 42
-0.0220669999999999
 10
1.34852387112187
 20
8.481065344778527
 42
-0.1052040000000002
 10
1.332003560721887
 20
8.438565876378526
 42
-0.05769499999999997
 10
1.308310005121882
 20
8.410185807578522
 42
-0.002146999999999824
 10
1.206832430321867
 20
8.31458310637853
 42
-0.003868000000000192
 10
1.085258295521839
 20
8.202777319978518
 42
-0.002707000000000072
 10
0.9466035607218828
 20
8.078589074378522
 42
0.002134000000000049
 10
0.6192697615218776
 20
7.786083791178521
 42
0.02203899999999996
 10
0.4903021951218989
 20
7.659110464778527
 42
0.04650199999999999
 10
0.411915164321897
 20
7.557309465578527
 42
0.02779799999999999
 10
0.3375892327218821
 20
7.423700010378528
 42
0.01764999999999999
 10
0.2526587331219048
 20
7.231861617178528
 42
0.04295899999999993
 10
0.2076264323218879
 20
7.083994067578526
 42
0.03981500000000004
 10
0.1866914387218799
 20
6.924074223578526
 42
0.0133670000000001
 10
0.1810719131218548
 20
6.688491027978532
 42
0.003523000000000105
 10
0.1829037439218837
 20
6.503996931978528
 42
0.02126799999999984
 10
0.1885979879218667
 20
6.408415714778527
 42
0.03279000000000008
 10
0.2014806471218549
 20
6.332267710378527
 42
0.01616500000000022
 10
0.2272499835218582
 20
6.237491027978527
 42
0.02904899999999987
 10
0.3051771255218796
 20
6.027848466778528
 42
0.03386000000000016
 10
0.4036062519218717
 20
5.839548931178527
 42
0.03417099999999999
 10
0.5256854247218712
 20
5.667703630378528
 42
0.03061099999999986
 10
0.6743100147218684
 20
5.507264726378527
 42
0.03167499999999999
 10
0.8428410395218862
 20
5.365579419178527
 42
0.03417300000000011
 10
1.023856597121892
 20
5.250210207978528
 42
0.0341899999999999
 10
1.218813794721882
 20
5.160620501178525
 42
0.03177199999999996
 10
1.428953718721857
 20
5.095874416378527
 42
0.01345300000000003
 10
1.511765239921885
 20
5.078357527178526
 42
0.025523
 10
1.579326925921862
 20
5.069489259978527
 42
0.02371200000000007
 10
1.650623301921883
 20
5.067202361978526
 42
0.01000799999999983
 10
1.74639720272188
 20
5.070590765978527
 42
0.01938799999999998
 10
2.002637149521888
 20
5.094787588378524
 42
0.006733000000000165
 10
2.369828721521856
 20
5.148927678378524
 42
0.006516000000000069
 10
2.783714291521903
 20
5.22120431517853
 42
0.006411999999999975
 10
3.197797202721858
 20
5.304600791578528
 42
-0.004925999999999966
 10
3.464778542721888
 20
5.359196965578526
 42
-0.009936000000000032
 10
3.676402010721858
 20
5.395957007978526
 42
-0.01234399999999993
 10
3.853356862721853
 20
5.418629105978527
 42
-0.01747900000000002
 10
4.01176975992189
 20
5.429383914378525
 10
4.148997202721887
 20
5.433891027978526
 10
4.154080087521891
 20
5.389894059178526
 42
-0.04784000000000008
 10
4.154473769521871
 20
5.369615213178526
 42
-0.07918699999999947
 10
4.150509036721871
 20
5.352999897578526
 42
-0.09077900000000079
 10
4.142122814721859
 20
5.340011999578527
 42
-0.08423399999999866
 10
4.12948008752187
 20
5.330434383178527
 42
-0.0586119999999999
 10
4.04949789432186
 20
5.300039787578528
 42
-0.0059349999999999
 10
3.85128573952187
 20
5.252749993978528
 42
-0.007985000000000216
 10
3.631261814321874
 20
5.206689134378523
 42
-0.01024300000000018
 10
3.427397202721863
 20
5.171713362778526
 42
0.007246000000000087
 10
2.974704804721853
 20
5.096838178778524
 42
0.005839000000000015
 10
2.490453706321887
 20
5.003664202778532
 42
0.005245000000000076
 10
2.057327672721897
 20
4.910326079178529
 42
0.02744900000000006
 10
1.822909697121872
 20
4.843520252778526
 42
0.06441899999999998
 10
1.567856536321869
 20
4.716782659978526
 42
0.04942199999999997
 10
1.327351159521868
 20
4.518853470778526
 42
0.04757400000000001
 10
1.12139736832188
 20
4.268481542378527
 42
0.048985
 10
0.9687872831218556
 20
3.986048253578526
 42
0.024191
 10
0.9142718627218756
 20
3.836299115578526
 42
0.03041099999999993
 10
0.8791909343218549
 20
3.692918277978525
 42
0.02814199999999994
 10
0.8600175303218975
 20
3.537674893978526
 42
0.01665500000000002
 10
0.853800651121901
 20
3.351091027978527
 42
0.01856299999999998
 10
0.8613532939218658
 20
3.147723582378527
 42
0.03351999999999991
 10
0.8848131659218552
 20
2.982748864778526
 42
0.03527399999999983
 10
0.9290653843218593
 20
2.828152460778528
 42
0.02327500000000014
 10
1.000377996321902
 20
2.657511034778526
 42
0.03129899999999989
 10
1.10536212072185
 20
2.467587554778528
 42
0.03041
 10
1.234156404721887
 20
2.290327515178527
 42
0.03166699999999997
 10
1.376941249921856
 20
2.137812500778526
 42
0.044164
 10
1.523745341521874
 20
2.022280617978526
 42
0.0426869999999999
 10
1.580165703921864
 20
1.991957378778525
 42
0.003986000000000075
 10
1.72566838992185
 20
1.930463184378528
 42
0.005038999999999979
 10
1.902435527521902
 20
1.859488346778525
 42
0.00374499999999997
 10
2.098997202721876
 20
1.784547972778523
 42
-0.002056999999999965
 10
2.436155881121863
 20
1.657306293178521
 42
-0.01682000000000001
 10
2.587792724721851
 20
1.593442249578526
 42
-0.03804299999999993
 10
2.67241106672185
 20
1.546298645578526
 42
-0.1019519999999999
 10
2.720840578321884
 20
1.497659853578526
 42
-0.04505299999999989
 10
2.736603553121881
 20
1.468106938778523
 42
-0.002031999999999949
 10
2.781059147921894
 20
1.361741983578527
 42
-0.003392000000000015
 10
2.832497370721853
 20
1.234818332778528
 42
-0.002420000000000081
 10
2.888434490721863
 20
1.092048673978533
 42
0.002503999999999978
 10
2.946034931521865
 20
0.9451064287785393
 42
0.002876000000000113
 10
3.002543558721868
 20
0.805392335978526
 42
0.002588000000000034
 10
3.051743804721866
 20
0.6874711043785283
 42
0.01653399999999988
 10
3.078951716321853
 20
0.6286910279785271
 42
0.0264979999999999
 10
3.136043921121882
 20
0.5288750683785274
 42
0.02447899999999996
 10
3.204793295121874
 20
0.4328775371785263
 42
0.0255359999999999
 10
3.278222441921855
 20
0.3494086711785258
 42
0.04200299999999983
 10
3.349230046721857
 20
0.2878449571785265
 42
0.03787699999999996
 10
3.505212562321901
 20
0.191219387978527
 42
0.02609700000000018
 10
3.694526929921892
 20
0.1051488751785252
 42
0.02567299999999992
 10
3.896394923521882
 20
0.03753611957852576
 42
0.03167699999999991
 10
4.090521329921899
 20
-0.003541026021473659
 42
0.03078599999999994
 10
4.231195544321906
 20
-0.01533434802147404
 42
0.01456899999999984
 10
4.413312279921854
 20
-0.01405057242147389
 42
0.01433299999999999
 10
4.591223104321898
 20
-0.002497149621474293
 42
0.039613
 10
4.714797202721854
 20
0.01905841997852442
 42
0.007052000000000262
 10
4.874400510321891
 20
0.06254103557852653
 42
0.006749000000000119
 10
5.035084003921895
 20
0.1111196067785256
 42
0.006770999999999947
 10
5.176085545921865
 20
0.1579442963785245
 42
0.02272800000000014
 10
5.26644734832189
 20
0.1939959243785254
 42
0.06367799999999996
 10
5.563966619921871
 20
0.3773289659785249
 42
0.06017000000000002
 10
5.81224220192189
 20
0.6327740867785256
 42
0.06011399999999999
 10
5.992754213921899
 20
0.9402325783785255
 42
0.06332100000000009
 10
6.091027835521857
 20
1.276496620378525
 42
0.01293800000000001
 10
6.116880155921876
 20
1.471229301978521
 42
0.003869000000000038
 10
6.146298557921853
 20
1.769309797978521
 42
0.004024000000000033
 10
6.172577376721847
 20
2.086774618378525
 42
0.006394999999999933
 10
6.189402103921736
 20
2.358891027978347
 42
7.999999999956623e-06
 10
6.197130554720445
 20
2.516665735578095
 42
3.999999999914311e-06
 10
6.206872876320915
 20
2.715646935564042
 42
4.000000000136356e-06
 10
6.216936375522209
 20
2.921253079570088
 42
6.00000000002249e-06
 10
6.225743897122129
 20
3.101268581574645
 42
-0.004280999999999971
 10
6.242583827121848
 20
3.394128957578528
 42
-0.044236
 10
6.261168290721855
 20
3.513524155578526
 42
-0.1094850000000004
 10
6.295580115521886
 20
3.582817435578527
 42
-0.08627200000000031
 10
6.358747306721853
 20
3.638179620778526
 42
-0.07518500000000003
 10
6.424829253521864
 20
3.665919318778526
 42
-0.1053330000000003
 10
6.488606754321893
 20
3.668309471178526
 42
-0.09432600000000005
 10
6.552906545921871
 20
3.644068073578526
 42
-0.05049199999999993
 10
6.620743063121893
 20
3.592549769578526
 42
-0.1101
 10
6.656464690321855
 20
3.540454300378526
 42
-0.03707899999999999
 10
6.684521679121872
 20
3.452142924378525
 42
-0.01036699999999992
 10
6.722327926721903
 20
3.277141295978475
 42
-0.0004769999999999944
 10
6.838090147521882
 20
2.678691027978483
 42
-0.003555000000000001
 10
6.894594051521892
 20
2.373401829978525
 42
-0.003267999999999977
 10
6.948418211921876
 20
2.058650832378523
 42
-0.003346000000000011
 10
6.996615220721878
 20
1.752484398378525
 42
-0.004440000000000004
 10
7.036121229921889
 20
1.473291027978509
 42
0.001176999999999928
 10
7.084036371921854
 20
1.117971366778528
 42
0.01368099999999993
 10
7.106909845521898
 20
0.9795424435785272
 42
0.03655100000000008
 10
7.127740731921904
 20
0.9025358171785258
 42
0.08380299999999995
 10
7.15669647352189
 20
0.8500910279785259
 42
0.05330500000000005
 10
7.218198982721901
 20
0.7876955551785259
 42
0.06480600000000003
 10
7.287833776321861
 20
0.7443607691785261
 42
0.06260600000000002
 10
7.368240089921869
 20
0.7192954355785258
 42
0.04536100000000013
 10
7.461797202721868
 20
0.7111847663785258
 42
0.01610899999999992
 10
7.520064008321867
 20
0.7133065983785257
 42
0.03159299999999998
 10
7.566053888721854
 20
0.7194024619785258
 42
0.03720599999999996
 10
7.605605407921871
 20
0.7303198927785259
 42
0.03550899999999994
 10
7.643749954721898
 20
0.7471119019785257
 42
0.04828999999999994
 10
7.70197097152186
 20
0.7854385707785259
 42
0.03614700000000014
 10
7.75814064352187
 20
0.8378661235785257
 42
0.03702599999999988
 10
7.802804042721903
 20
0.8938303691785254
 42
0.0886409999999998
 10
7.824515084321888
 20
0.9420936995785257
 42
0.07514199999999986
 10
7.827599793121863
 20
0.9741600619785276
 42
0.00112100000000004
 10
7.81695163392186
 20
1.162952696378535
 42
0.003015000000000032
 10
7.802753973521874
 20
1.382379530378525
 42
0.001984000000000016
 10
7.78389357992188
 20
1.634692939978523
 10
7.7326802667219
 20
2.285091027978526
 10
7.528627645521851
 20
3.143787467578586
 42
-0.00129799999999981
 10
7.431935738321897
 20
3.555437340378521
 42
-0.004783000000000226
 10
7.373976153921888
 20
3.816408654378543
 42
-0.002823999999999796
 10
7.335593134721876
 20
4.002571204378522
 42
-0.1411780000000007
 10
7.338661377921881
 20
4.039533770378526
 42
-0.1236409999999995
 10
7.377791761521905
 20
4.095597859178526
 42
-0.09036800000000023
 10
7.443371474721857
 20
4.134478290378526
 42
-0.09542099999999991
 10
7.515097989921856
 20
4.146396006378525
 42
-0.1608690000000002
 10
7.571945326321895
 20
4.125991027978526
 42
-0.06709799999999991
 10
7.605837156321854
 20
4.091260469178521
 42
-0.001208000000000027
 10
7.760247567921908
 20
3.882464115178515
 42
-0.003104999999999963
 10
7.933067012321885
 20
3.644507921578529
 42
-0.002422000000000041
 10
8.117978635921872
 20
3.383891027978535
 42
0.006275000000000077
 10
8.347562432721872
 20
3.065539738378532
 42
0.006425000000000041
 10
8.583292047521866
 20
2.755575015178529
 42
0.006688999999999921
 10
8.799190979121875
 20
2.48662797117853
 42
0.01813199999999991
 10
8.961546813521863
 20
2.303762411578526
 42
0.03200800000000004
 10
9.106724992721865
 20
2.170002617578526
 42
0.03327300000000016
 10
9.265996839921854
 20
2.057740533978525
 42
0.03310999999999983
 10
9.439509823921867
 20
1.967131222778527
 42
0.03104500000000007
 10
9.627186618721851
 20
1.897987937178527
 42
0.04397900000000009
 10
9.764334718321891
 20
1.869755927578526
 42
0.01868699999999999
 10
9.951548524721886
 20
1.855171620778526
 42
0.01873099999999983
 10
10.14019662592187
 20
1.854620941578526
 42
0.04178300000000004
 10
10.28259720272189
 20
1.871510612778525
 42
0.02149599999999995
 10
10.55282420112189
 20
1.938946789578525
 42
0.02344399999999991
 10
10.80839804552187
 20
2.027752281178525
 42
0.02515900000000007
 10
11.03361990152189
 20
2.131482805978525
 42
0.04096799999999994
 10
11.21141162912187
 20
2.243894326378523
 42
0.03794600000000002
 10
11.39569632992186
 20
2.406031384778526
 42
0.03154899999999992
 10
11.56596698472185
 20
2.604004083178525
 42
0.03248100000000001
 10
11.70341631952186
 20
2.812749416778525
 42
0.053157
 10
11.7879727187219
 20
3.006691027978525
 42
0.02078299999999988
 10
11.8059862983219
 20
3.073499429178525
 42
0.02664199999999998
 10
11.81666714272188
 20
3.136272003578526
 42
0.02166000000000001
 10
11.82192435952186
 20
3.209211413578526
 42
0.008492000000000093
 10
11.82310014112187
 20
3.310091027978526
 42
0.01554399999999995
 10
11.8188053091219
 20
3.427982395178526
 42
0.020061
 10
11.8071706571219
 20
3.535677127978525
 42
0.0132700000000001
 10
11.78322831352187
 20
3.671669240778527
 42
0.003049000000000031
 10
11.7353428883219
 20
3.899791617178533
 42
-0.003396999999999964
 10
11.6970284211219
 20
4.082953983978529
 42
-0.008324999999999963
 10
11.67201217272185
 20
4.218303659578528
 42
-0.008971000000000028
 10
11.65718496552188
 20
4.317638328378528
 42
-0.0659859999999996
 10
11.6572592575219
 20
4.365521277178527
 42
-0.08834599999999988
 10
11.67916796832191
 20
4.434018287978526
 42
-0.02462700000000001
 10
11.73681060632185
 20
4.531270714378526
 42
-0.01188800000000009
 10
11.8459951807219
 20
4.688136730778525
 42
-0.001568000000000076
 10
12.08635966512185
 20
5.01438317717852
 42
0.002657000000000236
 10
12.24224176352186
 20
5.226930096378533
 42
0.01624300000000025
 10
12.31852783952189
 20
5.339643721178526
 42
0.03056299999999983
 10
12.36379887512186
 20
5.422236154778526
 42
0.03359200000000015
 10
12.3970649303219
 20
5.507211983978528
 42
0.01794899999999983
 10
12.43747185712186
 20
5.653164062778526
 42
0.02863399999999987
 10
12.46025093232186
 20
5.780555867978525
 42
0.02615599999999981
 10
12.46950410752186
 20
5.917655161178524
 42
0.01222200000000014
 10
12.46783908112189
 20
6.095699087978526
 42
0.00653800000000005
 10
12.46172621072191
 20
6.226023901978528
 42
0.01818399999999993
 10
12.45291376912189
 20
6.317240144378527
 42
0.02276799999999994
 10
12.4388679071219
 20
6.395222783978527
 42
0.01682500000000003
 10
12.41654780232187
 20
6.480019475978526
 42
0.0720999999999999
 10
12.2090341415219
 20
6.926611893978525
 42
0.07548900000000003
 10
11.88585374072187
 20
7.288016660378527
 42
0.07544199999999987
 10
11.46976989832189
 20
7.537364195578526
 42
0.071879
 10
10.99147765792191
 20
7.657341035978526
 42
0.025125
 10
10.84811887832188
 20
7.664805676378527
 42
0.02972000000000001
 10
10.71263416512187
 20
7.656987960378525
 42
0.02934799999999996
 10
10.57760430592185
 20
7.633010586378524
 42
0.02345100000000003
 10
10.43558019112186
 20
7.591969061578527
 42
0.008779000000000037
 10
10.12336584712187
 20
7.479498583178526
 42
0.005071999999999998
 10
9.751631934321892
 20
7.333833389578526
 42
0.004996000000000055
 10
9.370557909921899
 20
7.175585066378529
 42
0.006669000000000017
 10
9.027997202721849
 20
7.023866731178525
 42
-0.009661000000000081
 10
8.931089471521886
 20
6.981638567978525
 42
-0.004894999999999925
 10
8.807575823521859
 20
6.932042491578525
 42
-0.004860000000000119
 10
8.67903190192186
 20
6.883316320378523
 42
-0.007226000000000128
 10
8.56549890032187
 20
6.843390766378521
 42
-0.003269999999999958
 10
8.424182002721864
 20
6.797003989578525
 42
-0.02127000000000002
 10
8.352022133921878
 20
6.777181260378526
 42
-0.04182400000000012
 10
8.309344036721882
 20
6.771081575578526
 42
-0.2384820000000062
 10
8.288964133921866
 20
6.779935787978525
 42
-0.06715200000000054
 10
8.28236693872185
 20
6.790490778778526
 42
-0.05456799999999985
 10
8.278224167521898
 20
6.803183296378526
 42
-0.05627600000000008
 10
8.277016159921857
 20
6.815992155578527
 42
-0.08722099999999866
 10
8.279134564321851
 20
6.826866077178527
 42
-0.1573130000000011
 10
8.315988021121882
 20
6.872581864378528
 42
-0.003103999999999953
 10
8.571003215921905
 20
7.037497427178527
 42
-0.00802099999999996
 10
8.843452857121861
 20
7.205210747978526
 42
-0.01002500000000002
 10
9.101797202721855
 20
7.351658090378524
 42
0.007578000000000128
 10
9.550168167921868
 20
7.602934593578526
 42
0.008463999999999909
 10
9.974322909521845
 20
7.85885574077852
 42
0.007629000000000094
 10
10.3280196923219
 20
8.088105371178528
 42
0.04824300000000005
 10
10.49378728432185
 20
8.224014303178524
 42
0.04155700000000006
 10
10.6126906791219
 20
8.363877619578526
 42
0.03120699999999983
 10
10.71989656072185
 20
8.535210157978526
 42
0.02999599999999979
 10
10.80928971352188
 20
8.726706397978525
 42
0.03020200000000001
 10
10.87489278032189
 20
8.927091027978527
 42
0.01305499999999991
 10
10.89765366792187
 20
9.024346832778525
 42
0.02434299999999984
 10
10.91015132072187
 20
9.104273544778527
 42
0.02021899999999996
 10
10.9160978295219
 20
9.194244092378526
 42
0.006390999999999931
 10
10.91781900952191
 20
9.328891027978525
 42
0.006391000000000042
 10
10.9160978295219
 20
9.463537963578528
 42
0.02021899999999996
 10
10.91015132072187
 20
9.553508511178524
 42
0.02434300000000006
 10
10.89765366792187
 20
9.633435223178527
 42
0.01305500000000002
 10
10.87489278032189
 20
9.730691027978526
 42
0.05799499999999997
 10
10.72789831752186
 20
10.10759315477853
 42
0.06154599999999993
 10
10.50053014432189
 20
10.43245052117853
 42
0.06181899999999996
 10
10.20192968632188
 20
10.69104276917853
 42
0.05940200000000005
 10
9.845265766321859
 20
10.87292211477853
 10
9.708597202721876
 20
10.92326091437852
 10
9.126397202721876
 20
10.93388419477852
 42
-0.001157000000000044
 10
8.77367692512189
 20
10.94113642237851
 42
-0.01110899999999999
 10
8.62361623632188
 20
10.94790688357852
 42
-0.02631900000000013
 10
8.537632446721886
 20
10.95826871517852
 42
-0.077491
 10
8.481381463521871
 20
10.97736218557852
 42
-0.07279300000000018
 10
8.440192486321905
 20
11.00721943517853
 42
-0.008622999999999987
 10
8.360465050721871
 20
11.08765298917853
 42
-0.008723999999999954
 10
8.258017251921899
 20
11.19844292677853
 42
-0.004056000000000145
 10
8.128781463521875
 20
11.34557331277853
 42
0.009960999999999991
 10
7.86176027152186
 20
11.64242266077852
 42
0.04338899999999996
 10
7.685965522721858
 20
11.80025268557852
 42
0.06535000000000012
 10
7.523283393921872
 20
11.89218470597853
 42
0.04512200000000004
 10
7.320540394721888
 20
11.95349594197853
 42
0.02906100000000006
 10
7.183941596721866
 20
11.97349510237853
 42
0.01537799999999995
 10
7.012946389921865
 20
11.98316941317853
 42
0.01535000000000002
 10
6.843848449921893
 20
11.98233501397852
 42
0.03301799999999995
  0
ENDSEC
  0
SECTION
  2
OBJECTS
  0
DICTIONARY
  5
C
330
0
100
AcDbDictionary
281
    1
  3
ACAD_GROUP
350
D
  0
DICTIONARY
  5
D
330
C
100
AcDbDictionary
281
    1
  0
ENDSEC
  0
EOF
