999
dxfrw 0.6.3
  0
SECTION
  2
HEADER
  9
$ACADVER
  1
AC1021
  9
$DWGCODEPAGE
  3
ANSI_1252
  9
$INSBASE
 10
0
 20
0
 30
0
  9
$EXTMIN
 10
-5.844704717679613
 20
-6.516162185077135
 30
0
  9
$EXTMAX
 10
7.279313591637588
 20
6.609502815181961
 30
0
  9
$LIMMIN
 10
0
 20
0
  9
$LIMMAX
 10
420
 20
297
  9
$ORTHOMODE
 70
    0
  9
$REGENMODE
 70
    1
  9
$FILLMODE
 70
    1
  9
$QTEXTMODE
 70
    0
  9
$MIRRTEXT
 70
    0
  9
$LTSCALE
 40
1
  9
$ATTMODE
 70
    0
  9
$TEXTSIZE
 40
2.5
  9
$TRACEWID
 40
15.68
  9
$TEXTSTYLE
  7
STANDARD
  9
$CLAYER
  8
0
  9
$CELTYPE
  6
BYLAYER
  9
$CECOLOR
 62
  256
  9
$CELTSCALE
 40
1
  9
$DISPSILH
 70
    0
  9
$DIMSCALE
 40
2.5
  9
$DIMASZ
 40
2.5
  9
$DIMEXO
 40
0.625
  9
$DIMDLI
 40
3.75
  9
$DIMRND
 40
0
  9
$DIMDLE
 40
0
  9
$DIMEXE
 40
1.25
  9
$DIMTP
 40
0
  9
$DIMTM
 40
0
  9
$DIMTXT
 40
2.5
  9
$DIMCEN
 40
2.5
  9
$DIMTSZ
 40
0
  9
$DIMTOL
 70
    0
  9
$DIMLIM
 70
    0
  9
$DIMTIH
 70
    0
  9
$DIMTOH
 70
    0
  9
$DIMSE1
 70
    0
  9
$DIMSE2
 70
    0
  9
$DIMTAD
 70
    1
  9
$DIMZIN
 70
    8
  9
$DIMBLK
  1

  9
$DIMASO
 70
    1
  9
$DIMSHO
 70
    1
  9
$DIMPOST
  1

  9
$DIMAPOST
  1

  9
$DIMALT
 70
    0
  9
$DIMALTD
 70
    3
  9
$DIMALTF
 40
0.03937
  9
$DIMLFAC
 40
1
  9
$DIMTOFL
 70
    1
  9
$DIMTVP
 40
0
  9
$DIMTIX
 70
    0
  9
$DIMSOXD
 70
    0
  9
$DIMSAH
 70
    0
  9
$DIMBLK1
  1

  9
$DIMBLK2
  1

  9
$DIMSTYLE
  2
STANDARD
  9
$DIMCLRD
 70
    0
  9
$DIMCLRE
 70
    0
  9
$DIMCLRT
 70
    0
  9
$DIMTFAC
 40
1
  9
$DIMGAP
 40
0.625
  9
$DIMJUST
 70
    0
  9
$DIMSD1
 70
    0
  9
$DIMSD2
 70
    0
  9
$DIMTOLJ
 70
    0
  9
$DIMTZIN
 70
    8
  9
$DIMALTZ
 70
    0
  9
$DIMALTTZ
 70
    0
  9
$DIMUPT
 70
    0
  9
$DIMDEC
 70
    2
  9
$DIMTDEC
 70
    2
  9
$DIMALTU
 70
    2
  9
$DIMALTTD
 70
    3
  9
$DIMTXSTY
  7
STANDARD
  9
$DIMAUNIT
 70
    0
  9
$DIMADEC
 70
    0
  9
$DIMALTRND
 40
0
  9
$DIMAZIN
 70
    0
  9
$DIMDSEP
 70
   44
  9
$DIMATFIT
 70
    3
  9
$DIMFRAC
 70
    0
  9
$DIMLDRBLK
  1
STANDARD
  9
$DIMLUNIT
 70
    2
  9
$DIMLWD
 70
   -2
  9
$DIMLWE
 70
   -2
  9
$DIMTMOVE
 70
    0
  9
$DIMFXL
 40
1
  9
$DIMFXLON
 70
    0
  9
$DIMJOGANG
 40
0.7854
  9
$DIMTFILL
 70
    0
  9
$DIMTFILLCLR
 70
    0
  9
$DIMARCSYM
 70
    0
  9
$DIMLTYPE
  6

  9
$DIMLTEX1
  6

  9
$DIMLTEX2
  6

  9
$LUNITS
 70
    2
  9
$LUPREC
 70
    4
  9
$SKETCHINC
 40
1
  9
$FILLETRAD
 40
0
  9
$AUNITS
 70
    0
  9
$AUPREC
 70
    2
  9
$MENU
  1
.
  9
$ELEVATION
 40
0
  9
$PELEVATION
 40
0
  9
$THICKNESS
 40
0
  9
$LIMCHECK
 70
    0
  9
$CHAMFERA
 40
0
  9
$CHAMFERB
 40
0
  9
$CHAMFERC
 40
0
  9
$CHAMFERD
 40
0
  9
$SKPOLY
 70
    0
  9
$USRTIMER
 70
    1
  9
$ANGBASE
 50
0
  9
$ANGDIR
 70
    0
  9
$PDMODE
 70
   34
  9
$PDSIZE
 40
0
  9
$PLINEWID
 40
0
  9
$SPLFRAME
 70
    0
  9
$SPLINETYPE
 70
    2
  9
$SPLINESEGS
 70
    8
  9
$HANDSEED
  5
20000
  9
$SURFTAB1
 70
    6
  9
$SURFTAB2
 70
    6
  9
$SURFTYPE
 70
    6
  9
$SURFU
 70
    6
  9
$SURFV
 70
    6
  9
$UCSBASE
  2

  9
$UCSNAME
  2

  9
$UCSORG
 10
0
 20
0
 30
0
  9
$UCSXDIR
 10
1
 20
0
 30
0
  9
$UCSYDIR
 10
0
 20
1
 30
0
  9
$UCSORTHOREF
  2

  9
$UCSORTHOVIEW
 70
    0
  9
$UCSORGTOP
 10
0
 20
0
 30
0
  9
$UCSORGBOTTOM
 10
0
 20
0
 30
0
  9
$UCSORGLEFT
 10
0
 20
0
 30
0
  9
$UCSORGRIGHT
 10
0
 20
0
 30
0
  9
$UCSORGFRONT
 10
0
 20
0
 30
0
  9
$UCSORGBACK
 10
0
 20
0
 30
0
  9
$PUCSBASE
  2

  9
$PUCSNAME
  2

  9
$PUCSORG
 10
0
 20
0
 30
0
  9
$PUCSXDIR
 10
1
 20
0
 30
0
  9
$PUCSYDIR
 10
0
 20
1
 30
0
  9
$PUCSORTHOREF
  2

  9
$PUCSORTHOVIEW
 70
    0
  9
$PUCSORGTOP
 10
0
 20
0
 30
0
  9
$PUCSORGBOTTOM
 10
0
 20
0
 30
0
  9
$PUCSORGLEFT
 10
0
 20
0
 30
0
  9
$PUCSORGRIGHT
 10
0
 20
0
 30
0
  9
$PUCSORGFRONT
 10
0
 20
0
 30
0
  9
$PUCSORGBACK
 10
0
 20
0
 30
0
  9
$USERI1
 70
    0
  9
$USERI2
 70
    0
  9
$USERI3
 70
    0
  9
$USERI4
 70
    0
  9
$USERI5
 70
    0
  9
$USERR1
 40
0
  9
$USERR2
 40
0
  9
$USERR3
 40
0
  9
$USERR4
 40
0
  9
$USERR5
 40
0
  9
$WORLDVIEW
 70
    1
  9
$SHADEDGE
 70
    3
  9
$SHADEDIF
 70
   70
  9
$TILEMODE
 70
    1
  9
$MAXACTVP
 70
   64
  9
$PINSBASE
 10
0
 20
0
 30
0
  9
$PLIMCHECK
 70
    0
  9
$PEXTMIN
 10
0
 20
0
 30
0
  9
$PEXTMAX
 10
0
 20
0
 30
0
  9
$SNAPSTYLE
 70
    0
  9
$PLIMMIN
 10
0
 20
0
  9
$PLIMMAX
 10
210
 20
297
  9
$UNITMODE
 70
    0
  9
$VISRETAIN
 70
    1
  9
$PLINEGEN
 70
    0
  9
$PSLTSCALE
 70
    1
  9
$TREEDEPTH
 70
 3020
  9
$CMLSTYLE
  2
Standard
  9
$CMLJUST
 70
    0
  9
$CMLSCALE
 40
20
  9
$PROXYGRAPHICS
 70
    1
  9
$MEASUREMENT
 70
    1
  9
$CELWEIGHT
370
   -1
  9
$ENDCAPS
280
    0
  9
$JOINSTYLE
280
    0
  9
$LWDISPLAY
290
    0
  9
$INSUNITS
 70
    4
  9
$HYPERLINKBASE
  1

  9
$STYLESHEET
  1

  9
$XEDIT
290
    1
  9
$CEPSNTYPE
380
    0
  9
$PSTYLEMODE
290
    1
  9
$EXTNAMES
290
    1
  9
$PSVPSCALE
 40
1
  9
$OLESTARTUP
290
    0
  9
$SORTENTS
280
  127
  9
$INDEXCTL
280
    0
  9
$HIDETEXT
280
    1
  9
$XCLIPFRAME
290
    0
  9
$HALOGAP
280
    0
  9
$OBSCOLOR
 70
  257
  9
$OBSLTYPE
280
    0
  9
$INTERSECTIONDISPLAY
280
    0
  9
$INTERSECTIONCOLOR
 70
  257
  9
$DIMASSOC
280
    1
  9
$PROJECTNAME
  1

  9
$CAMERADISPLAY
290
    0
  9
$LENSLENGTH
 40
50
  9
$CAMERAHEIGHT
 40
0
  9
$STEPSPERSEC
 40
2
  9
$STEPSIZE
 40
50
  9
$3DDWFPREC
 40
2
  9
$PSOLWIDTH
 40
5
  9
$PSOLHEIGHT
 40
80
  9
$LOFTANG1
 40
1.570796326794897
  9
$LOFTANG2
 40
1.570796326794897
  9
$LOFTMAG1
 40
0
  9
$LOFTMAG2
 40
0
  9
$LOFTPARAM
 70
    7
  9
$LOFTNORMALS
280
    1
  9
$LATITUDE
 40
1
  9
$LONGITUDE
 40
1
  9
$NORTHDIRECTION
 40
0
  9
$TIMEZONE
 70
-8000
  9
$LIGHTGLYPHDISPLAY
280
    1
  9
$TILEMODELIGHTSYNCH
280
    1
  9
$SOLIDHIST
280
    1
  9
$SHOWHIST
280
    1
  9
$DWFFRAME
280
    2
  9
$DGNFRAME
280
    0
  9
$REALWORLDSCALE
290
    1
  9
$INTERFERECOLOR
 62
    1
  9
$CSHADOW
280
    0
  9
$SHADOWPLANELOCATION
 40
0
  0
ENDSEC
  0
SECTION
  2
CLASSES
  0
ENDSEC
  0
SECTION
  2
TABLES
  0
TABLE
  2
VPORT
  5
8
330
0
100
AcDbSymbolTable
 70
    1
  0
VPORT
  5
31
330
2
100
AcDbSymbolTableRecord
100
AcDbViewportTableRecord
  2
*ACTIVE
 70
    0
 10
0
 20
0
 11
1
 21
1
 12
0.651828
 22
-0.16
 13
0
 23
0
 14
10
 24
10
 15
10
 25
10
 16
0
 26
0
 36
1
 17
0
 27
0
 37
0
 40
5.13732
 41
2.4426877
 42
50
 43
0
 44
0
 50
0
 51
0
 71
    0
 72
  100
 73
    1
 74
    3
 75
    0
 76
    1
 77
    0
 78
    0
281
    0
 65
    1
110
0
120
0
130
0
111
1
121
0
131
0
112
0
122
1
132
0
 79
    0
146
0
348
10020
 60
    7
 61
    5
292
1
282
    1
141
0
142
0
 63
  250
421
3358443
  0
ENDTAB
  0
TABLE
  2
LTYPE
  5
5
330
0
100
AcDbSymbolTable
 70
    4
  0
LTYPE
  5
14
330
5
100
AcDbSymbolTableRecord
100
AcDbLinetypeTableRecord
  2
ByBlock
 70
    0
  3

 72
   65
 73
    0
 40
0
  0
LTYPE
  5
15
330
5
100
AcDbSymbolTableRecord
100
AcDbLinetypeTableRecord
  2
ByLayer
 70
    0
  3

 72
   65
 73
    0
 40
0
  0
LTYPE
  5
16
330
5
100
AcDbSymbolTableRecord
100
AcDbLinetypeTableRecord
  2
Continuous
 70
    0
  3
Solid line
 72
   65
 73
    0
 40
0
  0
LTYPE
  5
32
330
5
100
AcDbSymbolTableRecord
100
AcDbLinetypeTableRecord
  2
DOT
 70
    0
  3
Dot . . . . . . . . . . . . . . . . . . . . . .
 72
   65
 73
    2
 40
6.35
 49
0
 74
    0
 49
-6.35
 74
    0
  0
LTYPE
  5
33
330
5
100
AcDbSymbolTableRecord
100
AcDbLinetypeTableRecord
  2
DOTTINY
 70
    0
  3
Dot (.15x) .....................................
 72
   65
 73
    2
 40
0.9525
 49
0
 74
    0
 49
-0.9525
 74
    0
  0
LTYPE
  5
34
330
5
100
AcDbSymbolTableRecord
100
AcDbLinetypeTableRecord
  2
DOT2
 70
    0
  3
Dot (.5x) .....................................
 72
   65
 73
    2
 40
3.175
 49
0
 74
    0
 49
-3.175
 74
    0
  0
LTYPE
  5
35
330
5
100
AcDbSymbolTableRecord
100
AcDbLinetypeTableRecord
  2
DOTX2
 70
    0
  3
Dot (2x) .  .  .  .  .  .  .  .  .  .  .  .  .
 72
   65
 73
    2
 40
12.7
 49
0
 74
    0
 49
-12.7
 74
    0
  0
LTYPE
  5
36
330
5
100
AcDbSymbolTableRecord
100
AcDbLinetypeTableRecord
  2
DASHED
 70
    0
  3
Dashed _ _ _ _ _ _ _ _ _ _ _ _ _ _ _ _ _
 72
   65
 73
    2
 40
19.05
 49
12.7
 74
    0
 49
-6.35
 74
    0
  0
LTYPE
  5
37
330
5
100
AcDbSymbolTableRecord
100
AcDbLinetypeTableRecord
  2
DASHEDTINY
 70
    0
  3
Dashed (.15x) _ _ _ _ _ _ _ _ _ _ _ _ _ _ _ _ _
 72
   65
 73
    2
 40
2.8575
 49
1.905
 74
    0
 49
-0.9525
 74
    0
  0
LTYPE
  5
38
330
5
100
AcDbSymbolTableRecord
100
AcDbLinetypeTableRecord
  2
DASHED2
 70
    0
  3
Dashed (.5x) _ _ _ _ _ _ _ _ _ _ _ _ _ _ _ _ _
 72
   65
 73
    2
 40
9.524999999999999
 49
6.35
 74
    0
 49
-3.175
 74
    0
  0
LTYPE
  5
39
330
5
100
AcDbSymbolTableRecord
100
AcDbLinetypeTableRecord
  2
DASHEDX2
 70
    0
  3
Dashed (2x) ____  ____  ____  ____  ____  ___
 72
   65
 73
    2
 40
38.09999999999999
 49
25.4
 74
    0
 49
-12.7
 74
    0
  0
LTYPE
  5
3A
330
5
100
AcDbSymbolTableRecord
100
AcDbLinetypeTableRecord
  2
DASHDOT
 70
    0
  3
Dash dot __ . __ . __ . __ . __ . __ . __ . __
 72
   65
 73
    4
 40
25.4
 49
12.7
 74
    0
 49
-6.35
 74
    0
 49
0
 74
    0
 49
-6.35
 74
    0
  0
LTYPE
  5
3B
330
5
100
AcDbSymbolTableRecord
100
AcDbLinetypeTableRecord
  2
DASHDOTTINY
 70
    0
  3
Dash dot (.15x) _._._._._._._._._._._._._._._.
 72
   65
 73
    4
 40
3.81
 49
1.905
 74
    0
 49
-0.9525
 74
    0
 49
0
 74
    0
 49
-0.9525
 74
    0
  0
LTYPE
  5
3C
330
5
100
AcDbSymbolTableRecord
100
AcDbLinetypeTableRecord
  2
DASHDOT2
 70
    0
  3
Dash dot (.5x) _._._._._._._._._._._._._._._.
 72
   65
 73
    4
 40
12.7
 49
6.35
 74
    0
 49
-3.175
 74
    0
 49
0
 74
    0
 49
-3.175
 74
    0
  0
LTYPE
  5
3D
330
5
100
AcDbSymbolTableRecord
100
AcDbLinetypeTableRecord
  2
DASHDOTX2
 70
    0
  3
Dash dot (2x) ____  .  ____  .  ____  .  ___
 72
   65
 73
    4
 40
50.8
 49
25.4
 74
    0
 49
-12.7
 74
    0
 49
0
 74
    0
 49
-12.7
 74
    0
  0
LTYPE
  5
3E
330
5
100
AcDbSymbolTableRecord
100
AcDbLinetypeTableRecord
  2
DIVIDE
 70
    0
  3
Divide ____ . . ____ . . ____ . . ____ . . ____
 72
   65
 73
    6
 40
31.75
 49
12.7
 74
    0
 49
-6.35
 74
    0
 49
0
 74
    0
 49
-6.35
 74
    0
 49
0
 74
    0
 49
-6.35
 74
    0
  0
LTYPE
  5
3F
330
5
100
AcDbSymbolTableRecord
100
AcDbLinetypeTableRecord
  2
DIVIDETINY
 70
    0
  3
Divide (.15x) __..__..__..__..__..__..__..__.._
 72
   65
 73
    6
 40
4.7625
 49
1.905
 74
    0
 49
-0.9525
 74
    0
 49
0
 74
    0
 49
-0.9525
 74
    0
 49
0
 74
    0
 49
-0.9525
 74
    0
  0
LTYPE
  5
40
330
5
100
AcDbSymbolTableRecord
100
AcDbLinetypeTableRecord
  2
DIVIDE2
 70
    0
  3
Divide (.5x) __..__..__..__..__..__..__..__.._
 72
   65
 73
    6
 40
15.875
 49
6.35
 74
    0
 49
-3.175
 74
    0
 49
0
 74
    0
 49
-3.175
 74
    0
 49
0
 74
    0
 49
-3.175
 74
    0
  0
LTYPE
  5
41
330
5
100
AcDbSymbolTableRecord
100
AcDbLinetypeTableRecord
  2
DIVIDEX2
 70
    0
  3
Divide (2x) ________  .  .  ________  .  .  _
 72
   65
 73
    6
 40
63.5
 49
25.4
 74
    0
 49
-12.7
 74
    0
 49
0
 74
    0
 49
-12.7
 74
    0
 49
0
 74
    0
 49
-12.7
 74
    0
  0
LTYPE
  5
42
330
5
100
AcDbSymbolTableRecord
100
AcDbLinetypeTableRecord
  2
BORDER
 70
    0
  3
Border __ __ . __ __ . __ __ . __ __ . __ __ .
 72
   65
 73
    6
 40
44.45
 49
12.7
 74
    0
 49
-6.35
 74
    0
 49
12.7
 74
    0
 49
-6.35
 74
    0
 49
0
 74
    0
 49
-6.35
 74
    0
  0
LTYPE
  5
43
330
5
100
AcDbSymbolTableRecord
100
AcDbLinetypeTableRecord
  2
BORDERTINY
 70
    0
  3
Border (.15x) __.__.__.__.__.__.__.__.__.__.__.
 72
   65
 73
    6
 40
6.6675
 49
1.905
 74
    0
 49
-0.9525
 74
    0
 49
1.905
 74
    0
 49
-0.9525
 74
    0
 49
0
 74
    0
 49
-0.9525
 74
    0
  0
LTYPE
  5
44
330
5
100
AcDbSymbolTableRecord
100
AcDbLinetypeTableRecord
  2
BORDER2
 70
    0
  3
Border (.5x) __.__.__.__.__.__.__.__.__.__.__.
 72
   65
 73
    6
 40
22.225
 49
6.35
 74
    0
 49
-3.175
 74
    0
 49
6.35
 74
    0
 49
-3.175
 74
    0
 49
0
 74
    0
 49
-3.175
 74
    0
  0
LTYPE
  5
45
330
5
100
AcDbSymbolTableRecord
100
AcDbLinetypeTableRecord
  2
BORDERX2
 70
    0
  3
Border (2x) ____  ____  .  ____  ____  .  ___
 72
   65
 73
    6
 40
88.89999999999999
 49
25.4
 74
    0
 49
-12.7
 74
    0
 49
25.4
 74
    0
 49
-12.7
 74
    0
 49
0
 74
    0
 49
-12.7
 74
    0
  0
LTYPE
  5
46
330
5
100
AcDbSymbolTableRecord
100
AcDbLinetypeTableRecord
  2
CENTER
 70
    0
  3
Center ____ _ ____ _ ____ _ ____ _ ____ _ ____
 72
   65
 73
    4
 40
50.8
 49
31.75
 74
    0
 49
-6.35
 74
    0
 49
6.35
 74
    0
 49
-6.35
 74
    0
  0
LTYPE
  5
47
330
5
100
AcDbSymbolTableRecord
100
AcDbLinetypeTableRecord
  2
CENTERTINY
 70
    0
  3
Center (.15x) ___ _ ___ _ ___ _ ___ _ ___ _ ___
 72
   65
 73
    4
 40
7.619999999999999
 49
4.7625
 74
    0
 49
-0.9525
 74
    0
 49
0.9525
 74
    0
 49
-0.9525
 74
    0
  0
LTYPE
  5
48
330
5
100
AcDbSymbolTableRecord
100
AcDbLinetypeTableRecord
  2
CENTER2
 70
    0
  3
Center (.5x) ___ _ ___ _ ___ _ ___ _ ___ _ ___
 72
   65
 73
    4
 40
28.575
 49
19.05
 74
    0
 49
-3.175
 74
    0
 49
3.175
 74
    0
 49
-3.175
 74
    0
  0
LTYPE
  5
49
330
5
100
AcDbSymbolTableRecord
100
AcDbLinetypeTableRecord
  2
CENTERX2
 70
    0
  3
Center (2x) ________  __  ________  __  _____
 72
   65
 73
    4
 40
101.6
 49
63.5
 74
    0
 49
-12.7
 74
    0
 49
12.7
 74
    0
 49
-12.7
 74
    0
  0
ENDTAB
  0
TABLE
  2
LAYER
  5
2
330
0
100
AcDbSymbolTable
 70
    1
  0
LAYER
  5
10
330
2
100
AcDbSymbolTableRecord
100
AcDbLayerTableRecord
  2
0
 70
    0
 62
    7
  6
CONTINUOUS
370
   -3
390
F
  0
ENDTAB
  0
TABLE
  2
STYLE
  5
3
330
0
100
AcDbSymbolTable
 70
    3
  0
STYLE
  5
4A
330
2
100
AcDbSymbolTableRecord
100
AcDbTextStyleTableRecord
  2
Standard
 70
    0
 40
0
 41
1
 50
0
 71
    0
 42
1
  3
txt
  4

  0
ENDTAB
  0
TABLE
  2
VIEW
  5
6
330
0
100
AcDbSymbolTable
 70
    0
  0
ENDTAB
  0
TABLE
  2
UCS
  5
7
330
0
100
AcDbSymbolTable
 70
    0
  0
ENDTAB
  0
TABLE
  2
APPID
  5
9
330
0
100
AcDbSymbolTable
 70
    1
  0
APPID
  5
12
330
9
100
AcDbSymbolTableRecord
100
AcDbRegAppTableRecord
  2
ACAD
 70
    0
  0
APPID
  5
4B
330
9
100
AcDbSymbolTableRecord
100
AcDbRegAppTableRecord
  2
LibreCad
 70
    0
  0
ENDTAB
  0
TABLE
  2
DIMSTYLE
  5
A
330
0
100
AcDbSymbolTable
 70
    1
100
AcDbDimStyleTable
 71
    1
  0
DIMSTYLE
105
4C
330
A
100
AcDbSymbolTableRecord
100
AcDbDimStyleTableRecord
  2
Standard
 70
    0
 40
1
 41
2.5
 42
0.625
 43
0.38
 44
1.25
 45
0
 46
0
 47
0
 48
0
 49
1
140
2.5
141
0.09
142
2.5
143
25.4
144
1
145
0
146
1
147
0.625
148
0
 71
    0
 72
    0
 73
    0
 74
    1
 75
    0
 76
    0
 77
    0
 78
    1
 79
    0
170
    0
171
    2
172
    0
173
    0
174
    0
175
    0
176
    0
177
    0
178
    0
179
    0
271
    2
272
    4
273
    2
274
    2
275
    0
276
    0
277
    2
278
    0
279
    0
280
    0
281
    0
282
    0
283
    1
284
    0
285
    0
286
    0
288
    0
289
    3
340
standard
341

371
   -2
372
   -2
  0
ENDTAB
  0
TABLE
  2
BLOCK_RECORD
  5
1
330
0
100
AcDbSymbolTable
 70
    2
  0
BLOCK_RECORD
  5
1F
330
1
100
AcDbSymbolTableRecord
100
AcDbBlockTableRecord
  2
*Model_Space
 70
    0
280
    1
281
    0
  0
BLOCK_RECORD
  5
1E
330
1
100
AcDbSymbolTableRecord
100
AcDbBlockTableRecord
  2
*Paper_Space
 70
    0
280
    1
281
    0
  0
ENDTAB
  0
ENDSEC
  0
SECTION
  2
BLOCKS
  0
BLOCK
  5
20
330
1F
100
AcDbEntity
  8
0
100
AcDbBlockBegin
  2
*Model_Space
 70
    0
 10
0
 20
0
 30
0
  3
*Model_Space
  1

  0
ENDBLK
  5
21
330
1F
100
AcDbEntity
  8
0
100
AcDbBlockEnd
  0
BLOCK
  5
1C
330
1B
100
AcDbEntity
  8
0
100
AcDbBlockBegin
  2
*Paper_Space
 70
    0
 10
0
 20
0
 30
0
  3
*Paper_Space
  1

  0
ENDBLK
  5
1D
330
1F
100
AcDbEntity
  8
0
100
AcDbBlockEnd
  0
ENDSEC
  0
SECTION
  2
ENTITIES
  0
LWPOLYLINE
  5
4D
100
AcDbEntity
  8
0
  6
ByLayer
 62
  256
370
   -1
100
AcDbPolyline
 90
  706
 70
    1
 43
0
 10
0.2283019244407431
 20
6.607856083034278
 42
0.01606799999999999
 10
0.131398825440741
 20
6.599429182034385
 42
0.01718100000000009
 10
0.03739556244075046
 20
6.584910667034194
 42
0.01705500000000002
 10
-0.05602529255925462
 20
6.56385292903434
 42
0.01534399999999998
 10
-0.151185004559252
 20
6.535818955034358
 42
0.01206999999999991
 10
-0.2297465295592498
 20
6.507912091034143
 42
0.01482199999999994
 10
-0.3015928785592474
 20
6.477949954034159
 42
0.01621499999999998
 10
-0.3647017095592555
 20
6.44690492803403
 42
0.02522299999999999
 10
-0.4166982525592569
 20
6.415734418034219
 42
0.03688799999999998
 10
-0.5620147275592582
 20
6.301970203034273
 42
0.03748900000000002
 10
-0.6881905305592535
 20
6.168657673034261
 42
0.03768299999999999
 10
-0.7924711875592574
 20
6.018698905034228
 42
0.03813500000000007
 10
-0.8725944885592578
 20
5.855367958034151
 42
0.01625600000000001
 10
-0.8997503655592562
 20
5.78035116403413
 42
0.01648
 10
-0.9218397705592589
 20
5.704066456034354
 42
0.01607000000000003
 10
-0.9393216525592574
 20
5.624684032034168
 42
0.01387699999999998
 10
-0.9526582635592571
 20
5.540367958034096
 42
0.012398
 10
-0.9553555725592555
 20
5.514607468034285
 42
0.01007300000000004
 10
-0.9570032805592485
 20
5.486894776034262
 42
0.007226000000000017
 10
-0.9578789595592521
 20
5.451576286034026
 42
0.00247399999999994
 10
-0.9581548965592499
 20
5.400367450034139
 42
-0.000388999999999845
 10
-0.9582006435592514
 20
5.362823122034172
 42
-0.0006540000000001378
 10
-0.9583047915592711
 20
5.331301615033965
 42
-2.699999999989891e-05
 10
-0.9584372055592776
 20
5.302926397034128
 42
-0.7044350000095119
 10
-0.9586045485592503
 20
5.302867450034285
 42
-0.02264800000000074
 10
-0.9589138995592488
 20
5.303285728034155
 42
-1.899999999983509e-05
 10
-0.9659735115592123
 20
5.313795934034317
 42
-0.000208999999999892
 10
-0.9738471735592635
 20
5.32552963303425
 42
-0.0001280000000001822
 10
-0.9831195915592725
 20
5.339367958034302
 42
0.01845700000000001
 10
-1.022247484559258
 20
5.393372737034099
 42
0.01537799999999995
 10
-1.067620804559254
 20
5.447829154034082
 42
0.01537800000000006
 10
-1.116257827559252
 20
5.499395845034371
 42
0.01845099999999993
 10
-1.16519807555926
 20
5.544712729034075
 42
0.03632900000000004
 10
-1.283399140559254
 20
5.632251121034244
 42
0.03353400000000005
 10
-1.41614684855925
 20
5.704389472034393
 42
0.03251799999999989
 10
-1.561468726559255
 20
5.760040879034307
 42
0.02971600000000004
 10
-1.717198075559252
 20
5.798364625034139
 42
0.008434000000000009
 10
-1.785264613559249
 20
5.809699750034099
 42
0.017862
 10
-1.838385628559251
 20
5.815697392034338
 42
0.01506300000000001
 10
-1.897134418559261
 20
5.818436272034262
 42
0.004453000000000007
 10
-1.987198075559248
 20
5.819116930034227
 42
0.002279000000000082
 10
-2.061725173559253
 20
5.818676782034402
 42
0.008068999999999946
 10
-2.109538732559258
 20
5.81740464403407
 42
0.01063800000000003
 10
-2.150079733559252
 20
5.814805951034316
 42
0.006742999999999961
 10
-2.197198075559256
 20
5.810136694034156
 42
0.01768000000000005
 10
-2.253793279559246
 20
5.8017211390341
 42
0.01065300000000002
 10
-2.320239175559251
 20
5.787955717034322
 42
0.01058999999999999
 10
-2.386994938559254
 20
5.771140129034222
 42
0.01565299999999993
 10
-2.444698075559244
 20
5.753338093034301
 42
0.03751699999999997
 10
-2.610769504559257
 20
5.682035683034258
 42
0.03767200000000002
 10
-2.764078909559259
 20
5.586801415034017
 42
0.037398
 10
-2.902368928559255
 20
5.468913421034188
 42
0.03583399999999999
 10
-3.023705794559248
 20
5.330142046034155
 42
0.02040099999999997
 10
-3.080217256559251
 20
5.248600141034387
 42
0.01869299999999997
 10
-3.13166720855925
 20
5.160356449034282
 42
0.01890800000000011
 10
-3.175765594559251
 20
5.069683396034236
 42
0.02240899999999993
 10
-3.210218026559246
 20
4.980867958034253
 42
0.01707999999999998
 10
-3.249949561559248
 20
4.848244780034349
 42
0.01722299999999995
 10
-3.280411852559254
 20
4.713585919034188
 42
0.01692999999999998
 10
-3.301958110559255
 20
4.574941363034043
 42
0.01529200000000004
 10
-3.314966287559258
 20
4.430367958034196
 42
0.01297299999999999
 10
-3.316785175559246
 20
4.375617391034268
 42
0.003088999999999889
 10
-3.316884274559257
 20
4.284435223034109
 42
0.001687000000000001
 10
-3.316089460559254
 20
4.190537092034276
 42
0.04216500000000027
 10
-3.313614577559249
 20
4.164867958034222
 42
-0.02052399999999979
 10
-3.312977491559252
 20
4.160325916034083
 42
-0.00278499999999996
 10
-3.312087634559247
 20
4.150758583034133
 42
-0.003203999999999991
 10
-3.311168590559248
 20
4.139403940034128
 42
-0.002697999999999986
 10
-3.31033729055926
 20
4.127367958034085
 42
0.02311200000000024
 10
-3.292883347559254
 20
3.969014803034099
 42
0.01614000000000006
 10
-3.259250941559258
 20
3.792493114034471
 42
0.01562699999999998
 10
-3.212558173559259
 20
3.610993312034282
 42
0.01686100000000005
 10
-3.155642101559252
 20
3.437367958034258
 42
0.01155000000000009
 10
-3.110636866559247
 20
3.322557799034087
 42
0.008908999999999927
 10
-3.056470723559257
 20
3.19945185403418
 42
0.008942000000000151
 10
-2.998268779559254
 20
3.079027726034212
 42
0.0120570000000001
 10
-2.941075726559248
 20
2.97236795803434
 42
-0.0009009999999999618
 10
-2.928127450559259
 20
2.949462739034345
 42
-0.0005689999999999309
 10
-2.913096457559262
 20
2.922689833034212
 42
-0.0005709999999999753
 10
-2.898383041559256
 20
2.896342027034109
 42
-0.001051999999999988
 10
-2.886482554559251
 20
2.874867958034258
 42
0.01787199999999994
 10
-2.703139075559249
 20
2.568784123034277
 42
0.01938499999999999
 10
-2.503023415559255
 20
2.285000554034298
 42
0.01894400000000013
 10
-2.27724094655926
 20
2.011901098034116
 42
0.01560200000000001
 10
-2.01679093655926
 20
1.737828409034421
 42
0.01054699999999993
 10
-1.823112073559258
 20
1.554267223034287
 42
0.01048900000000003
 10
-1.621511359559249
 20
1.378689259034047
 42
0.01014099999999991
 10
-1.406246872559251
 20
1.206295729034366
 42
0.008527000000000106
 10
-1.171500019559246
 20
1.032273832034264
 42
-0.001035999999999946
 10
-1.150996225559254
 20
1.017544795034439
 42
-0.001769999999999926
 10
-1.133944216559257
 20
1.005149683034062
 42
-0.0002170000000000737
 10
-1.118958817559246
 20
0.9941655070343245
 42
-0.7247709999979737
 10
-1.119056260559247
 20
0.9938679580341727
 42
-0.07984599999999584
 10
-1.120046194559265
 20
0.9940270570344296
 42
-5.299999999996844e-05
 10
-1.146363088559255
 20
1.002713539034232
 42
-0.0006430000000000482
 10
-1.175679151559251
 20
1.012435246034158
 42
-0.0003930000000002004
 10
-1.210254319559268
 20
1.023980575034386
 42
0.006994000000000074
 10
-1.433320435559252
 20
1.095207598034278
 42
0.007755999999999977
 10
-1.650761707559254
 20
1.157633860034196
 42
0.007984000000000017
 10
-1.863937225559254
 20
1.211634451034399
 42
0.008517000000000073
 10
-2.074198075559252
 20
1.257571396034166
 42
0.005482999999999985
 10
-2.203198618559255
 20
1.281992647034315
 42
0.005162000000000001
 10
-2.335319122559255
 20
1.304102077034315
 42
0.005347000000000035
 10
-2.461838080559246
 20
1.322549701034234
 42
0.007801999999999954
 10
-2.573698075559264
 20
1.335866668034271
 42
-0.0002509999999999678
 10
-2.597301412559247
 20
1.338315784034251
 42
-0.0006120000000001349
 10
-2.614690369559255
 20
1.340150416034305
 42
-0.0007820000000001011
 10
-2.629205941559263
 20
1.341722821034239
 42
-0.0008269999999999637
 10
-2.643448075559248
 20
1.343311996034174
 42
0.00708499999999996
 10
-2.682897397559258
 20
1.34721463603438
 42
0.002390999999999921
 10
-2.740484413559244
 20
1.351811512034203
 42
0.002172000000000012
 10
-2.809687204559253
 20
1.356700546034119
 42
0.00155000000000008
 10
-2.887198075559254
 20
1.361596906034322
 42
0.007849000000000064
 10
-2.937649000559247
 20
1.363832713034355
 42
0.002048000000000003
 10
-3.018738964559247
 20
1.365819268034159
 42
0.002060999999999947
 10
-3.099941920559246
 20
1.36714102603429
 42
0.007623000000000058
 10
-3.15119807555925
 20
1.36698253003425
 42
0.000890000000000029
 10
-3.226757824559257
 20
1.365462106034386
 42
0.001266000000000071
 10
-3.293911687559244
 20
1.363821088034285
 42
0.0003649999999999549
 10
-3.353238538559253
 20
1.362177649034322
 42
0.03955100000000068
 10
-3.361198075559258
 20
1.36131879703413
 42
-0.02740800000000032
 10
-3.365157760559256
 20
1.360794088034311
 42
-0.00204700000000016
 10
-3.376010575559249
 20
1.360002076034164
 42
-0.002830999999999972
 10
-3.388972225559257
 20
1.359183217034399
 42
-0.002146999999999824
 10
-3.403198075559259
 20
1.358426593034267
 42
0.009760000000000012
 10
-3.503406763559255
 20
1.351565365034332
 42
0.006572000000000056
 10
-3.617507146559248
 20
1.33999882303425
 42
0.00637999999999998
 10
-3.736117885559252
 20
1.324862197034292
 42
0.007087999999999992
 10
-3.850198075559248
 20
1.307169331034231
 42
0.01214299999999996
 10
-4.040466763559252
 20
1.27011734503418
 42
0.01244299999999993
 10
-4.227163027559257
 20
1.22413318603418
 42
0.012899
 10
-4.404054133559256
 20
1.170926590034071
 42
0.01620900000000004
 10
-4.564799056559252
 20
1.112178694034185
 42
0.01390400000000002
 10
-4.738597216559256
 20
1.036513678034055
 42
0.01604599999999994
 10
-4.899661477559249
 20
0.9545950600343645
 42
0.01677699999999995
 10
-5.048398291559252
 20
0.8662142800342849
 42
0.018792
 10
-5.185198075559256
 20
0.7711552030341977
 42
0.01141800000000002
 10
-5.254680739559248
 20
0.7163676850344132
 42
0.01169599999999994
 10
-5.321022814559257
 20
0.6588912430343612
 42
0.01121699999999997
 10
-5.387069944559258
 20
0.596148949034216
 42
0.008882000000000039
 10
-5.455691977559255
 20
0.525501535034266
 42
0.005769000000000087
 10
-5.52655123355926
 20
0.4481397430343463
 42
0.01132200000000006
 10
-5.580800965559249
 20
0.3846877930344021
 42
0.01398899999999997
 10
-5.623154332559253
 20
0.3297487900343299
 42
0.02054499999999999
 10
-5.656963477559259
 20
0.2790010210340483
 42
0.02757199999999999
 10
-5.724402133559252
 20
0.1530158320343276
 42
0.02743899999999998
 10
-5.777689552559252
 20
0.020175004034229
 42
0.02736600000000007
 10
-5.816228482559254
 20
-0.1180522189658291
 42
0.02708899999999998
 10
-5.839597762559251
 20
-0.2601320419659601
 42
0.01845300000000001
 10
-5.843215984559251
 20
-0.3103304389657637
 42
0.007181000000000081
 10
-5.844656176559255
 20
-0.3799301029657158
 42
0.007153999999999913
 10
-5.844102241559256
 20
-0.4493335159658614
 42
0.019201
 10
-5.841106822559254
 20
-0.4986320419658909
 42
0.02190800000000015
 10
-5.822293786559257
 20
-0.6293941609657736
 42
0.02122799999999998
 10
-5.791967779559258
 20
-0.7594108759655569
 42
0.02132499999999984
 10
-5.750895460559249
 20
-0.885782167965715
 42
0.02264499999999989
 10
-5.699916982559259
 20
-1.005632041965725
 42
0.02865700000000015
 10
-5.66448763055925
 20
-1.069759282965776
 42
0.02010599999999994
 10
-5.61774375155926
 20
-1.137755131965775
 42
0.01882299999999986
 10
-5.561859751559254
 20
-1.206847387965979
 42
0.01678100000000004
 10
-5.498832448559256
 20
-1.274325973965631
 42
0.04013699999999989
 10
-5.342858155559256
 20
-1.407228901965652
 42
0.04356800000000009
 10
-5.171701894559249
 20
-1.50945087796589
 42
0.04306500000000008
 10
-4.98360704855925
 20
-1.581376381965754
 42
0.03758600000000011
 10
-4.777198075559255
 20
-1.624082008965786
 42
0.01240299999999977
 10
-4.751453386559248
 20
-1.626771160965689
 42
0.01000799999999983
 10
-4.723694008559249
 20
-1.628418019965636
 42
0.007194000000000049
 10
-4.68833225555926
 20
-1.629297091965952
 42
0.002480999999999986
 10
-4.637197672559253
 20
-1.629578641965679
 42
-0.0003549999999999917
 10
-4.59965337755925
 20
-1.629625723965717
 42
-0.0005960000000000544
 10
-4.568131879559274
 20
-1.629725188965665
 42
-2.399999999996907e-05
 10
-4.539747631559237
 20
-1.629849955965653
 42
-0.7214199999996048
 10
-4.539697672559257
 20
-1.630002532965761
 42
-0.0110880000000001
 10
-4.540108228559305
 20
-1.630292632965791
 42
-9.999999999954756e-06
 10
-4.550185456559277
 20
-1.637082991965769
 42
-0.0001030000000000534
 10
-4.561434868559303
 20
-1.644659527965757
 42
-6.300000000000651e-05
 10
-4.574698075559283
 20
-1.653585961965689
 42
0.01049999999999996
 10
-4.616485783559256
 20
-1.682995621965972
 42
0.01504299999999996
 10
-4.652151040559247
 20
-1.710924886965756
 42
0.01432899999999997
 10
-4.687330606559257
 20
-1.741972456965811
 42
0.008362
 10
-4.727779222559249
 20
-1.781074048965763
 42
0.005815000000000051
 10
-4.763960839559246
 20
-1.81809174796598
 42
0.01307200000000006
 10
-4.790327347559256
 20
-1.847188954965929
 42
0.01418300000000002
 10
-4.813805125559256
 20
-1.876121263965786
 42
0.008169000000000025
 10
-4.840496764559248
 20
-1.912196620965631
 42
0.03351000000000001
 10
-4.912279846559258
 20
-2.028320686965742
 42
0.03037499999999998
 10
-4.97057057555925
 20
-2.156795422965786
 42
0.02930999999999996
 10
-5.014650964559252
 20
-2.296031911965599
 42
0.02644500000000002
 10
-5.043958066559256
 20
-2.44431931396565
 42
0.008666999999999951
 10
-5.05158264155925
 20
-2.505041836965745
 42
0.01391500000000004
 10
-5.055740548559257
 20
-2.557069453965767
 42
0.01226100000000004
 10
-5.057291992559257
 20
-2.613680692965715
 42
0.005102999999999981
 10
-5.05673182055925
 20
-2.690132041965796
 42
0.003891999999999874
 10
-5.054737300559253
 20
-2.768900032965746
 42
0.01164500000000008
 10
-5.051700946559251
 20
-2.822690554965618
 42
0.01394300000000017
 10
-5.046509323559249
 20
-2.870771704965762
 42
0.007918999999999959
 10
-5.037688810559246
 20
-2.928632041965727
 42
0.06215600000000017
 10
-4.952842963559249
 20
-3.211643725965757
 42
0.06184200000000022
 10
-4.800944629559254
 20
-3.465653719965701
 42
0.06097499999999977
 10
-4.589299531559249
 20
-3.677774992965794
 42
0.05748999999999996
 10
-4.328698075559259
 20
-3.837504127965929
 42
0.02628800000000012
 10
-4.223924155559246
 20
-3.879650395965598
 42
0.01677999999999992
 10
-4.098311551559249
 20
-3.918002731965714
 42
0.01620900000000004
 10
-3.963919219559258
 20
-3.949520956965614
 42
0.01792899999999997
 10
-3.832198075559247
 20
-3.971060872965779
 42
-0.0003619999999999304
 10
-3.821201131559249
 20
-3.972464623965777
 42
-0.000390999999999902
 10
-3.810485575559255
 20
-3.973848862965895
 42
-0.0003679999999999992
 10
-3.801295531559247
 20
-3.975050224965969
 42
-0.001887000000000033
 10
-3.79619807555926
 20
-3.975739990965565
 42
0.01278199999999997
 10
-3.747686944559248
 20
-3.981231019965833
 42
0.009959000000000055
 10
-3.694740067559251
 20
-3.984796066965771
 42
0.007951999999999973
 10
-3.63106847555926
 20
-3.986796625965724
 42
0.003734999999999889
 10
-3.548698075559258
 20
-3.987458659965739
 42
0.002529000000000168
 10
-3.470920255559249
 20
-3.987109345965735
 42
0.00749999999999983
 10
-3.417572389559254
 20
-3.985799437965795
 42
0.00981800000000012
 10
-3.372886303559255
 20
-3.983151679965829
 42
0.008013999999999933
 10
-3.325198075559257
 20
-3.978615007965743
 42
-0.0003389999999999937
 10
-3.31867738055925
 20
-3.977893528965694
 42
-8.200000000007392e-05
 10
-3.307910575559248
 20
-3.976711426965664
 42
-8.500000000009597e-05
 10
-3.295563700559242
 20
-3.975360019965763
 42
-8.399999999992128e-05
 10
-3.283198075559255
 20
-3.974010781965887
 42
0.02141200000000002
 10
-3.103629919559253
 20
-3.946627333965978
 42
0.01728800000000007
 10
-2.913601957559251
 20
-3.902390086965795
 42
0.01682500000000003
 10
-2.721244252559259
 20
-3.843531097965695
 42
0.01717800000000009
 10
-2.534625844559258
 20
-3.772232776965836
 42
0.008828000000000027
 10
-2.449300288559257
 20
-3.734440675965686
 42
0.006642000000000006
 10
-2.356791529559245
 20
-3.689994736965843
 42
0.006540999999999898
 10
-2.263611514559258
 20
-3.642162982965772
 42
0.007573000000000034
 10
-2.176198075559256
 20
-3.594127204965787
 42
-0.000997000000000066
 10
-2.148357442559245
 20
-3.578347951965895
 42
-0.0006849999999999834
 10
-2.116723075559249
 20
-3.560558908965902
 42
-0.000691000000000064
 10
-2.086220701559256
 20
-3.543516718965691
 42
-0.001406000000000051
 10
-2.062198075559251
 20
-3.530226712965657
 42
0.01405399999999999
 10
-1.893143503559258
 20
-3.431035150965897
 42
0.01115499999999988
 10
-1.716152374559257
 20
-3.31481512996578
 42
0.01091099999999997
 10
-1.539920116559258
 20
-3.187622824965899
 42
0.01160900000000011
 10
-1.373078557559253
 20
-3.055387363965735
 42
0.005040999999999918
 10
-1.276439974559252
 20
-2.973409852965858
 42
0.007120999999999989
 10
-1.19215860755925
 20
-2.898314398965738
 42
0.006742000000000217
 10
-1.10666878055926
 20
-2.817781132965763
 42
0.00389600000000009
 10
-1.00591188755925
 20
-2.718736324965846
 42
0.001733000000000133
 10
-0.926744989559253
 20
-2.639142481965735
 42
0.004606000000000107
 10
-0.8709287235592593
 20
-2.581583929965916
 42
0.005225000000000261
 10
-0.8203135395592507
 20
-2.527292668965799
 42
0.00287200000000011
 10
-0.7594480755592481
 20
-2.459849518965882
 42
-0.0009079999999999434
 10
-0.7407528405592525
 20
-2.438969569965764
 42
-0.001538999999999998
 10
-0.7250183895592524
 20
-2.421568498965769
 42
-0.0001429999999999641
 10
-0.7109876625592473
 20
-2.406156187965678
 42
-0.6851640000001511
 10
-0.7106980755592498
 20
-2.406268306965728
 42
-0.1279080000000025
 10
-0.7115831385598592
 20
-2.409671473965716
 42
-1.700000000001709e-05
 10
-0.8167302885596111
 20
-2.5981347559661
 42
-0.0005270000000000231
 10
-0.910801669559262
 20
-2.766315310965808
 42
-0.00153600000000009
 10
-0.9762524925592682
 20
-2.882203174965696
 42
-0.01082200000000022
 10
-1.029599101559256
 20
-2.971435072965903
 42
-0.006121999999999901
 10
-1.097874121559257
 20
-3.077319115965736
 42
-0.005508999999999872
 10
-1.178124115559256
 20
-3.195638302965961
 42
-0.004231000000000037
 10
-1.268271976559262
 20
-3.323132041965835
 42
-0.01920200000000001
 10
-1.580202604559261
 20
-3.723130015965751
 42
-0.02481599999999985
 10
-1.897633762559252
 20
-4.063635688965803
 42
-0.02715700000000015
 10
-2.218985386559253
 20
-4.343517283965809
 42
-0.03537400000000002
 10
-2.542725097559255
 20
-4.560989209965726
 42
-0.04209000000000022
 10
-2.897657626559251
 20
-4.72664015596564
 42
-0.05087600000000019
 10
-3.253655146559253
 20
-4.817870902965922
 42
-0.05267500000000008
 10
-3.610086367559247
 20
-4.833546898965949
 42
-0.05086099999999998
 10
-3.966312271559246
 20
-4.774986190965762
 42
-0.01849400000000001
 10
-4.09950609455926
 20
-4.733557789965914
 42
-0.01686499999999994
 10
-4.233502594559255
 20
-4.681236256965747
 42
-0.01638900000000009
 10
-4.36750047455925
 20
-4.618354900965585
 42
-0.01515599999999998
 10
-4.500698347559251
 20
-4.545268771965937
 42
0.001071999999999907
 10
-4.513219612559254
 20
-4.537932124965835
 42
0.001736000000000107
 10
-4.523901634559252
 20
-4.53175345696576
 42
0.0002390000000000466
 10
-4.533414844559246
 20
-4.526300884965792
 42
0.1307299999999981
 10
-4.534049572559255
 20
-4.526132041965582
 42
0.4042200000002171
 10
-4.534402147559248
 20
-4.526472745965918
 42
0.0003939999999999734
 10
-4.534808659559246
 20
-4.538619967965758
 42
0.003125999999999999
 10
-4.535171209559252
 20
-4.55234293396569
 42
0.001875000000000021
 10
-4.535438740559258
 20
-4.568644132965744
 42
-0.0021329999999998
 10
-4.535716705559253
 20
-4.585064821965886
 42
-0.003346000000000122
 10
-4.536110374559257
 20
-4.599178807965643
 42
-0.0009209999999998883
 10
-4.536557623559247
 20
-4.611454441965805
 42
-0.1207290000000103
 10
-4.536969361559244
 20
-4.612894132965664
 42
0.121397999999993
 10
-4.537393621559247
 20
-4.614385042965921
 42
0.0002400000000000372
 10
-4.538267380559262
 20
-4.639237156965635
 42
0.001682999999999928
 10
-4.539143737559257
 20
-4.667228149965638
 42
0.001041000000000042
 10
-4.53999455255925
 20
-4.70013204196556
 42
-0.0008479999999998661
 10
-4.540859323559246
 20
-4.734080812965601
 42
-0.001082999999999716
 10
-4.541777104559259
 20
-4.765363291965684
 42
-0.000837999999999992
 10
-4.542647410559255
 20
-4.79158949896572
 42
-0.009149999999999946
 10
-4.543208260559254
 20
-4.802132041965649
 42
0.008043000000000024
 10
-4.543761034559253
 20
-4.812106306965632
 42
0.001072000000000018
 10
-4.544543629559257
 20
-4.833172666965936
 42
0.001241000000000021
 10
-4.545355903559255
 20
-4.858152814965877
 42
0.001043000000000029
 10
-4.546095877559253
 20
-4.884632041965858
 42
-0.0006490000000001367
 10
-4.546850836559258
 20
-4.91243055196577
 42
-0.0005750000000000173
 10
-4.547707939559245
 20
-4.941378916965675
 42
-0.0005769999999999361
 10
-4.548539938559259
 20
-4.967449543965756
 42
-0.001763000000000079
 10
-4.549187107559248
 20
-4.985132041965869
 42
0.0008419999999999903
 10
-4.549828999559253
 20
-5.001828106965775
 42
0.0003649999999999549
 10
-4.550629219559255
 20
-5.024038291965724
 42
0.0003610000000000036
 10
-4.551445825559256
 20
-5.047656379965645
 42
0.0004799999999999635
 10
-4.552152190559255
 20
-5.069132041965702
 42
-2.999999999987066e-05
 10
-4.552863061559279
 20
-5.091353623966086
 42
-1.899999999983509e-05
 10
-4.553695951559234
 20
-5.117310166966206
 42
-1.899999999983509e-05
 10
-4.554517066559214
 20
-5.142839641965963
 42
-3.500000000008806e-05
 10
-4.555188052559217
 20
-5.163632041965855
 42
5.199999999995891e-05
 10
-4.555858330559232
 20
-5.184424441965746
 42
2.800000000001787e-05
 10
-4.556677237559228
 20
-5.209953916965503
 42
2.800000000001787e-05
 10
-4.557506923559274
 20
-5.235910462965819
 42
4.500000000002765e-05
 10
-4.558213990559253
 20
-5.25813204196578
 42
-0.0002250000000000539
 10
-4.558918909559253
 20
-5.280036697965841
 42
-0.0001530000000002169
 10
-4.559740783559263
 20
-5.304988291965799
 42
-0.0001540000000001603
 10
-4.560549406559261
 20
-5.329088152965767
 42
-0.0003080000000000246
 10
-4.561206016559254
 20
-5.348132041965926
 42
0.0004089999999999874
 10
-4.561862182559253
 20
-5.36727457096589
 42
0.0001990000000000278
 10
-4.562670253559247
 20
-5.391716416965608
 42
0.0001970000000000544
 10
-4.563490957559253
 20
-5.41715078596593
 42
0.0002849999999999713
 10
-4.564194646559258
 20
-5.439632041965694
 42
-0.0002890000000000534
 10
-4.564898503559249
 20
-5.462113297965686
 42
-0.0002000000000001109
 10
-4.565719720559258
 20
-5.487547666965781
 42
-0.0002020000000001469
 10
-4.566528544559247
 20
-5.511989512965727
 42
-0.0004139999999999246
 10
-4.567185604559256
 20
-5.531132041965691
 42
0.0002530000000000245
 10
-4.567838500559262
 20
-5.549976442965715
 42
0.0001330000000000005
 10
-4.568631742559262
 20
-5.573394541965797
 42
0.0001330000000000005
 10
-4.569431494559254
 20
-5.597381566965794
 42
0.0002040000000000224
 10
-4.570109353558422
 20
-5.618132041964998
 42
-1.000000000140111e-06
 10
-4.570795561558825
 20
-5.639403208967849
 10
-4.571623720559259
 20
-5.665072666965841
 10
-4.572456523559325
 20
-5.690884582969773
 42
-9.999999999180667e-07
 10
-4.57315823855906
 20
-5.712632041967879
 42
-0.0002749999999998619
 10
-4.573858195559254
 20
-5.733959782965883
 42
-0.0001830000000000628
 10
-4.574683684559261
 20
-5.758428916965784
 42
-0.0001839999999999021
 10
-4.575502636559264
 20
-5.782187521965795
 42
-0.0003589999999999825
 10
-4.576176232559249
 20
-5.801132041965673
 42
0.0009819999999999653
 10
-4.576849498559255
 20
-5.820756439965578
 42
0.0004230000000000074
 10
-4.577673460559254
 20
-5.84691954196586
 42
0.0004190000000000227
 10
-4.578503641559251
 20
-5.87477136796582
 42
0.0005549999999999475
 10
-4.579210153559245
 20
-5.900132041965605
 42
-0.001484000000000206
 10
-4.579939027559249
 20
-5.924657731965851
 42
-0.00134900000000002
 10
-4.580834938559249
 20
-5.949973495965821
 42
-0.00134900000000002
 10
-4.581758461559247
 20
-5.972613469965552
 42
-0.004352000000000064
 10
-4.582543954559256
 20
-5.987656141965715
 10
-4.584312955559255
 20
-6.016680241965958
 10
-4.572755515559251
 20
-6.019980196965605
 42
0.01943200000000004
 10
-4.547599828559257
 20
-6.02611669096558
 42
0.004661000000000024
 10
-4.50540294455925
 20
-6.034279549965902
 42
0.004997000000000109
 10
-4.459286233559254
 20
-6.04227989896566
 42
0.007023000000000017
 10
-4.417977127559254
 20
-6.048427348965731
 42
0.006926000000000061
 10
-4.343070193559257
 20
-6.057446986965658
 42
0.01140400000000004
 10
-4.279495723559251
 20
-6.062747104965808
 42
0.01025299999999997
 10
-4.211210119559254
 20
-6.065470732965821
 42
0.004431000000000036
 10
-4.120198075559259
 20
-6.066426112965871
 42
0.007576000000000072
 10
-3.980916400559252
 20
-6.0645431929658
 42
0.01409000000000013
 10
-3.868160641559256
 20
-6.058126273965797
 42
0.01445600000000009
 10
-3.757884418559257
 20
-6.045507097965753
 42
0.008474000000000143
 10
-3.626698075559247
 20
-6.024363970965794
 42
0.02581699999999978
 10
-3.370074712559258
 20
-5.964719842965621
 42
0.02316500000000003
 10
-3.11131042355926
 20
-5.877152443965713
 42
0.02279900000000003
 10
-2.857501024559255
 20
-5.764349200965796
 42
0.02297800000000004
 10
-2.615698075559251
 20
-5.629170958965631
 42
0.03865699999999993
 10
-2.192688556559247
 20
-5.318811067965896
 42
0.03328399999999987
 10
-1.799286859559259
 20
-4.93211458996592
 42
0.03113500000000003
 10
-1.43673264155926
 20
-4.469951539965848
 42
0.02525299999999996
 10
-1.106097778559259
 20
-3.933632041965836
 42
0.004239000000000086
 10
-1.044095890559248
 20
-3.818358727965631
 42
0.004992000000000035
 10
-0.9874122735592432
 20
-3.708143062965689
 42
0.004707999999999694
 10
-0.93027759155926
 20
-3.591542728965749
 42
0.003116999999999971
 10
-0.8667694575592573
 20
-3.456632041965747
 42
0.004216999999999812
 10
-0.8419382445592585
 20
-3.401810443965758
 42
0.004262999999999926
 10
-0.8181276045592507
 20
-3.346777342965822
 42
0.00436700000000011
 10
-0.7979847645592595
 20
-3.29792471896593
 42
0.01338200000000017
 10
-0.7855172775592503
 20
-3.264353158965775
 42
-0.01322800000000001
 10
-0.735619240559259
 20
-3.129864358965676
 42
-0.008430999999999959
 10
-0.6708517245592556
 20
-2.976071773965884
 42
-0.006659000000000077
 10
-0.5855293125592591
 20
-2.789426446965706
 42
-0.003168000000000013
 10
-0.4710024225592515
 20
-2.551382041965724
 42
-0.00127100000000011
 10
-0.4581248655592556
 20
-2.525213233965758
 42
-0.002098999999999947
 10
-0.4470975945592524
 20
-2.503180477965714
 42
-0.0001980000000000096
 10
-0.437157205559259
 20
-2.483545162965754
 42
-0.2826249999998953
 10
-0.4364847225592565
 20
-2.483132041965916
 42
-0.4749249999998436
 10
-0.4361292315592489
 20
-2.483568046965672
 42
-0.001570999999999826
 10
-0.4377406545592488
 20
-2.491283602965666
 42
-0.006161999999999918
 10
-0.4397563575592609
 20
-2.500240393965839
 42
-0.00364299999999997
 10
-0.4423714695592476
 20
-2.510882041965658
 42
0.006293999999999996
 10
-0.453719968559255
 20
-2.558142220965635
 42
0.002101000000000022
 10
-0.4691599605592525
 20
-2.627554210965798
 42
0.002129999999999993
 10
-0.4852075365592579
 20
-2.702692195965653
 42
0.002871999999999999
 10
-0.4990483185592605
 20
-2.770827604965859
 42
0.008736999999999967
 10
-0.5364193425592556
 20
-2.979521542965756
 42
0.009405999999999939
 10
-0.5654706315592501
 20
-3.184327255965798
 42
0.009526999999999987
 10
-0.5864893575592585
 20
-3.387584641965702
 42
0.009507000000000017
 10
-0.5997662175592491
 20
-3.591632041965738
 42
0.008889000000000017
 10
-0.6017069955592542
 20
-3.660473851965605
 42
0.001569000000000037
 10
-0.6026464185592455
 20
-3.789712273965677
 42
0.0009840000000000345
 10
-0.6029337825592473
 20
-3.922643347965675
 42
0.02081799999999992
 10
-0.6012965355592566
 20
-3.962132041965958
 42
-0.005882999999999923
 10
-0.6006586815592523
 20
-3.971062654965579
 42
-0.001464999999999946
 10
-0.5998302465592498
 20
-3.985682041965845
 42
-0.00149700000000003
 10
-0.5989813965592528
 20
-4.002416416965787
 42
-0.001504000000000001
 10
-0.5982340545592559
 20
-4.019132041965747
 42
0.02124100000000009
 10
-0.5713328355592462
 20
-4.338069934965631
 42
0.0194339999999999
 10
-0.5170190925592517
 20
-4.663276120965918
 42
0.01987099999999995
 10
-0.4394520345592521
 20
-4.974726217965951
 42
0.02587999999999992
 10
-0.3427040295592572
 20
-5.252132041965694
 42
0.01399499999999995
 10
-0.2688601875592549
 20
-5.419595632965809
 42
0.01557899999999992
 10
-0.1881848655592502
 20
-5.576680810965797
 42
0.01618900000000014
 10
-0.1011063465592481
 20
-5.722617340965769
 42
0.01829099999999998
 10
-0.008051164559261831
 20
-5.856632041965838
 42
0.01162000000000003
 10
0.04634194344075168
 20
-5.925748297965754
 42
0.01188800000000009
 10
0.1034869394407427
 20
-5.991728431965782
 42
0.01131300000000011
 10
0.166305820440741
 20
-6.057800692965827
 42
0.008665000000000145
 10
0.2378129084407452
 20
-6.12723332596596
 42
0.005810999999999951
 10
0.3150297464407434
 20
-6.197984524965648
 42
0.0113559999999998
 10
0.378466282440741
 20
-6.252223513965816
 42
0.01401499999999995
 10
0.4334291264407431
 20
-6.29458684396576
 42
0.02062600000000022
 10
0.4841688614407507
 20
-6.328368061965818
 42
0.02741600000000009
 10
0.610411720440752
 20
-6.395918689965754
 42
0.02746799999999979
 10
0.743210365440746
 20
-6.44920348096565
 42
0.02741800000000015
 10
0.8812872914407426
 20
-6.487690303965735
 42
0.02709000000000003
 10
1.023301924440745
 20
-6.511023421965717
 42
0.0183609999999999
 10
1.073681092440751
 20
-6.514655077965642
 42
0.007184000000000009
 10
1.143394996440748
 20
-6.516110710965847
 42
0.007142000000000031
 10
1.212807145440749
 20
-6.515571037965572
 42
0.01949999999999988
 10
1.261801924440747
 20
-6.51257595796568
 42
0.01082399999999998
 10
1.327896346440753
 20
-6.504492565965791
 42
0.01035299999999987
 10
1.394569498440746
 20
-6.49345574296575
 42
0.0105319999999998
 10
1.459468177440741
 20
-6.479906557965876
 42
0.01242799999999986
 10
1.520224354440743
 20
-6.464280478965918
 42
0.01473000000000015
 10
1.613073022440745
 20
-6.434942374965829
 42
0.01501599999999997
 10
1.703431651440753
 20
-6.400358815965944
 42
0.01592400000000014
 10
1.783397785440741
 20
-6.363935038965735
 42
0.03164600000000001
 10
1.843704604440746
 20
-6.329203036965907
 42
0.04875199999999993
 10
2.036613079440742
 20
-6.172173913965651
 42
0.05087800000000008
 10
2.192401642440743
 20
-5.982829735965595
 42
0.05114600000000024
 10
2.30608916844075
 20
-5.766890881965708
 42
0.05027599999999999
 10
2.374377364440747
 20
-5.531132041965691
 42
0.008091999999999943
 10
2.384072581440748
 20
-5.473010119965863
 42
0.01668199999999988
 10
2.389394758440745
 20
-5.427232267965735
 42
0.01504200000000024
 10
2.39195539644075
 20
-5.378315389965962
 42
0.005418000000000095
 10
2.392748524440748
 20
-5.308631638966006
 42
-0.0004469999999999941
 10
2.392802581440748
 20
-5.271087346965885
 42
-0.0007519999999999867
 10
2.392923595440749
 20
-5.239565845965842
 42
-3.300000000004935e-05
 10
2.393077024440757
 20
-5.211206968965769
 42
-0.678499999997963
 10
2.393269519440751
 20
-5.211131638965696
 42
-0.04115700000000048
 10
2.393609935440765
 20
-5.211561982965748
 42
-5.099999999994235e-05
 10
2.399712487440752
 20
-5.220738172965582
 42
-0.0004599999999999654
 10
2.406534733440751
 20
-5.231019337965961
 42
-0.0002829999999999165
 10
2.414546407440753
 20
-5.24313204196568
 42
0.01271900000000015
 10
2.442634381440741
 20
-5.283385192965795
 42
0.0143009999999998
 10
2.471696122440747
 20
-5.320578787965758
 42
0.01354500000000021
 10
2.504200048440751
 20
-5.357716216965798
 42
0.009466999999999998
 10
2.542735852440743
 20
-5.397858337965943
 42
0.008548000000000047
 10
2.584953133440749
 20
-5.438777239965873
 42
0.0151419999999998
 10
2.621321872440746
 20
-5.470830097965916
 42
0.0159270000000001
 10
2.658260488440746
 20
-5.499514315965541
 42
0.01078099999999983
 10
2.702049511440749
 20
-5.529914863965757
 42
0.02959100000000017
 10
2.815604521440747
 20
-5.595859903965845
 42
0.02882400000000003
 10
2.937132574440739
 20
-5.64858393496587
 42
0.02795600000000014
 10
3.067498360440752
 20
-5.688312679965691
 42
0.0244210000000001
 10
3.207489196440747
 20
-5.715392032965781
 42
0.008666999999999951
 10
3.268211719440757
 20
-5.72301660796569
 42
0.01391500000000015
 10
3.32023933644075
 20
-5.727174514965725
 42
0.01226099999999993
 10
3.376850575440742
 20
-5.728725958965867
 42
0.005102999999999981
 10
3.453301924440752
 20
-5.728165786965917
 42
0.003891999999999874
 10
3.532069915440744
 20
-5.726171266965764
 42
0.01164500000000008
 10
3.585860437440744
 20
-5.723134912965804
 42
0.01394299999999994
 10
3.633941587440745
 20
-5.717943289965604
 42
0.007918999999999959
 10
3.691801924440754
 20
-5.709122776965785
 42
0.03306800000000005
 10
3.845369923440743
 20
-5.672642461965722
 42
0.03329400000000012
 10
3.992427355440754
 20
-5.616296359965588
 42
0.03303500000000005
 10
4.131762685440748
 20
-5.540446156965743
 42
0.03146699999999997
 10
4.262292295440744
 20
-5.445779572965819
 42
0.01619200000000002
 10
4.296716365440744
 20
-5.415418336965729
 42
0.007123999999999998
 10
4.340353438440744
 20
-5.373155791965644
 42
0.007118000000000025
 10
4.382713153440747
 20
-5.329724971965732
 42
0.01643800000000016
 10
4.412966881440752
 20
-5.295632041965916
 42
0.02250100000000023
 10
4.493280898440744
 20
-5.189530717965852
 42
0.02551800000000002
 10
4.560179869440745
 20
-5.080884331965706
 42
0.02584199999999985
 10
4.614960589440756
 20
-4.967254216965955
 42
0.02429300000000004
 10
4.658993779440749
 20
-4.846239289965695
 42
0.01366399999999992
 10
4.68995593944075
 20
-4.73568627796584
 42
0.01401499999999995
 10
4.714544995440747
 20
-4.624534636965734
 42
0.01368599999999987
 10
4.73334779544075
 20
-4.509712456965588
 42
0.01177599999999998
 10
4.746947467440748
 20
-4.388132041965662
 42
0.01882900000000007
 10
4.750935499440743
 20
-4.308740875965839
 42
0.00643099999999984
 10
4.75089809244075
 20
-4.193402788965784
 42
0.006467999999999925
 10
4.747875922440741
 20
-4.077730810965647
 42
0.01795699999999999
 10
4.741784890440755
 20
-3.996632041965938
 42
-0.0003390000000001047
 10
4.741063411440734
 20
-3.990111346965648
 42
-8.199999999985187e-05
 10
4.739881309440747
 20
-3.979344541965645
 42
-8.500000000009597e-05
 10
4.738529902440746
 20
-3.966997666965597
 42
-8.400000000014333e-05
 10
4.737180664440743
 20
-3.954632041965795
 42
0.02141200000000002
 10
4.709797216440748
 20
-3.775063885965608
 42
0.01728799999999996
 10
4.66555996944075
 20
-3.585035923965904
 42
0.01682500000000003
 10
4.606700980440749
 20
-3.392678218965955
 42
0.01717799999999997
 10
4.535402659440749
 20
-3.206059810965769
 42
0.008797000000000024
 10
4.498349179440751
 20
-3.122388262965785
 42
0.006295999999999914
 10
4.454099638440752
 20
-3.030096292965879
 42
0.006290000000000087
 10
4.407465121440751
 20
-2.938798498965696
 42
0.008684000000000072
 10
4.363166686440749
 20
-2.858132041965916
 42
-0.001086999999999831
 10
4.350289978440742
 20
-2.83550553196568
 42
-0.0008540000000000686
 10
4.336424206440739
 20
-2.810919541965575
 42
-0.0008629999999998899
 10
4.323608197440748
 20
-2.788011505965812
 42
-0.002123999999999882
 10
4.31429684244074
 20
-2.771132041965927
 42
0.01658000000000005
 10
4.170646291440747
 20
-2.527643167965778
 42
0.01559899999999998
 10
4.008363679440748
 20
-2.289087325965909
 42
0.01521300000000001
 10
3.827306848440742
 20
-2.055306235965816
 42
0.01398300000000005
 10
3.627370543440748
 20
-1.826132041965764
 42
0.008479999999999948
 10
3.566547658440755
 20
-1.762431256965726
 42
0.002213000000000064
 10
3.466687993440744
 20
-1.662227065965851
 42
0.002233000000000013
 10
3.36574968744074
 20
-1.562725894965922
 42
0.008111999999999972
 10
3.300301924440746
 20
-1.500826945965798
 42
0.007517000000000038
 10
3.136348399440749
 20
-1.355196502965953
 42
0.007989000000000059
 10
2.971341904440749
 20
-1.217542144965762
 42
0.007736000000000004
 10
2.797223515440749
 20
-1.081338508965644
 42
0.006206999999999972
 10
2.605801924440755
 20
-0.9400222429657674
 42
-0.001911999999999835
 10
2.585399953440743
 20
-0.9252296089659353
 42
-0.003554999999999779
 10
2.568986299440752
 20
-0.9130527169656375
 42
-0.001797999999999931
 10
2.556042217440748
 20
-0.9032332579658373
 42
-0.8526919999994753
 10
2.556301924440746
 20
-0.9027508909657058
 42
0.003723999999999998
 10
2.559816625440604
 20
-0.9039459709658217
 42
2.100000000002713e-05
 10
2.592967549440644
 20
-0.9149417419654924
 42
9.099999999989909e-05
 10
2.630779291440618
 20
-0.9274740439656739
 42
5.800000000009178e-05
 10
2.674801924440743
 20
-0.942050359965549
 42
0.009161999999999892
 10
2.964387214440734
 20
-1.032045037965815
 42
0.01069100000000013
 10
3.242612038440754
 20
-1.106537059965774
 42
0.01095999999999997
 10
3.517441774440741
 20
-1.16750512696575
 42
0.01071000000000007
 10
3.796801924440743
 20
-1.21688863396588
 42
0.00524300000000002
 10
3.834961111440734
 20
-1.22238528496581
 42
0.0009110000000000301
 10
3.90716987544073
 20
-1.231881001965746
 42
0.0008800000000000378
 10
3.979415701440744
 20
-1.241118442965842
 42
0.005737000000000141
 10
4.015801924440751
 20
-1.245282220965862
 42
0.002198999999999939
 10
4.109356744440746
 20
-1.254486316965711
 42
0.003722000000000024
 10
4.187807485440743
 20
-1.261267588965836
 42
0.004295999999999873
 10
4.257301468440744
 20
-1.266153493965874
 42
0.005030999999999932
 10
4.323301924440742
 20
-1.269558088965539
 42
-0.001356999999999964
 10
4.340784334440741
 20
-1.270331155965721
 42
-0.001047999999999901
 10
4.359836299440744
 20
-1.271265478965859
 42
-0.001060000000000031
 10
4.377624805440746
 20
-1.272213037965628
 42
-0.002543999999999942
 10
4.390801924440751
 20
-1.273010227965813
 42
0.01522299999999995
 10
4.434417541440737
 20
-1.274540386965953
 42
0.001176000000000086
 10
4.551494560440744
 20
-1.274806552965799
 42
0.001424999999999933
 10
4.667232679440744
 20
-1.27446761296568
 42
0.01057599999999993
 10
4.722301924440742
 20
-1.272984241965958
 42
0.002463
 10
4.839157843440745
 20
-1.266784279965748
 42
0.005659000000000066
 10
4.927027846440751
 20
-1.260689440965677
 42
0.006381000000000029
 10
5.008072693440738
 20
-1.253103313965937
 42
0.004110999999999949
 10
5.101801924440736
 20
-1.242341602965723
 42
0.01462200000000006
 10
5.335512007440741
 20
-1.206593887965653
 42
0.01476199999999997
 10
5.565986341440748
 20
-1.157338552965655
 42
0.01524300000000001
 10
5.785161928440743
 20
-1.096549840965679
 42
0.01887900000000008
 10
5.98487879544075
 20
-1.026174646965671
 42
0.01747299999999982
 10
6.191599294440749
 20
-0.935961955965638
 42
0.01920999999999997
 10
6.384937756440749
 20
-0.8341141369657521
 42
0.02024600000000007
 10
6.559549402440751
 20
-0.7237276579659806
 42
0.02605700000000013
 10
6.709953742440746
 20
-0.6078786799659497
 42
0.01526500000000013
 10
6.791422762440746
 20
-0.53364473896562
 42
0.009818999999999906
 10
6.881470822440747
 20
-0.4429223869657903
 42
0.009733999999999854
 10
6.969331918440744
 20
-0.34719246796584
 42
0.01335799999999988
 10
7.044301924440745
 20
-0.257528377965798
 42
0.02961899999999993
 10
7.078371037440746
 20
-0.208829194965972
 42
0.01227799999999995
 10
7.118772319440751
 20
-0.1393460449659756
 42
0.01229099999999989
 10
7.15749566844076
 20
-0.06451600396570711
 42
0.01875999999999985
 10
7.186999150440741
 20
0.002367958034085405
 42
0.02136800000000017
 10
7.228358770440735
 20
0.1211015320341744
 42
0.02503500000000001
 10
7.25698303944074
 20
0.2368630330341261
 42
0.02528700000000025
 10
7.27368627744076
 20
0.3538804540342539
 42
0.02266000000000018
 10
7.279313299440744
 20
0.4763679580340181
 42
0.0107869999999998
 10
7.277817781440746
 20
0.5476456840343076
 42
0.01411299999999991
 10
7.273209418440743
 20
0.6126480160342567
 42
0.01418599999999999
 10
7.26496603644074
 20
0.677016175033998
 42
0.01108900000000008
 10
7.252495105440744
 20
0.7463679580342273
 42
0.021942
 10
7.22384680344075
 20
0.8614528150342835
 42
0.01794500000000005
 10
7.183496575440756
 20
0.9817068460341147
 42
0.018429
 10
7.137609850440754
 20
1.09131401503447
 42
0.03813900000000002
 10
7.092359173440741
 20
1.172292679034229
 42
0.03680199999999993
 10
6.977339509440753
 20
1.320682543034138
 42
0.037822
 10
6.842780659440749
 20
1.449147253034255
 42
0.03813499999999996
 10
6.691527454440745
 20
1.554948802034289
 42
0.03879500000000003
 10
6.526801924440747
 20
1.635866410034225
 42
0.01620900000000004
 10
6.451843708440748
 20
1.662943021034209
 42
0.01639200000000004
 10
6.375567043440753
 20
1.684995754034219
 42
0.01597599999999998
 10
6.29615940744074
 20
1.702478839034313
 42
0.01378599999999998
 10
6.211801924440749
 20
1.71584951203414
 42
0.01238699999999991
 10
6.186008758440749
 20
1.718563873034384
 42
0.01020900000000002
 10
6.158392813440742
 20
1.720213381034057
 42
0.007294999999999979
 10
6.123164581440747
 20
1.721082001034176
 42
0.00245999999999998
 10
6.07180138644074
 20
1.721346145034033
 42
-0.0004629999999999562
 10
6.034257052440751
 20
1.721389291034313
 42
-0.0007790000000000111
 10
6.002735539440664
 20
1.721503822034322
 42
-3.499999999986602e-05
 10
5.974381396440776
 20
1.72165300603416
 42
-0.6722100000018989
 10
5.974301386440743
 20
1.721852284034242
 42
-0.04607399999999481
 10
5.97473457444076
 20
1.722200341034124
 42
-7.199999999992098e-05
 10
5.983026766440744
 20
1.727688157034265
 42
-0.0005789999999999188
 10
5.992339576440742
 20
1.733833993034125
 42
-0.0003579999999999953
 10
6.003301924440748
 20
1.741038967034285
 42
0.021723
 10
6.066437677440746
 20
1.78651144603424
 42
0.01793200000000017
 10
6.129700756440755
 20
1.840174234034123
 42
0.01793500000000009
 10
6.18894247044075
 20
1.898220097034311
 42
0.02175800000000005
 10
6.239989456440753
 20
1.956867958034138
 42
0.03438999999999988
 10
6.320851357440745
 20
2.074066216034282
 42
0.03216900000000012
 10
6.386908807440747
 20
2.203824343034114
 42
0.03112400000000021
 10
6.437625433440743
 20
2.345241238034134
 42
0.02780700000000018
 10
6.472661887440751
 20
2.497261741034265
 42
0.007726000000000008
 10
6.482661658440747
 20
2.561064217034357
 42
0.01736300000000008
 10
6.487810456440741
 20
2.609783923034058
 42
0.01421500000000025
 10
6.490108744440747
 20
2.664291577034248
 42
0.003715000000000235
 10
6.490658800440741
 20
2.751867958034211
 42
0.002215999999999991
 10
6.490355701440748
 20
2.806164481034159
 42
0.003573999999999924
 10
6.489562108440751
 20
2.852396890034299
 42
0.003816999999999995
 10
6.488383918440746
 20
2.889265627034376
 42
0.01698300000000017
 10
6.486792361440749
 20
2.910867958034316
 42
-8.100000000017518e-05
 10
6.485250499440738
 20
2.925176545034276
 42
-7.899999999997355e-05
 10
6.483696646440748
 20
2.939639833034164
 42
-7.799999999988869e-05
 10
6.482333284440742
 20
2.952367495034252
 42
-0.0002899999999998486
 10
6.481482244440741
 20
2.960367958034396
 42
0.01451999999999998
 10
6.477423985440751
 20
2.990373676034153
 42
0.005784999999999969
 10
6.470192368440749
 20
3.031264417034038
 42
0.005801999999999941
 10
6.461560879440754
 20
3.074238769034139
 42
0.008558000000000014
 10
6.452904079440742
 20
3.111728404034295
 42
0.043237
 10
6.386360935440749
 20
3.305702794034289
 42
0.04311999999999988
 10
6.287401249440748
 20
3.485529967034211
 42
0.04274599999999998
 10
6.158144053440751
 20
3.647114182034386
 42
0.04097800000000009
 10
6.001576012440751
 20
3.786875677034288
 42
0.02040099999999986
 10
5.920034107440742
 20
3.843387139034178
 42
0.01869299999999997
 10
5.83179041544075
 20
3.89483709103439
 42
0.01890800000000011
 10
5.741117362440747
 20
3.938935477034249
 42
0.02240900000000004
 10
5.652301924440749
 20
3.973387909034329
 42
0.01530599999999996
 10
5.538657292440746
 20
4.007873569034302
 42
0.01403300000000001
 10
5.419792546440746
 20
4.036451542034285
 42
0.01414299999999998
 10
5.300555182440746
 20
4.058099557034268
 42
0.01630399999999997
 10
5.185801924440739
 20
4.071786049034301
 42
-0.001072999999999889
 10
5.169990730440745
 20
4.07318500003413
 42
-0.001193000000000049
 10
5.15473317444075
 20
4.074604693034246
 42
-0.001102000000000183
 10
5.141725492440742
 20
4.075875277034413
 42
-0.006234999999999997
 10
5.134801924440751
 20
4.076654284034078
 42
0.02900600000000008
 10
5.105173909440751
 20
4.078628008034059
 42
0.001207
 10
4.999120732440744
 20
4.079275873034305
 42
0.001808000000000067
 10
4.896193612440754
 20
4.079283802034126
 42
0.01521899999999999
 10
4.849801924440754
 20
4.077707050034235
 42
0.02394599999999995
 10
4.612895659440738
 20
4.050991966034246
 42
0.02272100000000006
 10
4.375381345440744
 20
4.00145683903412
 42
0.02221000000000002
 10
4.138077415440748
 20
3.929229967034246
 42
0.02056100000000005
 10
3.901801924440747
 20
3.834588754034314
 42
0.008158000000000037
 10
3.846029791440742
 20
3.808440172034409
 42
0.003301999999999967
 10
3.77082249144074
 20
3.771053584034064
 42
0.003285999999999981
 10
3.696450676440748
 20
3.732852133034442
 42
0.008644000000000027
 10
3.643801924440752
 20
3.704201314034265
 42
-0.0008820000000001029
 10
3.620896720440741
 20
3.691271761034216
 42
-0.0005569999999997722
 10
3.594123799440752
 20
3.676260388034336
 42
-0.0005590000000001671
 10
3.567776023440743
 20
3.661564597034214
 42
-0.001030000000000218
 10
3.546301924440741
 20
3.649676470034194
 42
0.01497499999999996
 10
3.291656938440753
 20
3.499278220034114
 42
0.01595400000000006
 10
3.051912601440748
 20
3.336893278034324
 42
0.01574
 10
2.820117280440755
 20
3.157467823034096
 42
0.01378200000000001
 10
2.589301924440747
 20
2.955936577034265
 42
0.008479999999999948
 10
2.525601139440753
 20
2.895113692034158
 42
0.002213000000000064
 10
2.42539694844075
 20
2.795254027034218
 42
0.002233000000000013
 10
2.32589577744075
 20
2.694315721034229
 42
0.008111999999999972
 10
2.263996828440753
 20
2.628867958034164
 42
0.007569999999999959
 10
2.122074826440752
 20
2.469055369034379
 42
0.007609000000000051
 10
1.985304295440756
 20
2.305290637034261
 42
0.007451
 10
1.850897122440742
 20
2.134131820034156
 42
0.006607999999999901
 10
1.716061987440753
 20
1.952117035034291
 42
-0.001446999999999762
 10
1.69633924044075
 20
1.92491055403417
 42
-0.002617000000000203
 10
1.680009871440746
 20
1.902766126034123
 42
-0.0009649999999998117
 10
1.666417249440741
 20
1.884606835034276
 42
-0.8556760000015566
 10
1.665926803440755
 20
1.884867958034249
 42
0.005167999999999972
 10
1.70456866644075
 20
2.000053372034074
 42
0.003094999999999756
 10
1.748219728440745
 20
2.137670935034123
 42
0.003099000000000055
 10
1.789899265440738
 20
2.274950572034243
 42
0.005468999999999962
 10
1.822364542440738
 20
2.388867958034155
 42
0.00944000000000011
 10
1.890482239440744
 20
2.658095932034314
 42
0.01116099999999989
 10
1.944356317440751
 20
2.915128198034211
 42
0.01131600000000006
 10
1.986110821440747
 20
3.171165214034147
 42
0.01025500000000003
 10
2.017808653440739
 20
3.437367958034258
 42
0.005909000000000122
 10
2.022581896440756
 20
3.492611317034346
 42
0.002624999999999854
 10
2.027632375440746
 20
3.565560334034046
 42
0.002526999999999955
 10
2.032345297440742
 20
3.645594358034089
 42
0.002706000000000318
 10
2.036133025440748
 20
3.723867958034418
 42
0.009029999999999738
 10
2.037623917440755
 20
3.783772936034268
 42
0.001707999999999794
 10
2.037996598440742
 20
3.893116036034201
 42
0.001519999999999949
 10
2.037663076440751
 20
4.002605659034373
 42
0.01212099999999993
 10
2.03613081744075
 20
4.05311750203424
 42
-0.0004940000000000608
 10
2.035306873440746
 20
4.068481390034151
 42
-0.0002899999999998486
 10
2.034349765440752
 20
4.086867313034247
 42
-0.0002900000000000706
 10
2.033414026440739
 20
4.105253383034153
 42
-0.0004939999999998388
 10
2.032656241440748
 20
4.120617502034349
 42
0.01974400000000005
 10
2.004567940440751
 20
4.439793148034425
 42
0.01930100000000002
 10
1.951266916440745
 20
4.758209482034374
 42
0.01987200000000004
 10
1.875754378440746
 20
5.061271648034165
 42
0.02507699999999994
 10
1.781011378440752
 20
5.334238315034156
 42
0.01375400000000003
 10
1.705734964440751
 20
5.506619380034238
 42
0.01616599999999991
 10
1.624773037440747
 20
5.665389421034263
 42
0.01687200000000001
 10
1.537146178440751
 20
5.812361566034099
 42
0.01819799999999992
 10
1.441872004440754
 20
5.949329293034054
 42
0.01154999999999998
 10
1.387510237440751
 20
6.018334114034417
 42
0.01186300000000007
 10
1.33048900044075
 20
6.084129226034122
 42
0.01130999999999992
 10
1.267910824440748
 20
6.149913643034154
 42
0.008705000000000036
 10
1.19679094044075
 20
6.218923471034088
 42
0.008146999999999936
 10
1.093336594440743
 20
6.31275075103423
 42
0.02057399999999989
 10
1.014280096440743
 20
6.376576615034367
 42
0.02492400000000007
 10
0.9398482124407512
 20
6.426221737034041
 42
0.01854400000000008
 10
0.8532191654407488
 20
6.473694223034329
 42
0.03238799999999998
 10
0.7039109924407403
 20
6.536727244034239
 42
0.03081900000000002
 10
0.5452367444407433
 20
6.58117110403424
 42
0.031188
 10
0.3843142394407413
 20
6.605347600034122
 42
0.03535899999999998
  0
ENDSEC
  0
SECTION
  2
OBJECTS
  0
DICTIONARY
  5
C
330
0
100
AcDbDictionary
281
    1
  3
ACAD_GROUP
350
D
  0
DICTIONARY
  5
D
330
C
100
AcDbDictionary
281
    1
  0
ENDSEC
  0
EOF
