  0
SECTION
  2
HEADER
  9
$ACADVER
  1
AC1006
  9
$EXTMIN
 10
0.000000
 20
0.000000
 30
0.000000
  9
$EXTMAX
 10
5000.000000
 20
5000.000000
 30
0.000000
  0
ENDSEC
  0
SECTION
  2
ENTITIES
  0
POLYLINE
  8
0
 66
1
 70
1
  0
VERTEX
  8
0
 10
2337.000000
 20
4687.329375
 42
0.016068
  0
VERTEX
  8
0
 10
2304.698967
 20
4684.520408
 42
0.017181
  0
VERTEX
  8
0
 10
2273.364546
 20
4679.680903
 42
0.017055
  0
VERTEX
  8
0
 10
2242.224261
 20
4672.661657
 42
0.015344
  0
VERTEX
  8
0
 10
2210.504357
 20
4663.316999
 42
0.012070
  0
VERTEX
  8
0
 10
2184.317182
 20
4654.014711
 42
0.014822
  0
VERTEX
  8
0
 10
2160.368399
 20
4644.027332
 42
0.016215
  0
VERTEX
  8
0
 10
2139.332122
 20
4633.678990
 42
0.025223
  0
VERTEX
  8
0
 10
2121.999941
 20
4623.288820
 42
0.036888
  0
VERTEX
  8
0
 10
2073.561116
 20
4585.367415
 42
0.037489
  0
VERTEX
  8
0
 10
2031.502515
 20
4540.929905
 42
0.037683
  0
VERTEX
  8
0
 10
1996.742296
 20
4490.943649
 42
0.038135
  0
VERTEX
  8
0
 10
1970.034529
 20
4436.500000
 42
0.016256
  0
VERTEX
  8
0
 10
1960.982570
 20
4411.494402
 42
0.016480
  0
VERTEX
  8
0
 10
1953.619435
 20
4386.066166
 42
0.016070
  0
VERTEX
  8
0
 10
1947.792141
 20
4359.605358
 42
0.013877
  0
VERTEX
  8
0
 10
1943.346604
 20
4331.500000
 42
0.012398
  0
VERTEX
  8
0
 10
1942.447501
 20
4322.913170
 42
0.010073
  0
VERTEX
  8
0
 10
1941.898265
 20
4313.675606
 42
0.007226
  0
VERTEX
  8
0
 10
1941.606372
 20
4301.902776
 42
0.002474
  0
VERTEX
  8
0
 10
1941.514393
 20
4284.833164
 42
-0.000389
  0
VERTEX
  8
0
 10
1941.499144
 20
4272.318388
 42
-0.000654
  0
VERTEX
  8
0
 10
1941.464428
 20
4261.811219
 42
-0.000027
  0
VERTEX
  8
0
 10
1941.420290
 20
4252.352813
 42
-0.704435
  0
VERTEX
  8
0
 10
1941.364509
 20
4252.333164
 42
-0.022648
  0
VERTEX
  8
0
 10
1941.261392
 20
4252.472590
 42
-0.000019
  0
VERTEX
  8
0
 10
1938.908188
 20
4255.975992
 42
-0.000209
  0
VERTEX
  8
0
 10
1936.283634
 20
4259.887225
 42
-0.000128
  0
VERTEX
  8
0
 10
1933.192828
 20
4264.500000
 42
0.018457
  0
VERTEX
  8
0
 10
1920.150197
 20
4282.501593
 42
0.015378
  0
VERTEX
  8
0
 10
1905.025757
 20
4300.653732
 42
0.015378
  0
VERTEX
  8
0
 10
1888.813416
 20
4317.842629
 42
0.018451
  0
VERTEX
  8
0
 10
1872.500000
 20
4332.948257
 42
0.036329
  0
VERTEX
  8
0
 10
1833.099645
 20
4362.127721
 42
0.033534
  0
VERTEX
  8
0
 10
1788.850409
 20
4386.173838
 42
0.032518
  0
VERTEX
  8
0
 10
1740.409783
 20
4404.724307
 42
0.029716
  0
VERTEX
  8
0
 10
1688.500000
 20
4417.498889
 42
0.008434
  0
VERTEX
  8
0
 10
1665.811154
 20
4421.277264
 42
0.017862
  0
VERTEX
  8
0
 10
1648.104149
 20
4423.276478
 42
0.015063
  0
VERTEX
  8
0
 10
1628.521219
 20
4424.189438
 42
0.004453
  0
VERTEX
  8
0
 10
1598.500000
 20
4424.416324
 42
0.002279
  0
VERTEX
  8
0
 10
1573.657634
 20
4424.269608
 42
0.008069
  0
VERTEX
  8
0
 10
1557.719781
 20
4423.845562
 42
0.010638
  0
VERTEX
  8
0
 10
1544.206114
 20
4422.979331
 42
0.006743
  0
VERTEX
  8
0
 10
1528.500000
 20
4421.422912
 42
0.017680
  0
VERTEX
  8
0
 10
1509.634932
 20
4418.617727
 42
0.010653
  0
VERTEX
  8
0
 10
1487.486300
 20
4414.029253
 42
0.010590
  0
VERTEX
  8
0
 10
1465.234379
 20
4408.424057
 42
0.015653
  0
VERTEX
  8
0
 10
1446.000000
 20
4402.490045
 42
0.037517
  0
VERTEX
  8
0
 10
1390.642857
 20
4378.722575
 42
0.037672
  0
VERTEX
  8
0
 10
1339.539722
 20
4346.977819
 42
0.037398
  0
VERTEX
  8
0
 10
1293.443049
 20
4307.681821
 42
0.035834
  0
VERTEX
  8
0
 10
1252.997427
 20
4261.424696
 42
0.020401
  0
VERTEX
  8
0
 10
1234.160273
 20
4234.244061
 42
0.018693
  0
VERTEX
  8
0
 10
1217.010289
 20
4204.829497
 42
0.018908
  0
VERTEX
  8
0
 10
1202.310827
 20
4174.605146
 42
0.022409
  0
VERTEX
  8
0
 10
1190.826683
 20
4145.000000
 42
0.017080
  0
VERTEX
  8
0
 10
1177.582838
 20
4100.792274
 42
0.017223
  0
VERTEX
  8
0
 10
1167.428741
 20
4055.905987
 42
0.016930
  0
VERTEX
  8
0
 10
1160.246655
 20
4009.691135
 42
0.015292
  0
VERTEX
  8
0
 10
1155.910596
 20
3961.500000
 42
0.012973
  0
VERTEX
  8
0
 10
1155.304300
 20
3943.249811
 42
0.003089
  0
VERTEX
  8
0
 10
1155.271267
 20
3912.855755
 42
0.001687
  0
VERTEX
  8
0
 10
1155.536205
 20
3881.556378
 42
0.042165
  0
VERTEX
  8
0
 10
1156.361166
 20
3873.000000
 42
-0.020524
  0
VERTEX
  8
0
 10
1156.573528
 20
3871.485986
 42
-0.002785
  0
VERTEX
  8
0
 10
1156.870147
 20
3868.296875
 42
-0.003204
  0
VERTEX
  8
0
 10
1157.176495
 20
3864.511994
 42
-0.002698
  0
VERTEX
  8
0
 10
1157.453595
 20
3860.500000
 42
0.023112
  0
VERTEX
  8
0
 10
1163.271576
 20
3807.715615
 42
0.016140
  0
VERTEX
  8
0
 10
1174.482378
 20
3748.875052
 42
0.015627
  0
VERTEX
  8
0
 10
1190.046634
 20
3688.375118
 42
0.016861
  0
VERTEX
  8
0
 10
1209.018658
 20
3630.500000
 42
0.011550
  0
VERTEX
  8
0
 10
1224.020403
 20
3592.229947
 42
0.008909
  0
VERTEX
  8
0
 10
1242.075784
 20
3551.194632
 42
0.008942
  0
VERTEX
  8
0
 10
1261.476432
 20
3511.053256
 42
0.012057
  0
VERTEX
  8
0
 10
1280.540783
 20
3475.500000
 42
-0.000901
  0
VERTEX
  8
0
 10
1284.856875
 20
3467.864927
 42
-0.000569
  0
VERTEX
  8
0
 10
1289.867206
 20
3458.940625
 42
-0.000571
  0
VERTEX
  8
0
 10
1294.771678
 20
3450.158023
 42
-0.001052
  0
VERTEX
  8
0
 10
1298.738507
 20
3443.000000
 42
0.017872
  0
VERTEX
  8
0
 10
1359.853000
 20
3340.972055
 42
0.019385
  0
VERTEX
  8
0
 10
1426.558220
 20
3246.377532
 42
0.018944
  0
VERTEX
  8
0
 10
1501.819043
 20
3155.344380
 42
0.015602
  0
VERTEX
  8
0
 10
1588.635713
 20
3063.986817
 42
0.010547
  0
VERTEX
  8
0
 10
1653.195334
 20
3002.799755
 42
0.010489
  0
VERTEX
  8
0
 10
1720.395572
 20
2944.273767
 42
0.010141
  0
VERTEX
  8
0
 10
1792.150401
 20
2886.809257
 42
0.008527
  0
VERTEX
  8
0
 10
1870.399352
 20
2828.801958
 42
-0.001036
  0
VERTEX
  8
0
 10
1877.233950
 20
2823.892279
 42
-0.001770
  0
VERTEX
  8
0
 10
1882.917953
 20
2819.760575
 42
-0.000217
  0
VERTEX
  8
0
 10
1887.913086
 20
2816.099183
 42
-0.724771
  0
VERTEX
  8
0
 10
1887.880605
 20
2816.000000
 42
-0.079846
  0
VERTEX
  8
0
 10
1887.550627
 20
2816.053033
 42
-0.000053
  0
VERTEX
  8
0
 10
1878.778329
 20
2818.948527
 42
-0.000643
  0
VERTEX
  8
0
 10
1869.006308
 20
2822.189096
 42
-0.000393
  0
VERTEX
  8
0
 10
1857.481252
 20
2826.037539
 42
0.006994
  0
VERTEX
  8
0
 10
1783.125880
 20
2849.779880
 42
0.007756
  0
VERTEX
  8
0
 10
1710.645456
 20
2870.588634
 42
0.007984
  0
VERTEX
  8
0
 10
1639.586950
 20
2888.588831
 42
0.008517
  0
VERTEX
  8
0
 10
1569.500000
 20
2903.901146
 42
0.005483
  0
VERTEX
  8
0
 10
1526.499819
 20
2912.041563
 42
0.005162
  0
VERTEX
  8
0
 10
1482.459651
 20
2919.411373
 42
0.005347
  0
VERTEX
  8
0
 10
1440.286665
 20
2925.560581
 42
0.007802
  0
VERTEX
  8
0
 10
1403.000000
 20
2929.999570
 42
-0.000251
  0
VERTEX
  8
0
 10
1395.132221
 20
2930.815942
 42
-0.000612
  0
VERTEX
  8
0
 10
1389.335902
 20
2931.427486
 42
-0.000782
  0
VERTEX
  8
0
 10
1384.497378
 20
2931.951621
 42
-0.000827
  0
VERTEX
  8
0
 10
1379.750000
 20
2932.481346
 42
0.007085
  0
VERTEX
  8
0
 10
1366.600226
 20
2933.782226
 42
0.002391
  0
VERTEX
  8
0
 10
1347.404554
 20
2935.314518
 42
0.002172
  0
VERTEX
  8
0
 10
1324.336957
 20
2936.944196
 42
0.001550
  0
VERTEX
  8
0
 10
1298.500000
 20
2938.576316
 42
0.007849
  0
VERTEX
  8
0
 10
1281.683025
 20
2939.321585
 42
0.002048
  0
VERTEX
  8
0
 10
1254.653037
 20
2939.983770
 42
0.002061
  0
VERTEX
  8
0
 10
1227.585385
 20
2940.424356
 42
0.007623
  0
VERTEX
  8
0
 10
1210.500000
 20
2940.371524
 42
0.000890
  0
VERTEX
  8
0
 10
1185.313417
 20
2939.864716
 42
0.001266
  0
VERTEX
  8
0
 10
1162.928796
 20
2939.317710
 42
0.000365
  0
VERTEX
  8
0
 10
1143.153179
 20
2938.769897
 42
0.039551
  0
VERTEX
  8
0
 10
1140.500000
 20
2938.483613
 42
-0.027408
  0
VERTEX
  8
0
 10
1139.180105
 20
2938.308710
 42
-0.002047
  0
VERTEX
  8
0
 10
1135.562500
 20
2938.044706
 42
-0.002831
  0
VERTEX
  8
0
 10
1131.241950
 20
2937.771753
 42
-0.002147
  0
VERTEX
  8
0
 10
1126.500000
 20
2937.519545
 42
0.009760
  0
VERTEX
  8
0
 10
1093.097104
 20
2935.232469
 42
0.006572
  0
VERTEX
  8
0
 10
1055.063643
 20
2931.376955
 42
0.006380
  0
VERTEX
  8
0
 10
1015.526730
 20
2926.331413
 42
0.007088
  0
VERTEX
  8
0
 10
977.500000
 20
2920.433791
 42
0.012143
  0
VERTEX
  8
0
 10
914.077104
 20
2908.083129
 42
0.012443
  0
VERTEX
  8
0
 10
851.845016
 20
2892.755076
 42
0.012899
  0
VERTEX
  8
0
 10
792.881314
 20
2875.019544
 42
0.016209
  0
VERTEX
  8
0
 10
739.299673
 20
2855.436912
 42
0.013904
  0
VERTEX
  8
0
 10
681.366953
 20
2830.215240
 42
0.016046
  0
VERTEX
  8
0
 10
627.678866
 20
2802.909034
 42
0.016777
  0
VERTEX
  8
0
 10
578.099928
 20
2773.448774
 42
0.018792
  0
VERTEX
  8
0
 10
532.500000
 20
2741.762415
 42
0.011418
  0
VERTEX
  8
0
 10
509.339112
 20
2723.499909
 42
0.011696
  0
VERTEX
  8
0
 10
487.225087
 20
2704.341095
 42
0.011217
  0
VERTEX
  8
0
 10
465.209377
 20
2683.426997
 42
0.008882
  0
VERTEX
  8
0
 10
442.335366
 20
2659.877859
 42
0.005769
  0
VERTEX
  8
0
 10
418.715614
 20
2634.090595
 42
0.011322
  0
VERTEX
  8
0
 10
400.632370
 20
2612.939945
 42
0.013989
  0
VERTEX
  8
0
 10
386.514581
 20
2594.626944
 42
0.020545
  0
VERTEX
  8
0
 10
375.244866
 20
2577.711021
 42
0.027572
  0
VERTEX
  8
0
 10
352.765314
 20
2535.715958
 42
0.027439
  0
VERTEX
  8
0
 10
335.002841
 20
2491.435682
 42
0.027366
  0
VERTEX
  8
0
 10
322.156531
 20
2445.359941
 42
0.027089
  0
VERTEX
  8
0
 10
314.366771
 20
2398.000000
 42
0.018453
  0
VERTEX
  8
0
 10
313.160697
 20
2381.267201
 42
0.007181
  0
VERTEX
  8
0
 10
312.680633
 20
2358.067313
 42
0.007154
  0
VERTEX
  8
0
 10
312.865278
 20
2334.932842
 42
0.019201
  0
VERTEX
  8
0
 10
313.863751
 20
2318.500000
 42
0.021908
  0
VERTEX
  8
0
 10
320.134763
 20
2274.912627
 42
0.021228
  0
VERTEX
  8
0
 10
330.243432
 20
2231.573722
 42
0.021325
  0
VERTEX
  8
0
 10
343.934205
 20
2189.449958
 42
0.022645
  0
VERTEX
  8
0
 10
360.927031
 20
2149.500000
 42
0.028657
  0
VERTEX
  8
0
 10
372.736815
 20
2128.124253
 42
0.020106
  0
VERTEX
  8
0
 10
388.318108
 20
2105.458970
 42
0.018823
  0
VERTEX
  8
0
 10
406.946108
 20
2082.428218
 42
0.016781
  0
VERTEX
  8
0
 10
427.955209
 20
2059.935356
 42
0.040137
  0
VERTEX
  8
0
 10
479.946640
 20
2015.634380
 42
0.043568
  0
VERTEX
  8
0
 10
536.998727
 20
1981.560388
 42
0.043065
  0
VERTEX
  8
0
 10
599.697009
 20
1957.585220
 42
0.037586
  0
VERTEX
  8
0
 10
668.500000
 20
1943.350011
 42
0.012403
  0
VERTEX
  8
0
 10
677.081563
 20
1942.453627
 42
0.010008
  0
VERTEX
  8
0
 10
686.334689
 20
1941.904674
 42
0.007194
  0
VERTEX
  8
0
 10
698.121940
 20
1941.611650
 42
0.002481
  0
VERTEX
  8
0
 10
715.166801
 20
1941.517800
 42
-0.000355
  0
VERTEX
  8
0
 10
727.681566
 20
1941.502106
 42
-0.000596
  0
VERTEX
  8
0
 10
738.188732
 20
1941.468951
 42
-0.000024
  0
VERTEX
  8
0
 10
747.650148
 20
1941.427362
 42
-0.721420
  0
VERTEX
  8
0
 10
747.666801
 20
1941.376503
 42
-0.011088
  0
VERTEX
  8
0
 10
747.529949
 20
1941.279803
 42
-0.000010
  0
VERTEX
  8
0
 10
744.170873
 20
1939.016350
 42
-0.000103
  0
VERTEX
  8
0
 10
740.421069
 20
1936.490838
 42
-0.000063
  0
VERTEX
  8
0
 10
736.000000
 20
1933.515360
 42
0.010500
  0
VERTEX
  8
0
 10
722.070764
 20
1923.712140
 42
0.015043
  0
VERTEX
  8
0
 10
710.182345
 20
1914.402385
 42
0.014329
  0
VERTEX
  8
0
 10
698.455823
 20
1904.053195
 42
0.008362
  0
VERTEX
  8
0
 10
684.972951
 20
1891.019331
 42
0.005815
  0
VERTEX
  8
0
 10
672.912412
 20
1878.680098
 42
0.013072
  0
VERTEX
  8
0
 10
664.123576
 20
1868.981029
 42
0.014183
  0
VERTEX
  8
0
 10
656.297650
 20
1859.336926
 42
0.008169
  0
VERTEX
  8
0
 10
647.400437
 20
1847.311807
 42
0.033510
  0
VERTEX
  8
0
 10
623.472743
 20
1808.603785
 42
0.030375
  0
VERTEX
  8
0
 10
604.042500
 20
1765.778873
 42
0.029310
  0
VERTEX
  8
0
 10
589.349037
 20
1719.366710
 42
0.026445
  0
VERTEX
  8
0
 10
579.580003
 20
1669.937576
 42
0.008667
  0
VERTEX
  8
0
 10
577.038478
 20
1649.696735
 42
0.013915
  0
VERTEX
  8
0
 10
575.652509
 20
1632.354196
 42
0.012261
  0
VERTEX
  8
0
 10
575.135361
 20
1613.483783
 42
0.005103
  0
VERTEX
  8
0
 10
575.322085
 20
1588.000000
 42
0.003892
  0
VERTEX
  8
0
 10
575.986925
 20
1561.744003
 42
0.011645
  0
VERTEX
  8
0
 10
576.999043
 20
1543.813829
 42
0.013943
  0
VERTEX
  8
0
 10
578.729584
 20
1527.786779
 42
0.007919
  0
VERTEX
  8
0
 10
581.669755
 20
1508.500000
 42
0.062156
  0
VERTEX
  8
0
 10
609.951704
 20
1414.162772
 42
0.061842
  0
VERTEX
  8
0
 10
660.584482
 20
1329.492774
 42
0.060975
  0
VERTEX
  8
0
 10
731.132848
 20
1258.785683
 42
0.057490
  0
VERTEX
  8
0
 10
818.000000
 20
1205.542638
 42
0.026288
  0
VERTEX
  8
0
 10
852.924640
 20
1191.493882
 42
0.016780
  0
VERTEX
  8
0
 10
894.795508
 20
1178.709770
 42
0.016209
  0
VERTEX
  8
0
 10
939.592952
 20
1168.203695
 42
0.017929
  0
VERTEX
  8
0
 10
983.500000
 20
1161.023723
 42
-0.000362
  0
VERTEX
  8
0
 10
987.165648
 20
1160.555806
 42
-0.000391
  0
VERTEX
  8
0
 10
990.737500
 20
1160.094393
 42
-0.000368
  0
VERTEX
  8
0
 10
993.800848
 20
1159.693939
 42
-0.001887
  0
VERTEX
  8
0
 10
995.500000
 20
1159.464017
 42
0.012782
  0
VERTEX
  8
0
 10
1011.670377
 20
1157.633674
 42
0.009959
  0
VERTEX
  8
0
 10
1029.319336
 20
1156.445325
 42
0.007952
  0
VERTEX
  8
0
 10
1050.543200
 20
1155.778472
 42
0.003735
  0
VERTEX
  8
0
 10
1078.000000
 20
1155.557794
 42
0.002529
  0
VERTEX
  8
0
 10
1103.925940
 20
1155.674232
 42
0.007500
  0
VERTEX
  8
0
 10
1121.708562
 20
1156.110868
 42
0.009818
  0
VERTEX
  8
0
 10
1136.603924
 20
1156.993454
 42
0.008014
  0
VERTEX
  8
0
 10
1152.500000
 20
1158.505678
 42
-0.000339
  0
VERTEX
  8
0
 10
1154.673565
 20
1158.746171
 42
-0.000082
  0
VERTEX
  8
0
 10
1158.262500
 20
1159.140205
 42
-0.000085
  0
VERTEX
  8
0
 10
1162.378125
 20
1159.590674
 42
-0.000084
  0
VERTEX
  8
0
 10
1166.500000
 20
1160.040420
 42
0.021412
  0
VERTEX
  8
0
 10
1226.356052
 20
1169.168236
 42
0.017288
  0
VERTEX
  8
0
 10
1289.698706
 20
1183.913985
 42
0.016825
  0
VERTEX
  8
0
 10
1353.817941
 20
1203.533648
 42
0.017178
  0
VERTEX
  8
0
 10
1416.024077
 20
1227.299755
 42
0.008828
  0
VERTEX
  8
0
 10
1444.465929
 20
1239.897122
 42
0.006642
  0
VERTEX
  8
0
 10
1475.302182
 20
1254.712435
 42
0.006541
  0
VERTEX
  8
0
 10
1506.362187
 20
1270.656353
 42
0.007573
  0
VERTEX
  8
0
 10
1535.500000
 20
1286.668279
 42
-0.000997
  0
VERTEX
  8
0
 10
1544.780211
 20
1291.928030
 42
-0.000685
  0
VERTEX
  8
0
 10
1555.325000
 20
1297.857711
 42
-0.000691
  0
VERTEX
  8
0
 10
1565.492458
 20
1303.538441
 42
-0.001406
  0
VERTEX
  8
0
 10
1573.500000
 20
1307.968443
 42
0.014054
  0
VERTEX
  8
0
 10
1629.851524
 20
1341.032297
 42
0.011155
  0
VERTEX
  8
0
 10
1688.848567
 20
1379.772304
 42
0.010911
  0
VERTEX
  8
0
 10
1747.592653
 20
1422.169739
 42
0.011609
  0
VERTEX
  8
0
 10
1803.206506
 20
1466.248226
 42
0.005041
  0
VERTEX
  8
0
 10
1835.419367
 20
1493.574063
 42
0.007121
  0
VERTEX
  8
0
 10
1863.513156
 20
1518.605881
 42
0.006742
  0
VERTEX
  8
0
 10
1892.009765
 20
1545.450303
 42
0.003896
  0
VERTEX
  8
0
 10
1925.595396
 20
1578.465239
 42
0.001733
  0
VERTEX
  8
0
 10
1951.984362
 20
1604.996520
 42
0.004606
  0
VERTEX
  8
0
 10
1970.589784
 20
1624.182704
 42
0.005225
  0
VERTEX
  8
0
 10
1987.461512
 20
1642.279791
 42
0.002872
  0
VERTEX
  8
0
 10
2007.750000
 20
1664.760841
 42
-0.000908
  0
VERTEX
  8
0
 10
2013.981745
 20
1671.720824
 42
-0.001539
  0
VERTEX
  8
0
 10
2019.226562
 20
1677.521181
 42
-0.000143
  0
VERTEX
  8
0
 10
2023.903471
 20
1682.658618
 42
-0.685164
  0
VERTEX
  8
0
 10
2024.000000
 20
1682.621245
 42
-0.127908
  0
VERTEX
  8
0
 10
2023.704979
 20
1681.486856
 42
-0.000017
  0
VERTEX
  8
0
 10
1988.655929
 20
1618.665762
 42
-0.000527
  0
VERTEX
  8
0
 10
1957.298802
 20
1562.605577
 42
-0.001536
  0
VERTEX
  8
0
 10
1935.481861
 20
1523.976289
 42
-0.010822
  0
VERTEX
  8
0
 10
1917.699658
 20
1494.232323
 42
-0.006122
  0
VERTEX
  8
0
 10
1894.941318
 20
1458.937642
 42
-0.005509
  0
VERTEX
  8
0
 10
1868.191320
 20
1419.497913
 42
-0.004231
  0
VERTEX
  8
0
 10
1838.142033
 20
1377.000000
 42
-0.019202
  0
VERTEX
  8
0
 10
1734.165157
 20
1243.667342
 42
-0.024816
  0
VERTEX
  8
0
 10
1628.354771
 20
1130.165451
 42
-0.027157
  0
VERTEX
  8
0
 10
1521.237563
 20
1036.871586
 42
-0.035374
  0
VERTEX
  8
0
 10
1413.324326
 20
964.380944
 42
-0.042090
  0
VERTEX
  8
0
 10
1295.013483
 20
909.163962
 42
-0.050876
  0
VERTEX
  8
0
 10
1176.347643
 20
878.753713
 42
-0.052675
  0
VERTEX
  8
0
 10
1057.537236
 20
873.528381
 42
-0.050861
  0
VERTEX
  8
0
 10
938.795268
 20
893.048617
 42
-0.018494
  0
VERTEX
  8
0
 10
894.397327
 20
906.858084
 42
-0.016865
  0
VERTEX
  8
0
 10
849.731827
 20
924.298595
 42
-0.016389
  0
VERTEX
  8
0
 10
805.065867
 20
945.259047
 42
-0.015156
  0
VERTEX
  8
0
 10
760.666576
 20
969.621090
 42
0.001072
  0
VERTEX
  8
0
 10
756.492821
 20
972.066639
 42
0.001736
  0
VERTEX
  8
0
 10
752.932147
 20
974.126195
 42
0.000239
  0
VERTEX
  8
0
 10
749.761077
 20
975.943719
 42
0.130730
  0
VERTEX
  8
0
 10
749.549501
 20
976.000000
 42
0.404220
  0
VERTEX
  8
0
 10
749.431976
 20
975.886432
 42
0.000394
  0
VERTEX
  8
0
 10
749.296472
 20
971.837358
 42
0.003126
  0
VERTEX
  8
0
 10
749.175622
 20
967.263036
 42
0.001875
  0
VERTEX
  8
0
 10
749.086445
 20
961.829303
 42
-0.002133
  0
VERTEX
  8
0
 10
748.993790
 20
956.355740
 42
-0.003346
  0
VERTEX
  8
0
 10
748.862567
 20
951.651078
 42
-0.000921
  0
VERTEX
  8
0
 10
748.713484
 20
947.559200
 42
-0.120729
  0
VERTEX
  8
0
 10
748.576238
 20
947.079303
 42
0.121398
  0
VERTEX
  8
0
 10
748.434818
 20
946.582333
 42
0.000240
  0
VERTEX
  8
0
 10
748.143565
 20
938.298295
 42
0.001683
  0
VERTEX
  8
0
 10
747.851446
 20
928.967964
 42
0.001041
  0
VERTEX
  8
0
 10
747.567841
 20
918.000000
 42
-0.000848
  0
VERTEX
  8
0
 10
747.279584
 20
906.683743
 42
-0.001083
  0
VERTEX
  8
0
 10
746.973657
 20
896.256250
 42
-0.000838
  0
VERTEX
  8
0
 10
746.683555
 20
887.514181
 42
-0.009150
  0
VERTEX
  8
0
 10
746.496605
 20
884.000000
 42
0.008043
  0
VERTEX
  8
0
 10
746.312347
 20
880.675245
 42
0.001072
  0
VERTEX
  8
0
 10
746.051482
 20
873.653125
 42
0.001241
  0
VERTEX
  8
0
 10
745.780724
 20
865.326409
 42
0.001043
  0
VERTEX
  8
0
 10
745.534066
 20
856.500000
 42
-0.000649
  0
VERTEX
  8
0
 10
745.282413
 20
847.233830
 42
-0.000575
  0
VERTEX
  8
0
 10
744.996712
 20
837.584375
 42
-0.000577
  0
VERTEX
  8
0
 10
744.719379
 20
828.894166
 42
-0.001763
  0
VERTEX
  8
0
 10
744.503656
 20
823.000000
 42
0.000842
  0
VERTEX
  8
0
 10
744.289692
 20
817.434645
 42
0.000365
  0
VERTEX
  8
0
 10
744.022952
 20
810.031250
 42
0.000361
  0
VERTEX
  8
0
 10
743.750750
 20
802.158554
 42
0.000480
  0
VERTEX
  8
0
 10
743.515295
 20
795.000000
 42
-0.000030
  0
VERTEX
  8
0
 10
743.278338
 20
787.592806
 42
-0.000019
  0
VERTEX
  8
0
 10
743.000708
 20
778.940625
 42
-0.000019
  0
VERTEX
  8
0
 10
742.727003
 20
770.430800
 42
-0.000035
  0
VERTEX
  8
0
 10
742.503341
 20
763.500000
 42
0.000052
  0
VERTEX
  8
0
 10
742.279915
 20
756.569200
 42
0.000028
  0
VERTEX
  8
0
 10
742.006946
 20
748.059375
 42
0.000028
  0
VERTEX
  8
0
 10
741.730384
 20
739.407193
 42
0.000045
  0
VERTEX
  8
0
 10
741.494695
 20
732.000000
 42
-0.000225
  0
VERTEX
  8
0
 10
741.259722
 20
724.698448
 42
-0.000153
  0
VERTEX
  8
0
 10
740.985764
 20
716.381250
 42
-0.000154
  0
VERTEX
  8
0
 10
740.716223
 20
708.347963
 42
-0.000308
  0
VERTEX
  8
0
 10
740.497353
 20
702.000000
 42
0.000409
  0
VERTEX
  8
0
 10
740.278631
 20
695.619157
 42
0.000199
  0
VERTEX
  8
0
 10
740.009274
 20
687.471875
 42
0.000197
  0
VERTEX
  8
0
 10
739.735706
 20
678.993752
 42
0.000285
  0
VERTEX
  8
0
 10
739.501143
 20
671.500000
 42
-0.000289
  0
VERTEX
  8
0
 10
739.266524
 20
664.006248
 42
-0.000200
  0
VERTEX
  8
0
 10
738.992785
 20
655.528125
 42
-0.000202
  0
VERTEX
  8
0
 10
738.723177
 20
647.380843
 42
-0.000414
  0
VERTEX
  8
0
 10
738.504157
 20
641.000000
 42
0.000253
  0
VERTEX
  8
0
 10
738.286525
 20
634.718533
 42
0.000133
  0
VERTEX
  8
0
 10
738.022111
 20
626.912500
 42
0.000133
  0
VERTEX
  8
0
 10
737.755527
 20
618.916825
 42
0.000204
  0
VERTEX
  8
0
 10
737.529574
 20
612.000000
 42
-0.000001
  0
VERTEX
  8
0
 10
737.300838
 20
604.909611
 42
-0.000000
  0
VERTEX
  8
0
 10
737.024785
 20
596.353125
 42
-0.000000
  0
VERTEX
  8
0
 10
736.747184
 20
587.749153
 42
-0.000001
  0
VERTEX
  8
0
 10
736.513279
 20
580.500000
 42
-0.000275
  0
VERTEX
  8
0
 10
736.279960
 20
573.390753
 42
-0.000183
  0
VERTEX
  8
0
 10
736.004797
 20
565.234375
 42
-0.000184
  0
VERTEX
  8
0
 10
735.731813
 20
557.314840
 42
-0.000359
  0
VERTEX
  8
0
 10
735.507281
 20
551.000000
 42
0.000982
  0
VERTEX
  8
0
 10
735.282859
 20
544.458534
 42
0.000423
  0
VERTEX
  8
0
 10
735.008205
 20
535.737500
 42
0.000419
  0
VERTEX
  8
0
 10
734.731478
 20
526.453558
 42
0.000555
  0
VERTEX
  8
0
 10
734.495974
 20
518.000000
 42
-0.001484
  0
VERTEX
  8
0
 10
734.253016
 20
509.824770
 42
-0.001349
  0
VERTEX
  8
0
 10
733.954379
 20
501.386182
 42
-0.001349
  0
VERTEX
  8
0
 10
733.646538
 20
493.839524
 42
-0.004352
  0
VERTEX
  8
0
 10
733.384707
 20
488.825300
 42
0.000000
  0
VERTEX
  8
0
 10
732.795040
 20
479.150600
 42
0.000000
  0
VERTEX
  8
0
 10
736.647520
 20
478.050615
 42
0.019432
  0
VERTEX
  8
0
 10
745.032749
 20
476.005117
 42
0.004661
  0
VERTEX
  8
0
 10
759.098377
 20
473.284164
 42
0.004997
  0
VERTEX
  8
0
 10
774.470614
 20
470.617381
 42
0.007023
  0
VERTEX
  8
0
 10
788.240316
 20
468.568231
 42
0.006926
  0
VERTEX
  8
0
 10
813.209294
 20
465.561685
 42
0.011404
  0
VERTEX
  8
0
 10
834.400784
 20
463.794979
 42
0.010253
  0
VERTEX
  8
0
 10
857.162652
 20
462.887103
 42
0.004431
  0
VERTEX
  8
0
 10
887.500000
 20
462.568643
 42
0.007576
  0
VERTEX
  8
0
 10
933.927225
 20
463.196283
 42
0.014090
  0
VERTEX
  8
0
 10
971.512478
 20
465.335256
 42
0.014456
  0
VERTEX
  8
0
 10
1008.271219
 20
469.541648
 42
0.008474
  0
VERTEX
  8
0
 10
1052.000000
 20
476.589357
 42
0.025817
  0
VERTEX
  8
0
 10
1137.541121
 20
496.470733
 42
0.023165
  0
VERTEX
  8
0
 10
1223.795884
 20
525.659866
 42
0.022799
  0
VERTEX
  8
0
 10
1308.399017
 20
563.260947
 42
0.022978
  0
VERTEX
  8
0
 10
1389.000000
 20
608.320361
 42
0.038657
  0
VERTEX
  8
0
 10
1530.003173
 20
711.773658
 42
0.033284
  0
VERTEX
  8
0
 10
1661.137072
 20
840.672484
 42
0.031135
  0
VERTEX
  8
0
 10
1781.988478
 20
994.726834
 42
0.025253
  0
VERTEX
  8
0
 10
1892.200099
 20
1173.500000
 42
0.004239
  0
VERTEX
  8
0
 10
1912.867395
 20
1211.924438
 42
0.004992
  0
VERTEX
  8
0
 10
1931.761934
 20
1248.662993
 42
0.004708
  0
VERTEX
  8
0
 10
1950.806828
 20
1287.529771
 42
0.003117
  0
VERTEX
  8
0
 10
1971.976206
 20
1332.500000
 42
0.004217
  0
VERTEX
  8
0
 10
1980.253277
 20
1350.773866
 42
0.004263
  0
VERTEX
  8
0
 10
1988.190157
 20
1369.118233
 42
0.004367
  0
VERTEX
  8
0
 10
1994.904437
 20
1385.402441
 42
0.013382
  0
VERTEX
  8
0
 10
1999.060266
 20
1396.592961
 42
-0.013228
  0
VERTEX
  8
0
 10
2015.692945
 20
1441.422561
 42
-0.008431
  0
VERTEX
  8
0
 10
2037.282117
 20
1492.686756
 42
-0.006659
  0
VERTEX
  8
0
 10
2065.722921
 20
1554.901865
 42
-0.003168
  0
VERTEX
  8
0
 10
2103.898551
 20
1634.250000
 42
-0.001271
  0
VERTEX
  8
0
 10
2108.191070
 20
1642.972936
 42
-0.002099
  0
VERTEX
  8
0
 10
2111.866827
 20
1650.317188
 42
-0.000198
  0
VERTEX
  8
0
 10
2115.180290
 20
1656.862293
 42
-0.282625
  0
VERTEX
  8
0
 10
2115.404451
 20
1657.000000
 42
-0.474925
  0
VERTEX
  8
0
 10
2115.522948
 20
1656.854665
 42
-0.001571
  0
VERTEX
  8
0
 10
2114.985807
 20
1654.282813
 42
-0.006162
  0
VERTEX
  8
0
 10
2114.313906
 20
1651.297216
 42
-0.003643
  0
VERTEX
  8
0
 10
2113.442202
 20
1647.750000
 42
0.006294
  0
VERTEX
  8
0
 10
2109.659369
 20
1631.996607
 42
0.002101
  0
VERTEX
  8
0
 10
2104.512705
 20
1608.859277
 42
0.002130
  0
VERTEX
  8
0
 10
2099.163513
 20
1583.813282
 42
0.002872
  0
VERTEX
  8
0
 10
2094.549919
 20
1561.101479
 42
0.008737
  0
VERTEX
  8
0
 10
2082.092911
 20
1491.536833
 42
0.009406
  0
VERTEX
  8
0
 10
2072.409148
 20
1423.268262
 42
0.009527
  0
VERTEX
  8
0
 10
2065.402906
 20
1355.515800
 42
0.009507
  0
VERTEX
  8
0
 10
2060.977286
 20
1287.500000
 42
0.008889
  0
VERTEX
  8
0
 10
2060.330360
 20
1264.552730
 42
0.001569
  0
VERTEX
  8
0
 10
2060.017219
 20
1221.473256
 42
0.000984
  0
VERTEX
  8
0
 10
2059.921431
 20
1177.162898
 42
0.020818
  0
VERTEX
  8
0
 10
2060.467180
 20
1164.000000
 42
-0.005883
  0
VERTEX
  8
0
 10
2060.679798
 20
1161.023129
 42
-0.001465
  0
VERTEX
  8
0
 10
2060.955943
 20
1156.150000
 42
-0.001497
  0
VERTEX
  8
0
 10
2061.238893
 20
1150.571875
 42
-0.001504
  0
VERTEX
  8
0
 10
2061.488007
 20
1145.000000
 42
0.021241
  0
VERTEX
  8
0
 10
2070.455080
 20
1038.687369
 42
0.019434
  0
VERTEX
  8
0
 10
2088.559661
 20
930.285307
 42
0.019871
  0
VERTEX
  8
0
 10
2114.415347
 20
826.468608
 42
0.025880
  0
VERTEX
  8
0
 10
2146.664682
 20
734.000000
 42
0.013995
  0
VERTEX
  8
0
 10
2171.279296
 20
678.178803
 42
0.015579
  0
VERTEX
  8
0
 10
2198.171070
 20
625.817077
 42
0.016189
  0
VERTEX
  8
0
 10
2227.197243
 20
577.171567
 42
0.018291
  0
VERTEX
  8
0
 10
2258.215637
 20
532.500000
 42
0.011620
  0
VERTEX
  8
0
 10
2276.346673
 20
509.461248
 42
0.011888
  0
VERTEX
  8
0
 10
2295.395005
 20
487.467870
 42
0.011313
  0
VERTEX
  8
0
 10
2316.334632
 20
465.443783
 42
0.008665
  0
VERTEX
  8
0
 10
2340.170328
 20
442.299572
 42
0.005811
  0
VERTEX
  8
0
 10
2365.909274
 20
418.715839
 42
0.011356
  0
VERTEX
  8
0
 10
2387.054786
 20
400.636176
 42
0.014015
  0
VERTEX
  8
0
 10
2405.375734
 20
386.515066
 42
0.020626
  0
VERTEX
  8
0
 10
2422.288979
 20
375.254660
 42
0.027416
  0
VERTEX
  8
0
 10
2464.369932
 20
352.737784
 42
0.027468
  0
VERTEX
  8
0
 10
2508.636147
 20
334.976187
 42
0.027418
  0
VERTEX
  8
0
 10
2554.661789
 20
322.147246
 42
0.027090
  0
VERTEX
  8
0
 10
2602.000000
 20
314.369540
 42
0.018361
  0
VERTEX
  8
0
 10
2618.793056
 20
313.158988
 42
0.007184
  0
VERTEX
  8
0
 10
2642.031024
 20
312.673777
 42
0.007142
  0
VERTEX
  8
0
 10
2665.168407
 20
312.853668
 42
0.019500
  0
VERTEX
  8
0
 10
2681.500000
 20
313.852028
 42
0.010824
  0
VERTEX
  8
0
 10
2703.531474
 20
316.546492
 42
0.010353
  0
VERTEX
  8
0
 10
2725.755858
 20
320.225433
 42
0.010532
  0
VERTEX
  8
0
 10
2747.388751
 20
324.741828
 42
0.012428
  0
VERTEX
  8
0
 10
2767.640810
 20
329.950521
 42
0.014730
  0
VERTEX
  8
0
 10
2798.590366
 20
339.729889
 42
0.015016
  0
VERTEX
  8
0
 10
2828.709909
 20
351.257742
 42
0.015924
  0
VERTEX
  8
0
 10
2855.365287
 20
363.399001
 42
0.031646
  0
VERTEX
  8
0
 10
2875.467560
 20
374.976335
 42
0.048752
  0
VERTEX
  8
0
 10
2939.770385
 20
427.319376
 42
0.050878
  0
VERTEX
  8
0
 10
2991.699906
 20
490.434102
 42
0.051146
  0
VERTEX
  8
0
 10
3029.595748
 20
562.413720
 42
0.050276
  0
VERTEX
  8
0
 10
3052.358480
 20
641.000000
 42
0.008092
  0
VERTEX
  8
0
 10
3055.590219
 20
660.373974
 42
0.016682
  0
VERTEX
  8
0
 10
3057.364278
 20
675.633258
 42
0.015042
  0
VERTEX
  8
0
 10
3058.217824
 20
691.938884
 42
0.005418
  0
VERTEX
  8
0
 10
3058.482200
 20
715.166801
 42
-0.000447
  0
VERTEX
  8
0
 10
3058.500219
 20
727.681565
 42
-0.000752
  0
VERTEX
  8
0
 10
3058.540557
 20
738.188732
 42
-0.000033
  0
VERTEX
  8
0
 10
3058.591700
 20
747.641691
 42
-0.678500
  0
VERTEX
  8
0
 10
3058.655865
 20
747.666801
 42
-0.041157
  0
VERTEX
  8
0
 10
3058.769337
 20
747.523353
 42
-0.000051
  0
VERTEX
  8
0
 10
3060.803521
 20
744.464623
 42
-0.000460
  0
VERTEX
  8
0
 10
3063.077603
 20
741.037568
 42
-0.000283
  0
VERTEX
  8
0
 10
3065.748161
 20
737.000000
 42
0.012719
  0
VERTEX
  8
0
 10
3075.110819
 20
723.582283
 42
0.014301
  0
VERTEX
  8
0
 10
3084.798066
 20
711.184418
 42
0.013545
  0
VERTEX
  8
0
 10
3095.632708
 20
698.805275
 42
0.009467
  0
VERTEX
  8
0
 10
3108.477976
 20
685.424568
 42
0.008548
  0
VERTEX
  8
0
 10
3122.550403
 20
671.784934
 42
0.015142
  0
VERTEX
  8
0
 10
3134.673316
 20
661.100648
 42
0.015927
  0
VERTEX
  8
0
 10
3146.986188
 20
651.539242
 42
0.010781
  0
VERTEX
  8
0
 10
3161.582529
 20
641.405726
 42
0.029591
  0
VERTEX
  8
0
 10
3199.434199
 20
619.424046
 42
0.028824
  0
VERTEX
  8
0
 10
3239.943550
 20
601.849369
 42
0.027956
  0
VERTEX
  8
0
 10
3283.398812
 20
588.606454
 42
0.024421
  0
VERTEX
  8
0
 10
3330.062424
 20
579.580003
 42
0.008667
  0
VERTEX
  8
0
 10
3350.303265
 20
577.038478
 42
0.013915
  0
VERTEX
  8
0
 10
3367.645804
 20
575.652509
 42
0.012261
  0
VERTEX
  8
0
 10
3386.516217
 20
575.135361
 42
0.005103
  0
VERTEX
  8
0
 10
3412.000000
 20
575.322085
 42
0.003892
  0
VERTEX
  8
0
 10
3438.255997
 20
575.986925
 42
0.011645
  0
VERTEX
  8
0
 10
3456.186171
 20
576.999043
 42
0.013943
  0
VERTEX
  8
0
 10
3472.213221
 20
578.729584
 42
0.007919
  0
VERTEX
  8
0
 10
3491.500000
 20
581.669755
 42
0.033068
  0
VERTEX
  8
0
 10
3542.689333
 20
593.829860
 42
0.033294
  0
VERTEX
  8
0
 10
3591.708477
 20
612.611894
 42
0.033035
  0
VERTEX
  8
0
 10
3638.153587
 20
637.895295
 42
0.031467
  0
VERTEX
  8
0
 10
3681.663457
 20
669.450823
 42
0.016192
  0
VERTEX
  8
0
 10
3693.138147
 20
679.571235
 42
0.007124
  0
VERTEX
  8
0
 10
3707.683838
 20
693.658750
 42
0.007118
  0
VERTEX
  8
0
 10
3721.803743
 20
708.135690
 42
0.016438
  0
VERTEX
  8
0
 10
3731.888319
 20
719.500000
 42
0.022501
  0
VERTEX
  8
0
 10
3758.659658
 20
754.867108
 42
0.025518
  0
VERTEX
  8
0
 10
3780.959315
 20
791.082570
 42
0.025842
  0
VERTEX
  8
0
 10
3799.219555
 20
828.959275
 42
0.024293
  0
VERTEX
  8
0
 10
3813.897285
 20
869.297584
 42
0.013664
  0
VERTEX
  8
0
 10
3824.218005
 20
906.148588
 42
0.014015
  0
VERTEX
  8
0
 10
3832.414357
 20
943.199135
 42
0.013686
  0
VERTEX
  8
0
 10
3838.681957
 20
981.473195
 42
0.011776
  0
VERTEX
  8
0
 10
3843.215181
 20
1022.000000
 42
0.018829
  0
VERTEX
  8
0
 10
3844.544525
 20
1048.463722
 42
0.006431
  0
VERTEX
  8
0
 10
3844.532056
 20
1086.909751
 42
0.006468
  0
VERTEX
  8
0
 10
3843.524666
 20
1125.467077
 42
0.017957
  0
VERTEX
  8
0
 10
3841.494322
 20
1152.500000
 42
-0.000339
  0
VERTEX
  8
0
 10
3841.253829
 20
1154.673565
 42
-0.000082
  0
VERTEX
  8
0
 10
3840.859795
 20
1158.262500
 42
-0.000085
  0
VERTEX
  8
0
 10
3840.409326
 20
1162.378125
 42
-0.000084
  0
VERTEX
  8
0
 10
3839.959580
 20
1166.500000
 42
0.021412
  0
VERTEX
  8
0
 10
3830.831764
 20
1226.356052
 42
0.017288
  0
VERTEX
  8
0
 10
3816.086015
 20
1289.698706
 42
0.016825
  0
VERTEX
  8
0
 10
3796.466352
 20
1353.817941
 42
0.017178
  0
VERTEX
  8
0
 10
3772.700245
 20
1416.024077
 42
0.008797
  0
VERTEX
  8
0
 10
3760.349085
 20
1443.914593
 42
0.006296
  0
VERTEX
  8
0
 10
3745.599238
 20
1474.678583
 42
0.006290
  0
VERTEX
  8
0
 10
3730.054399
 20
1505.111181
 42
0.008684
  0
VERTEX
  8
0
 10
3715.288254
 20
1532.000000
 42
-0.001087
  0
VERTEX
  8
0
 10
3710.996018
 20
1539.542170
 42
-0.000854
  0
VERTEX
  8
0
 10
3706.374094
 20
1547.737500
 42
-0.000863
  0
VERTEX
  8
0
 10
3702.102091
 20
1555.373512
 42
-0.002124
  0
VERTEX
  8
0
 10
3698.998306
 20
1561.000000
 42
0.016580
  0
VERTEX
  8
0
 10
3651.114789
 20
1642.162958
 42
0.015599
  0
VERTEX
  8
0
 10
3597.020585
 20
1721.681572
 42
0.015213
  0
VERTEX
  8
0
 10
3536.668308
 20
1799.608602
 42
0.013983
  0
VERTEX
  8
0
 10
3470.022873
 20
1876.000000
 42
0.008480
  0
VERTEX
  8
0
 10
3449.748578
 20
1897.233595
 42
0.002213
  0
VERTEX
  8
0
 10
3416.462023
 20
1930.634992
 42
0.002233
  0
VERTEX
  8
0
 10
3382.815921
 20
1963.802049
 42
0.008112
  0
VERTEX
  8
0
 10
3361.000000
 20
1984.435032
 42
0.007517
  0
VERTEX
  8
0
 10
3306.348825
 20
2032.978513
 42
0.007989
  0
VERTEX
  8
0
 10
3251.346660
 20
2078.863299
 42
0.007736
  0
VERTEX
  8
0
 10
3193.307197
 20
2124.264511
 42
0.006207
  0
VERTEX
  8
0
 10
3129.500000
 20
2171.369933
 42
-0.001912
  0
VERTEX
  8
0
 10
3122.699343
 20
2176.300811
 42
-0.003555
  0
VERTEX
  8
0
 10
3117.228125
 20
2180.359775
 42
-0.001798
  0
VERTEX
  8
0
 10
3112.913431
 20
2183.632928
 42
-0.852692
  0
VERTEX
  8
0
 10
3113.000000
 20
2183.793717
 42
0.003724
  0
VERTEX
  8
0
 10
3114.171567
 20
2183.395357
 42
0.000021
  0
VERTEX
  8
0
 10
3125.221875
 20
2179.730100
 42
0.000091
  0
VERTEX
  8
0
 10
3137.825789
 20
2175.552666
 42
0.000058
  0
VERTEX
  8
0
 10
3152.500000
 20
2170.693894
 42
0.009162
  0
VERTEX
  8
0
 10
3249.028430
 20
2140.695668
 42
0.010691
  0
VERTEX
  8
0
 10
3341.770038
 20
2115.864994
 42
0.010960
  0
VERTEX
  8
0
 10
3433.379950
 20
2095.542305
 42
0.010710
  0
VERTEX
  8
0
 10
3526.500000
 20
2079.081136
 42
0.005243
  0
VERTEX
  8
0
 10
3539.219729
 20
2077.248919
 42
0.000911
  0
VERTEX
  8
0
 10
3563.289317
 20
2074.083680
 42
0.000880
  0
VERTEX
  8
0
 10
3587.371259
 20
2071.004533
 42
0.005737
  0
VERTEX
  8
0
 10
3599.500000
 20
2069.616607
 42
0.002199
  0
VERTEX
  8
0
 10
3630.684940
 20
2066.548575
 42
0.003722
  0
VERTEX
  8
0
 10
3656.835187
 20
2064.288151
 42
0.004296
  0
VERTEX
  8
0
 10
3679.999848
 20
2062.659516
 42
0.005031
  0
VERTEX
  8
0
 10
3702.000000
 20
2061.524651
 42
-0.001357
  0
VERTEX
  8
0
 10
3707.827470
 20
2061.266962
 42
-0.001048
  0
VERTEX
  8
0
 10
3714.178125
 20
2060.955521
 42
-0.001060
  0
VERTEX
  8
0
 10
3720.107627
 20
2060.639668
 42
-0.002544
  0
VERTEX
  8
0
 10
3724.500000
 20
2060.373938
 42
0.015223
  0
VERTEX
  8
0
 10
3739.038539
 20
2059.863885
 42
0.001176
  0
VERTEX
  8
0
 10
3778.064212
 20
2059.775163
 42
0.001425
  0
VERTEX
  8
0
 10
3816.643585
 20
2059.888143
 42
0.010576
  0
VERTEX
  8
0
 10
3835.000000
 20
2060.382600
 42
0.002463
  0
VERTEX
  8
0
 10
3873.951973
 20
2062.449254
 42
0.005659
  0
VERTEX
  8
0
 10
3903.241974
 20
2064.480867
 42
0.006381
  0
VERTEX
  8
0
 10
3930.256923
 20
2067.009576
 42
0.004111
  0
VERTEX
  8
0
 10
3961.500000
 20
2070.596813
 42
0.014622
  0
VERTEX
  8
0
 10
4039.403361
 20
2082.512718
 42
0.014762
  0
VERTEX
  8
0
 10
4116.228139
 20
2098.931163
 42
0.015243
  0
VERTEX
  8
0
 10
4189.286668
 20
2119.194067
 42
0.018879
  0
VERTEX
  8
0
 10
4255.858957
 20
2142.652465
 42
0.017473
  0
VERTEX
  8
0
 10
4324.765790
 20
2172.723362
 42
0.019210
  0
VERTEX
  8
0
 10
4389.211944
 20
2206.672635
 42
0.020246
  0
VERTEX
  8
0
 10
4447.415826
 20
2243.468128
 42
0.026057
  0
VERTEX
  8
0
 10
4497.550606
 20
2282.084454
 42
0.015265
  0
VERTEX
  8
0
 10
4524.706946
 20
2306.829101
 42
0.009819
  0
VERTEX
  8
0
 10
4554.722966
 20
2337.069885
 42
0.009734
  0
VERTEX
  8
0
 10
4584.009998
 20
2368.979858
 42
0.013358
  0
VERTEX
  8
0
 10
4609.000000
 20
2398.867888
 42
0.029619
  0
VERTEX
  8
0
 10
4620.356371
 20
2415.100949
 42
0.012278
  0
VERTEX
  8
0
 10
4633.823465
 20
2438.261999
 42
0.012291
  0
VERTEX
  8
0
 10
4646.731248
 20
2463.205346
 42
0.018760
  0
VERTEX
  8
0
 10
4656.565742
 20
2485.500000
 42
0.021368
  0
VERTEX
  8
0
 10
4670.352282
 20
2525.077858
 42
0.025035
  0
VERTEX
  8
0
 10
4679.893705
 20
2563.665025
 42
0.025287
  0
VERTEX
  8
0
 10
4685.461451
 20
2602.670832
 42
0.022660
  0
VERTEX
  8
0
 10
4687.337125
 20
2643.500000
 42
0.010787
  0
VERTEX
  8
0
 10
4686.838619
 20
2667.259242
 42
0.014113
  0
VERTEX
  8
0
 10
4685.302498
 20
2688.926686
 42
0.014186
  0
VERTEX
  8
0
 10
4682.554704
 20
2710.382739
 42
0.011089
  0
VERTEX
  8
0
 10
4678.397727
 20
2733.500000
 42
0.021942
  0
VERTEX
  8
0
 10
4668.848293
 20
2771.861619
 42
0.017945
  0
VERTEX
  8
0
 10
4655.398217
 20
2811.946296
 42
0.018429
  0
VERTEX
  8
0
 10
4640.102642
 20
2848.482019
 42
0.038139
  0
VERTEX
  8
0
 10
4625.019083
 20
2875.474907
 42
0.036802
  0
VERTEX
  8
0
 10
4586.679195
 20
2924.938195
 42
0.037822
  0
VERTEX
  8
0
 10
4541.826245
 20
2967.759765
 42
0.038135
  0
VERTEX
  8
0
 10
4491.408510
 20
3003.026948
 42
0.038795
  0
VERTEX
  8
0
 10
4436.500000
 20
3029.999484
 42
0.016209
  0
VERTEX
  8
0
 10
4411.513928
 20
3039.025021
 42
0.016392
  0
VERTEX
  8
0
 10
4386.088373
 20
3046.375932
 42
0.015976
  0
VERTEX
  8
0
 10
4359.619161
 20
3052.203627
 42
0.013786
  0
VERTEX
  8
0
 10
4331.500000
 20
3056.660518
 42
0.012387
  0
VERTEX
  8
0
 10
4322.902278
 20
3057.565305
 42
0.010209
  0
VERTEX
  8
0
 10
4313.696963
 20
3058.115141
 42
0.007295
  0
VERTEX
  8
0
 10
4301.954219
 20
3058.404681
 42
0.002460
  0
VERTEX
  8
0
 10
4284.833154
 20
3058.492729
 42
-0.000463
  0
VERTEX
  8
0
 10
4272.318376
 20
3058.507111
 42
-0.000779
  0
VERTEX
  8
0
 10
4261.811205
 20
3058.545288
 42
-0.000035
  0
VERTEX
  8
0
 10
4252.359824
 20
3058.595016
 42
-0.672210
  0
VERTEX
  8
0
 10
4252.333154
 20
3058.661442
 42
-0.046074
  0
VERTEX
  8
0
 10
4252.477550
 20
3058.777461
 42
-0.000072
  0
VERTEX
  8
0
 10
4255.241614
 20
3060.606733
 42
-0.000579
  0
VERTEX
  8
0
 10
4258.345884
 20
3062.655345
 42
-0.000358
  0
VERTEX
  8
0
 10
4262.000000
 20
3065.057003
 42
0.021723
  0
VERTEX
  8
0
 10
4283.045251
 20
3080.214496
 42
0.017932
  0
VERTEX
  8
0
 10
4304.132944
 20
3098.102092
 42
0.017935
  0
VERTEX
  8
0
 10
4323.880182
 20
3117.450713
 42
0.021758
  0
VERTEX
  8
0
 10
4340.895844
 20
3137.000000
 42
0.034390
  0
VERTEX
  8
0
 10
4367.849811
 20
3176.066086
 42
0.032169
  0
VERTEX
  8
0
 10
4389.868961
 20
3219.318795
 42
0.031124
  0
VERTEX
  8
0
 10
4406.774503
 20
3266.457760
 42
0.027807
  0
VERTEX
  8
0
 10
4418.453321
 20
3317.131261
 42
0.007726
  0
VERTEX
  8
0
 10
4421.786578
 20
3338.398753
 42
0.017363
  0
VERTEX
  8
0
 10
4423.502844
 20
3354.638655
 42
0.014215
  0
VERTEX
  8
0
 10
4424.268940
 20
3372.807873
 42
0.003715
  0
VERTEX
  8
0
 10
4424.452292
 20
3402.000000
 42
0.002216
  0
VERTEX
  8
0
 10
4424.351259
 20
3420.098841
 42
0.003574
  0
VERTEX
  8
0
 10
4424.086728
 20
3435.509644
 42
0.003817
  0
VERTEX
  8
0
 10
4423.693998
 20
3447.799223
 42
0.016983
  0
VERTEX
  8
0
 10
4423.163479
 20
3455.000000
 42
-0.000081
  0
VERTEX
  8
0
 10
4422.649525
 20
3459.769529
 42
-0.000079
  0
VERTEX
  8
0
 10
4422.131574
 20
3464.590625
 42
-0.000078
  0
VERTEX
  8
0
 10
4421.677120
 20
3468.833179
 42
-0.000290
  0
VERTEX
  8
0
 10
4421.393440
 20
3471.500000
 42
0.014520
  0
VERTEX
  8
0
 10
4420.040687
 20
3481.501906
 42
0.005785
  0
VERTEX
  8
0
 10
4417.630148
 20
3495.132153
 42
0.005802
  0
VERTEX
  8
0
 10
4414.752985
 20
3509.456937
 42
0.008558
  0
VERTEX
  8
0
 10
4411.867385
 20
3521.953482
 42
0.043237
  0
VERTEX
  8
0
 10
4389.686337
 20
3586.611612
 42
0.043120
  0
VERTEX
  8
0
 10
4356.699775
 20
3646.554003
 42
0.042746
  0
VERTEX
  8
0
 10
4313.614043
 20
3700.415408
 42
0.040978
  0
VERTEX
  8
0
 10
4261.424696
 20
3747.002573
 42
0.020401
  0
VERTEX
  8
0
 10
4234.244061
 20
3765.839727
 42
0.018693
  0
VERTEX
  8
0
 10
4204.829497
 20
3782.989711
 42
0.018908
  0
VERTEX
  8
0
 10
4174.605146
 20
3797.689173
 42
0.022409
  0
VERTEX
  8
0
 10
4145.000000
 20
3809.173317
 42
0.015306
  0
VERTEX
  8
0
 10
4107.118456
 20
3820.668537
 42
0.014033
  0
VERTEX
  8
0
 10
4067.496874
 20
3830.194528
 42
0.014143
  0
VERTEX
  8
0
 10
4027.751086
 20
3837.410533
 42
0.016304
  0
VERTEX
  8
0
 10
3989.500000
 20
3841.972697
 42
-0.001073
  0
VERTEX
  8
0
 10
3984.229602
 20
3842.439014
 42
-0.001193
  0
VERTEX
  8
0
 10
3979.143750
 20
3842.912245
 42
-0.001102
  0
VERTEX
  8
0
 10
3974.807856
 20
3843.335773
 42
-0.006235
  0
VERTEX
  8
0
 10
3972.500000
 20
3843.595442
 42
0.029006
  0
VERTEX
  8
0
 10
3962.623995
 20
3844.253350
 42
0.001207
  0
VERTEX
  8
0
 10
3927.272936
 20
3844.469305
 42
0.001808
  0
VERTEX
  8
0
 10
3892.963896
 20
3844.471948
 42
0.015219
  0
VERTEX
  8
0
 10
3877.500000
 20
3843.946364
 42
0.023946
  0
VERTEX
  8
0
 10
3798.531245
 20
3835.041336
 42
0.022721
  0
VERTEX
  8
0
 10
3719.359807
 20
3818.529627
 42
0.022210
  0
VERTEX
  8
0
 10
3640.258497
 20
3794.454003
 42
0.020561
  0
VERTEX
  8
0
 10
3561.500000
 20
3762.906932
 42
0.008158
  0
VERTEX
  8
0
 10
3542.909289
 20
3754.190738
 42
0.003302
  0
VERTEX
  8
0
 10
3517.840189
 20
3741.728542
 42
0.003286
  0
VERTEX
  8
0
 10
3493.049584
 20
3728.994725
 42
0.008644
  0
VERTEX
  8
0
 10
3475.500000
 20
3719.444452
 42
-0.000882
  0
VERTEX
  8
0
 10
3467.864932
 20
3715.134601
 42
-0.000557
  0
VERTEX
  8
0
 10
3458.940625
 20
3710.130810
 42
-0.000559
  0
VERTEX
  8
0
 10
3450.158033
 20
3705.232213
 42
-0.001030
  0
VERTEX
  8
0
 10
3443.000000
 20
3701.269504
 42
0.014975
  0
VERTEX
  8
0
 10
3358.118338
 20
3651.136754
 42
0.015954
  0
VERTEX
  8
0
 10
3278.203559
 20
3597.008440
 42
0.015740
  0
VERTEX
  8
0
 10
3200.938452
 20
3537.199955
 42
0.013782
  0
VERTEX
  8
0
 10
3124.000000
 20
3470.022873
 42
0.008480
  0
VERTEX
  8
0
 10
3102.766405
 20
3449.748578
 42
0.002213
  0
VERTEX
  8
0
 10
3069.365008
 20
3416.462023
 42
0.002233
  0
VERTEX
  8
0
 10
3036.197951
 20
3382.815921
 42
0.008112
  0
VERTEX
  8
0
 10
3015.564968
 20
3361.000000
 42
0.007570
  0
VERTEX
  8
0
 10
2968.257634
 20
3307.729137
 42
0.007609
  0
VERTEX
  8
0
 10
2922.667457
 20
3253.140893
 42
0.007451
  0
VERTEX
  8
0
 10
2877.865066
 20
3196.087954
 42
0.006608
  0
VERTEX
  8
0
 10
2832.920021
 20
3135.416359
 42
-0.001447
  0
VERTEX
  8
0
 10
2826.345772
 20
3126.347532
 42
-0.002617
  0
VERTEX
  8
0
 10
2820.902649
 20
3118.966056
 42
-0.000965
  0
VERTEX
  8
0
 10
2816.371775
 20
3112.912959
 42
-0.855676
  0
VERTEX
  8
0
 10
2816.208293
 20
3113.000000
 42
0.005168
  0
VERTEX
  8
0
 10
2829.088914
 20
3151.395138
 42
0.003095
  0
VERTEX
  8
0
 10
2843.639268
 20
3197.267659
 42
0.003099
  0
VERTEX
  8
0
 10
2857.532447
 20
3243.027538
 42
0.005469
  0
VERTEX
  8
0
 10
2868.354206
 20
3281.000000
 42
0.009440
  0
VERTEX
  8
0
 10
2891.060105
 20
3370.742658
 42
0.011161
  0
VERTEX
  8
0
 10
2909.018131
 20
3456.420080
 42
0.011316
  0
VERTEX
  8
0
 10
2922.936299
 20
3541.765752
 42
0.010255
  0
VERTEX
  8
0
 10
2933.502243
 20
3630.500000
 42
0.005909
  0
VERTEX
  8
0
 10
2935.093324
 20
3648.914453
 42
0.002625
  0
VERTEX
  8
0
 10
2936.776817
 20
3673.230792
 42
0.002527
  0
VERTEX
  8
0
 10
2938.347791
 20
3699.908800
 42
0.002706
  0
VERTEX
  8
0
 10
2939.610367
 20
3726.000000
 42
0.009030
  0
VERTEX
  8
0
 10
2940.107331
 20
3745.968326
 42
0.001708
  0
VERTEX
  8
0
 10
2940.231558
 20
3782.416026
 42
0.001520
  0
VERTEX
  8
0
 10
2940.120384
 20
3818.912567
 42
0.012121
  0
VERTEX
  8
0
 10
2939.609631
 20
3835.749848
 42
-0.000494
  0
VERTEX
  8
0
 10
2939.334983
 20
3840.871144
 42
-0.000290
  0
VERTEX
  8
0
 10
2939.015947
 20
3846.999785
 42
-0.000290
  0
VERTEX
  8
0
 10
2938.704034
 20
3853.128475
 42
-0.000494
  0
VERTEX
  8
0
 10
2938.451439
 20
3858.249848
 42
0.019744
  0
VERTEX
  8
0
 10
2929.088672
 20
3964.641730
 42
0.019301
  0
VERTEX
  8
0
 10
2911.321664
 20
4070.780508
 42
0.019872
  0
VERTEX
  8
0
 10
2886.150818
 20
4171.801230
 42
0.025077
  0
VERTEX
  8
0
 10
2854.569818
 20
4262.790119
 42
0.013754
  0
VERTEX
  8
0
 10
2829.477680
 20
4320.250474
 42
0.016166
  0
VERTEX
  8
0
 10
2802.490371
 20
4373.173821
 42
0.016872
  0
VERTEX
  8
0
 10
2773.281418
 20
4422.164536
 42
0.018198
  0
VERTEX
  8
0
 10
2741.523360
 20
4467.820445
 42
0.011550
  0
VERTEX
  8
0
 10
2723.402771
 20
4490.822052
 42
0.011863
  0
VERTEX
  8
0
 10
2704.395692
 20
4512.753756
 42
0.011310
  0
VERTEX
  8
0
 10
2683.536300
 20
4534.681895
 42
0.008705
  0
VERTEX
  8
0
 10
2659.829672
 20
4557.685171
 42
0.008147
  0
VERTEX
  8
0
 10
2625.344890
 20
4588.960931
 42
0.020574
  0
VERTEX
  8
0
 10
2598.992724
 20
4610.236219
 42
0.024924
  0
VERTEX
  8
0
 10
2574.182096
 20
4626.784593
 42
0.018544
  0
VERTEX
  8
0
 10
2545.305747
 20
4642.608755
 42
0.032388
  0
VERTEX
  8
0
 10
2495.536356
 20
4663.619762
 42
0.030819
  0
VERTEX
  8
0
 10
2442.644940
 20
4678.434382
 42
0.031188
  0
VERTEX
  8
0
 10
2389.004105
 20
4686.493214
 42
0.035359
  0
SEQEND
  0
ENDSEC
  0
EOF
