<?xml version="1.0" encoding="UTF-8"?>
<svg xmlns="http://www.w3.org/2000/svg" width="800.000" height="600.000" viewBox="0.0 0.0 800.000 600.000" version="1.1">
  <title>Produce by Acme CAD Converter</title>
  <desc>Produce by Acme CAD Converter</desc>
<path d="M101.7 1.7L698.3 1.7"
fill="none" stroke="black" stroke-width="0.5"/>
<path d="M101.7 1.7L101.7 598.3"
fill="none" stroke="black" stroke-width="0.5"/>
<path d="M101.7 598.3L698.3 598.3"
fill="none" stroke="black" stroke-width="0.5"/>
<path d="M698.3 1.7L698.3 598.3"
fill="none" stroke="black" stroke-width="0.5"/>
<path d="M400 491.21L400 491.21"
fill="none" stroke="black" stroke-width="0.5"/>
<path d="M380.21 484.87L380.21 484.87"
fill="none" stroke="black" stroke-width="0.5"/>
<path d="M361.6 475.49L361.6 475.49"
fill="none" stroke="black" stroke-width="0.5"/>
<path d="M343.87 464.52L343.87 464.52"
fill="none" stroke="black" stroke-width="0.5"/>
<path d="M327 452.27L327 452.27"
fill="none" stroke="black" stroke-width="0.5"/>
<path d="M311.03 438.87L311.03 438.87"
fill="none" stroke="black" stroke-width="0.5"/>
<path d="M296.04 424.38L296.04 424.38"
fill="none" stroke="black" stroke-width="0.5"/>
<path d="M282.13 408.86L282.13 408.86"
fill="none" stroke="black" stroke-width="0.5"/>
<path d="M269.38 392.36L269.38 392.36"
fill="none" stroke="black" stroke-width="0.5"/>
<path d="M257.91 374.96L257.91 374.96"
fill="none" stroke="black" stroke-width="0.5"/>
<path d="M247.81 356.72L247.81 356.72"
fill="none" stroke="black" stroke-width="0.5"/>
<path d="M239.18 337.74L239.18 337.74"
fill="none" stroke="black" stroke-width="0.5"/>
<path d="M232.07 318.14L232.07 318.14"
fill="none" stroke="black" stroke-width="0.5"/>
<path d="M226.64 298.02L226.64 298.02"
fill="none" stroke="black" stroke-width="0.5"/>
<path d="M223.01 277.5L223.01 277.5"
fill="none" stroke="black" stroke-width="0.5"/>
<path d="M221.32 256.72L221.32 256.72"
fill="none" stroke="black" stroke-width="0.5"/>
<path d="M221.68 235.89L221.68 235.89"
fill="none" stroke="black" stroke-width="0.5"/>
<path d="M224.35 215.21L224.35 215.21"
fill="none" stroke="black" stroke-width="0.5"/>
<path d="M229.71 195.08L229.71 195.08"
fill="none" stroke="black" stroke-width="0.5"/>
<path d="M238.21 176.07L238.21 176.07"
fill="none" stroke="black" stroke-width="0.5"/>
<path d="M250.14 159.02L250.14 159.02"
fill="none" stroke="black" stroke-width="0.5"/>
<path d="M265.18 144.62L265.18 144.62"
fill="none" stroke="black" stroke-width="0.5"/>
<path d="M282.7 133.37L282.7 133.37"
fill="none" stroke="black" stroke-width="0.5"/>
<path d="M302.13 125.9L302.13 125.9"
fill="none" stroke="black" stroke-width="0.5"/>
<path d="M322.72 123.01L322.72 123.01"
fill="none" stroke="black" stroke-width="0.5"/>
<path d="M343.36 125.51L343.36 125.51"
fill="none" stroke="black" stroke-width="0.5"/>
<path d="M362.44 133.75L362.44 133.75"
fill="none" stroke="black" stroke-width="0.5"/>
<path d="M378.48 146.96L378.48 146.96"
fill="none" stroke="black" stroke-width="0.5"/>
<path d="M390.92 163.65L390.92 163.65"
fill="none" stroke="black" stroke-width="0.5"/>
<path d="M400 182.39L400 182.39"
fill="none" stroke="black" stroke-width="0.5"/>
<path d="M409.08 163.65L409.08 163.65"
fill="none" stroke="black" stroke-width="0.5"/>
<path d="M421.52 146.96L421.52 146.96"
fill="none" stroke="black" stroke-width="0.5"/>
<path d="M437.56 133.75L437.56 133.75"
fill="none" stroke="black" stroke-width="0.5"/>
<path d="M456.64 125.51L456.64 125.51"
fill="none" stroke="black" stroke-width="0.5"/>
<path d="M477.28 123.01L477.28 123.01"
fill="none" stroke="black" stroke-width="0.5"/>
<path d="M497.87 125.9L497.87 125.9"
fill="none" stroke="black" stroke-width="0.5"/>
<path d="M517.3 133.37L517.3 133.37"
fill="none" stroke="black" stroke-width="0.5"/>
<path d="M534.82 144.62L534.82 144.62"
fill="none" stroke="black" stroke-width="0.5"/>
<path d="M549.86 159.02L549.86 159.02"
fill="none" stroke="black" stroke-width="0.5"/>
<path d="M561.79 176.07L561.79 176.07"
fill="none" stroke="black" stroke-width="0.5"/>
<path d="M570.29 195.08L570.29 195.08"
fill="none" stroke="black" stroke-width="0.5"/>
<path d="M575.65 215.21L575.65 215.21"
fill="none" stroke="black" stroke-width="0.5"/>
<path d="M578.32 235.89L578.32 235.89"
fill="none" stroke="black" stroke-width="0.5"/>
<path d="M578.68 256.72L578.68 256.72"
fill="none" stroke="black" stroke-width="0.5"/>
<path d="M576.99 277.5L576.99 277.5"
fill="none" stroke="black" stroke-width="0.5"/>
<path d="M573.36 298.02L573.36 298.02"
fill="none" stroke="black" stroke-width="0.5"/>
<path d="M567.93 318.14L567.93 318.14"
fill="none" stroke="black" stroke-width="0.5"/>
<path d="M560.82 337.74L560.82 337.74"
fill="none" stroke="black" stroke-width="0.5"/>
<path d="M552.19 356.72L552.19 356.72"
fill="none" stroke="black" stroke-width="0.5"/>
<path d="M542.09 374.96L542.09 374.96"
fill="none" stroke="black" stroke-width="0.5"/>
<path d="M530.62 392.36L530.62 392.36"
fill="none" stroke="black" stroke-width="0.5"/>
<path d="M517.87 408.86L517.87 408.86"
fill="none" stroke="black" stroke-width="0.5"/>
<path d="M503.96 424.38L503.96 424.38"
fill="none" stroke="black" stroke-width="0.5"/>
<path d="M488.97 438.87L488.97 438.87"
fill="none" stroke="black" stroke-width="0.5"/>
<path d="M473 452.27L473 452.27"
fill="none" stroke="black" stroke-width="0.5"/>
<path d="M456.13 464.52L456.13 464.52"
fill="none" stroke="black" stroke-width="0.5"/>
<path d="M438.4 475.49L438.4 475.49"
fill="none" stroke="black" stroke-width="0.5"/>
<path d="M419.79 484.87L419.79 484.87"
fill="none" stroke="black" stroke-width="0.5"/>
</svg>
