  0
SECTION
  2
HEADER
  9
$ACADVER
  1
AC1006
  9
$EXTMIN
 10
0.000000
 20
0.000000
 30
0.000000
  9
$EXTMAX
 10
50.000000
 20
50.000000
 30
0.000000
  0
ENDSEC
  0
SECTION
  2
ENTITIES
  0
POLYLINE
  8
0
 66
1
 70
1
  0
VERTEX
  8
0
 10
20.455057
 20
45.312200
 42
-0.071955
  0
VERTEX
  8
0
 10
19.582905
 20
44.660487
 42
-0.037492
  0
VERTEX
  8
0
 10
18.342544
 20
44.101919
 42
-0.036330
  0
VERTEX
  8
0
 10
16.957239
 20
43.710239
 42
-0.045800
  0
VERTEX
  8
0
 10
15.633628
 20
43.562200
 42
0.033796
  0
VERTEX
  8
0
 10
13.808654
 20
43.402266
 42
0.174147
  0
VERTEX
  8
0
 10
12.932234
 20
42.923687
 42
0.141920
  0
VERTEX
  8
0
 10
12.462692
 20
41.937064
 42
0.020023
  0
VERTEX
  8
0
 10
12.185407
 20
39.679077
 42
0.038336
  0
VERTEX
  8
0
 10
12.174260
 20
37.657572
 42
0.059116
  0
VERTEX
  8
0
 10
12.502678
 20
35.942655
 42
0.055867
  0
VERTEX
  8
0
 10
13.240906
 20
34.284788
 42
0.030273
  0
VERTEX
  8
0
 10
14.486298
 20
32.429077
 42
0.000000
  0
VERTEX
  8
0
 10
17.101783
 20
29.000000
 42
0.000000
  0
VERTEX
  8
0
 10
12.050891
 20
29.000000
 42
0.054007
  0
VERTEX
  8
0
 10
8.636202
 20
28.630087
 42
0.070602
  0
VERTEX
  8
0
 10
5.696929
 20
27.534501
 42
0.088695
  0
VERTEX
  8
0
 10
3.696423
 20
25.934281
 42
0.181759
  0
VERTEX
  8
0
 10
3.000000
 20
24.081787
 42
0.070430
  0
VERTEX
  8
0
 10
3.210461
 20
22.595086
 42
0.074830
  0
VERTEX
  8
0
 10
3.824515
 20
21.258423
 42
0.087017
  0
VERTEX
  8
0
 10
4.700827
 20
20.324561
 42
0.162299
  0
VERTEX
  8
0
 10
5.674376
 20
20.000000
 42
-0.104501
  0
VERTEX
  8
0
 10
6.281381
 20
19.871734
 42
-0.193046
  0
VERTEX
  8
0
 10
6.628050
 20
19.516293
 42
-0.133442
  0
VERTEX
  8
0
 10
6.705544
 20
18.905426
 42
-0.042075
  0
VERTEX
  8
0
 10
6.500000
 20
18.000000
 42
0.047189
  0
VERTEX
  8
0
 10
6.302844
 20
17.088532
 42
0.029688
  0
VERTEX
  8
0
 10
6.238155
 20
16.000000
 42
0.029688
  0
VERTEX
  8
0
 10
6.302844
 20
14.911468
 42
0.047189
  0
VERTEX
  8
0
 10
6.500000
 20
14.000000
 42
0.221079
  0
VERTEX
  8
0
 10
7.828118
 20
12.552720
 42
0.091059
  0
VERTEX
  8
0
 10
10.492737
 20
11.980508
 42
0.074242
  0
VERTEX
  8
0
 10
13.755209
 20
12.368263
 42
0.072851
  0
VERTEX
  8
0
 10
16.785183
 20
13.692234
 42
0.000000
  0
VERTEX
  8
0
 10
19.500000
 20
15.384468
 42
0.000000
  0
VERTEX
  8
0
 10
16.562909
 20
12.192234
 42
-0.030417
  0
VERTEX
  8
0
 10
14.993159
 20
10.681675
 42
-0.058354
  0
VERTEX
  8
0
 10
13.541932
 20
9.712533
 42
-0.066175
  0
VERTEX
  8
0
 10
12.036136
 20
9.179778
 42
-0.052022
  0
VERTEX
  8
0
 10
10.312909
 20
9.000000
 42
0.025111
  0
VERTEX
  8
0
 10
8.610085
 20
8.914428
 42
0.111133
  0
VERTEX
  8
0
 10
7.664114
 20
8.599075
 42
0.173633
  0
VERTEX
  8
0
 10
7.170524
 20
7.993447
 42
0.085201
  0
VERTEX
  8
0
 10
7.000000
 20
7.000000
 42
0.075043
  0
VERTEX
  8
0
 10
7.139910
 20
6.073055
 42
0.146066
  0
VERTEX
  8
0
 10
7.552277
 20
5.456764
 42
0.125242
  0
VERTEX
  8
0
 10
8.286784
 20
5.109323
 42
0.048200
  0
VERTEX
  8
0
 10
9.418213
 20
5.000000
 42
0.052466
  0
VERTEX
  8
0
 10
12.122604
 20
5.284560
 42
0.095826
  0
VERTEX
  8
0
 10
14.158289
 20
6.147012
 42
0.077934
  0
VERTEX
  8
0
 10
15.989892
 20
7.844327
 42
0.025682
  0
VERTEX
  8
0
 10
18.118781
 20
10.848350
 42
0.000000
  0
VERTEX
  8
0
 10
21.000000
 20
15.391561
 42
0.000000
  0
VERTEX
  8
0
 10
21.000000
 20
11.195781
 42
0.085827
  0
VERTEX
  8
0
 10
21.736917
 20
6.934364
 42
0.145369
  0
VERTEX
  8
0
 10
23.857252
 20
4.033496
 42
0.198985
  0
VERTEX
  8
0
 10
26.706878
 20
3.281363
 42
0.164103
  0
VERTEX
  8
0
 10
29.544943
 20
4.687800
 42
-0.071955
  0
VERTEX
  8
0
 10
30.417095
 20
5.339513
 42
-0.037492
  0
VERTEX
  8
0
 10
31.657456
 20
5.898081
 42
-0.036330
  0
VERTEX
  8
0
 10
33.042761
 20
6.289761
 42
-0.045800
  0
VERTEX
  8
0
 10
34.366372
 20
6.437800
 42
0.033796
  0
VERTEX
  8
0
 10
36.191346
 20
6.597734
 42
0.174147
  0
VERTEX
  8
0
 10
37.067766
 20
7.076313
 42
0.141920
  0
VERTEX
  8
0
 10
37.537308
 20
8.062936
 42
0.020023
  0
VERTEX
  8
0
 10
37.814593
 20
10.320923
 42
0.038336
  0
VERTEX
  8
0
 10
37.825740
 20
12.342428
 42
0.059116
  0
VERTEX
  8
0
 10
37.497322
 20
14.057345
 42
0.055867
  0
VERTEX
  8
0
 10
36.759094
 20
15.715212
 42
0.030273
  0
VERTEX
  8
0
 10
35.513702
 20
17.570923
 42
0.000000
  0
VERTEX
  8
0
 10
32.898217
 20
21.000000
 42
0.000000
  0
VERTEX
  8
0
 10
37.949109
 20
21.000000
 42
0.054007
  0
VERTEX
  8
0
 10
41.363798
 20
21.369913
 42
0.070602
  0
VERTEX
  8
0
 10
44.303071
 20
22.465499
 42
0.088695
  0
VERTEX
  8
0
 10
46.303577
 20
24.065719
 42
0.181759
  0
VERTEX
  8
0
 10
47.000000
 20
25.918213
 42
0.069477
  0
VERTEX
  8
0
 10
46.799576
 20
27.353628
 42
0.066826
  0
VERTEX
  8
0
 10
46.212961
 20
28.699936
 42
0.076618
  0
VERTEX
  8
0
 10
45.398231
 20
29.672525
 42
0.182113
  0
VERTEX
  8
0
 10
44.528949
 20
30.000000
 42
-0.229235
  0
VERTEX
  8
0
 10
44.004604
 20
30.253730
 42
-0.093665
  0
VERTEX
  8
0
 10
43.627674
 20
30.973095
 42
-0.057667
  0
VERTEX
  8
0
 10
43.414102
 20
32.142439
 42
-0.023968
  0
VERTEX
  8
0
 10
43.385937
 20
33.750000
 42
0.020174
  0
VERTEX
  8
0
 10
43.362710
 20
36.087611
 42
0.174005
  0
VERTEX
  8
0
 10
42.967770
 20
37.035341
 42
0.169893
  0
VERTEX
  8
0
 10
42.055603
 20
37.527548
 42
0.019028
  0
VERTEX
  8
0
 10
39.679077
 20
37.814593
 42
0.038336
  0
VERTEX
  8
0
 10
37.657572
 20
37.825740
 42
0.059116
  0
VERTEX
  8
0
 10
35.942655
 20
37.497322
 42
0.055867
  0
VERTEX
  8
0
 10
34.284788
 20
36.759094
 42
0.030273
  0
VERTEX
  8
0
 10
32.429077
 20
35.513702
 42
0.000000
  0
VERTEX
  8
0
 10
29.000000
 20
32.898217
 42
0.000000
  0
VERTEX
  8
0
 10
29.000000
 20
37.949109
 42
0.072056
  0
VERTEX
  8
0
 10
28.303800
 20
42.754980
 42
0.143939
  0
VERTEX
  8
0
 10
26.237791
 20
45.952556
 42
0.216354
  0
VERTEX
  8
0
 10
23.401498
 20
46.783836
 42
0.162498
  0
SEQEND
  0
ENDSEC
  0
EOF
