  0
SECTION
  2
HEADER
  9
$ACADVER
  1
AC1006
  9
$EXTMIN
 10
0.000000
 20
0.000000
 30
0.000000
  9
$EXTMAX
 10
500.000000
 20
500.000000
 30
0.000000
  0
ENDSEC
  0
SECTION
  2
ENTITIES
  0
POLYLINE
  8
0
 66
1
 70
1
  0
VERTEX
  8
0
 10
227.500000
 20
467.977989
 42
0.061899
  0
VERTEX
  8
0
 10
216.141496
 20
464.192099
 42
0.074931
  0
VERTEX
  8
0
 10
206.847810
 20
457.902590
 42
0.076200
  0
VERTEX
  8
0
 10
199.934718
 20
449.250860
 42
0.066927
  0
VERTEX
  8
0
 10
195.552001
 20
438.539901
 42
0.011665
  0
VERTEX
  8
0
 10
194.957844
 20
436.018382
 42
0.010364
  0
VERTEX
  8
0
 10
194.455900
 20
433.370736
 42
0.010462
  0
VERTEX
  8
0
 10
194.103541
 20
430.969613
 42
0.031206
  0
VERTEX
  8
0
 10
194.000000
 20
429.312244
 42
0.000000
  0
VERTEX
  8
0
 10
194.000000
 20
426.044686
 42
0.000000
  0
VERTEX
  8
0
 10
189.872578
 20
430.522411
 42
0.073033
  0
VERTEX
  8
0
 10
182.802049
 20
436.243323
 42
0.058482
  0
VERTEX
  8
0
 10
173.838750
 20
440.220744
 42
0.055253
  0
VERTEX
  8
0
 10
163.674657
 20
442.179885
 42
0.051278
  0
VERTEX
  8
0
 10
153.062760
 20
441.941671
 42
0.076466
  0
VERTEX
  8
0
 10
140.730608
 20
438.428243
 42
0.080313
  0
VERTEX
  8
0
 10
130.255282
 20
431.407397
 42
0.078543
  0
VERTEX
  8
0
 10
122.350468
 20
421.290994
 42
0.068854
  0
VERTEX
  8
0
 10
117.507643
 20
408.769157
 42
0.039963
  0
VERTEX
  8
0
 10
116.325943
 20
401.037164
 42
0.021334
  0
VERTEX
  8
0
 10
116.044252
 20
391.364655
 42
0.021239
  0
VERTEX
  8
0
 10
116.595599
 20
381.532721
 42
0.034216
  0
VERTEX
  8
0
 10
117.988665
 20
373.263444
 42
0.055563
  0
VERTEX
  8
0
 10
125.497208
 20
352.455859
 42
0.039341
  0
VERTEX
  8
0
 10
138.188768
 20
331.088182
 42
0.036757
  0
VERTEX
  8
0
 10
155.162938
 20
310.441599
 42
0.033391
  0
VERTEX
  8
0
 10
175.500000
 20
291.779749
 42
-0.000775
  0
VERTEX
  8
0
 10
184.423596
 20
284.603909
 42
-0.038870
  0
VERTEX
  8
0
 10
186.060735
 20
283.058723
 42
-0.743552
  0
VERTEX
  8
0
 10
185.818523
 20
282.656605
 42
-0.023099
  0
VERTEX
  8
0
 10
182.990491
 20
283.519824
 42
0.014813
  0
VERTEX
  8
0
 10
180.507812
 20
284.322818
 42
0.003453
  0
VERTEX
  8
0
 10
176.294082
 20
285.517586
 42
0.003558
  0
VERTEX
  8
0
 10
171.423520
 20
286.825097
 42
0.003483
  0
VERTEX
  8
0
 10
166.500000
 20
288.072775
 42
0.033184
  0
VERTEX
  8
0
 10
138.415777
 20
293.034800
 42
0.042631
  0
VERTEX
  8
0
 10
112.204056
 20
293.646321
 42
0.046142
  0
VERTEX
  8
0
 10
88.075064
 20
289.898243
 42
0.053000
  0
VERTEX
  8
0
 10
66.199400
 20
281.857811
 42
0.013363
  0
VERTEX
  8
0
 10
60.630418
 20
278.924121
 42
0.024329
  0
VERTEX
  8
0
 10
56.275810
 20
276.192653
 42
0.024205
  0
VERTEX
  8
0
 10
52.192483
 20
273.041383
 42
0.013074
  0
VERTEX
  8
0
 10
47.466389
 20
268.796427
 42
0.052796
  0
VERTEX
  8
0
 10
37.888864
 20
257.593493
 42
0.083638
  0
VERTEX
  8
0
 10
32.580121
 20
246.167872
 42
0.086384
  0
VERTEX
  8
0
 10
31.402735
 20
233.906439
 42
0.059995
  0
VERTEX
  8
0
 10
34.125279
 20
220.226950
 42
0.077032
  0
VERTEX
  8
0
 10
39.063333
 20
210.507266
 42
0.074007
  0
VERTEX
  8
0
 10
46.769154
 20
202.585307
 42
0.071674
  0
VERTEX
  8
0
 10
56.688293
 20
197.058014
 42
0.065377
  0
VERTEX
  8
0
 10
68.081525
 20
194.333690
 42
0.000000
  0
VERTEX
  8
0
 10
73.682250
 20
193.748299
 42
0.000000
  0
VERTEX
  8
0
 10
69.341058
 20
189.746727
 42
0.074201
  0
VERTEX
  8
0
 10
63.701217
 20
182.743173
 42
0.057925
  0
VERTEX
  8
0
 10
59.766269
 20
173.790309
 42
0.054655
  0
VERTEX
  8
0
 10
57.820884
 20
163.630087
 42
0.051267
  0
VERTEX
  8
0
 10
58.058329
 20
153.062760
 42
0.076466
  0
VERTEX
  8
0
 10
61.571757
 20
140.730608
 42
0.080313
  0
VERTEX
  8
0
 10
68.592603
 20
130.255282
 42
0.078543
  0
VERTEX
  8
0
 10
78.709006
 20
122.350468
 42
0.068854
  0
VERTEX
  8
0
 10
91.230843
 20
117.507643
 42
0.039963
  0
VERTEX
  8
0
 10
98.962836
 20
116.325943
 42
0.021334
  0
VERTEX
  8
0
 10
108.635345
 20
116.044252
 42
0.021239
  0
VERTEX
  8
0
 10
118.467279
 20
116.595599
 42
0.034216
  0
VERTEX
  8
0
 10
126.736556
 20
117.988665
 42
0.043729
  0
VERTEX
  8
0
 10
142.709036
 20
123.329763
 42
0.032887
  0
VERTEX
  8
0
 10
159.183626
 20
131.820082
 42
0.030641
  0
VERTEX
  8
0
 10
175.603014
 20
143.122563
 42
0.026334
  0
VERTEX
  8
0
 10
191.412392
 20
156.898930
 42
0.000000
  0
VERTEX
  8
0
 10
201.324784
 20
166.500000
 42
0.000000
  0
VERTEX
  8
0
 10
197.502365
 20
159.500000
 42
-0.027830
  0
VERTEX
  8
0
 10
185.938992
 20
140.868653
 42
-0.026757
  0
VERTEX
  8
0
 10
172.236028
 20
123.379428
 42
-0.028138
  0
VERTEX
  8
0
 10
157.740051
 20
108.560023
 42
-0.047042
  0
VERTEX
  8
0
 10
143.828371
 20
98.068450
 42
-0.026356
  0
VERTEX
  8
0
 10
135.072187
 20
93.291278
 42
-0.037973
  0
VERTEX
  8
0
 10
126.849382
 20
90.094102
 42
-0.039723
  0
VERTEX
  8
0
 10
118.531248
 20
88.273141
 42
-0.033085
  0
VERTEX
  8
0
 10
109.500000
 20
87.640241
 42
-0.022946
  0
VERTEX
  8
0
 10
101.728100
 20
87.967366
 42
-0.035542
  0
VERTEX
  8
0
 10
95.099269
 20
89.030355
 42
-0.035763
  0
VERTEX
  8
0
 10
88.717450
 20
91.015353
 42
-0.023612
  0
VERTEX
  8
0
 10
81.701089
 20
94.150890
 42
0.007681
  0
VERTEX
  8
0
 10
79.408956
 20
95.264107
 42
0.012248
  0
VERTEX
  8
0
 10
77.413129
 20
96.136925
 42
0.006125
  0
VERTEX
  8
0
 10
75.732167
 20
96.799599
 42
0.295329
  0
VERTEX
  8
0
 10
75.393759
 20
96.727093
 42
0.185256
  0
VERTEX
  8
0
 10
75.220823
 20
96.338839
 42
0.000362
  0
VERTEX
  8
0
 10
74.860892
 20
89.417830
 42
0.002475
  0
VERTEX
  8
0
 10
74.499158
 20
81.608101
 42
0.001523
  0
VERTEX
  8
0
 10
74.146865
 20
72.411617
 42
0.002676
  0
VERTEX
  8
0
 10
73.820538
 20
61.497537
 42
0.008235
  0
VERTEX
  8
0
 10
73.760913
 20
54.109709
 42
0.004749
  0
VERTEX
  8
0
 10
73.857714
 20
48.701698
 42
0.246345
  0
VERTEX
  8
0
 10
74.353436
 20
47.816436
 42
0.119882
  0
VERTEX
  8
0
 10
76.757314
 20
46.969787
 42
0.009209
  0
VERTEX
  8
0
 10
83.638914
 20
46.407054
 42
0.013712
  0
VERTEX
  8
0
 10
90.783876
 20
46.151497
 42
0.029161
  0
VERTEX
  8
0
 10
96.306461
 20
46.427721
 42
0.060660
  0
VERTEX
  8
0
 10
120.334397
 20
52.039817
 42
0.059774
  0
VERTEX
  8
0
 10
142.442605
 20
63.270838
 42
0.056071
  0
VERTEX
  8
0
 10
162.425492
 20
80.152126
 42
0.043358
  0
VERTEX
  8
0
 10
180.154365
 20
102.500000
 42
0.017233
  0
VERTEX
  8
0
 10
185.527722
 20
111.273488
 42
0.008418
  0
VERTEX
  8
0
 10
191.798305
 20
122.800229
 42
0.008346
  0
VERTEX
  8
0
 10
197.585279
 20
134.343784
 42
0.020618
  0
VERTEX
  8
0
 10
201.331643
 20
143.039953
 42
-0.012203
  0
VERTEX
  8
0
 10
204.114515
 20
149.810949
 42
-0.009752
  0
VERTEX
  8
0
 10
207.431224
 20
156.969789
 42
-0.011841
  0
VERTEX
  8
0
 10
210.111405
 20
162.155264
 42
-0.855499
  0
VERTEX
  8
0
 10
210.565314
 20
161.991993
 42
0.004957
  0
VERTEX
  8
0
 10
208.293269
 20
149.501497
 42
0.017696
  0
VERTEX
  8
0
 10
207.203154
 20
141.453507
 42
0.018816
  0
VERTEX
  8
0
 10
206.718509
 20
133.597852
 42
0.006163
  0
VERTEX
  8
0
 10
206.583262
 20
122.000000
 42
0.004635
  0
VERTEX
  8
0
 10
206.684499
 20
111.810819
 42
0.014769
  0
VERTEX
  8
0
 10
207.016068
 20
105.013609
 42
0.019436
  0
VERTEX
  8
0
 10
207.685929
 20
99.321559
 42
0.014296
  0
VERTEX
  8
0
 10
208.851882
 20
93.077467
 42
0.025388
  0
VERTEX
  8
0
 10
212.657212
 20
78.997431
 42
0.036756
  0
VERTEX
  8
0
 10
217.532462
 20
67.076187
 42
0.039144
  0
VERTEX
  8
0
 10
223.826441
 20
56.574589
 42
0.035206
  0
VERTEX
  8
0
 10
231.887477
 20
46.778977
 42
0.055945
  0
VERTEX
  8
0
 10
242.732154
 20
37.643233
 42
0.082677
  0
VERTEX
  8
0
 10
254.050418
 20
32.543637
 42
0.084067
  0
VERTEX
  8
0
 10
266.267576
 20
31.433675
 42
0.059863
  0
VERTEX
  8
0
 10
279.773050
 20
34.125279
 42
0.077032
  0
VERTEX
  8
0
 10
289.492734
 20
39.063333
 42
0.074007
  0
VERTEX
  8
0
 10
297.414693
 20
46.769154
 42
0.071674
  0
VERTEX
  8
0
 10
302.941986
 20
56.688293
 42
0.065377
  0
VERTEX
  8
0
 10
305.666310
 20
68.081525
 42
0.000000
  0
VERTEX
  8
0
 10
306.251701
 20
73.682250
 42
0.000000
  0
VERTEX
  8
0
 10
310.253273
 20
69.341058
 42
0.098115
  0
VERTEX
  8
0
 10
320.047031
 20
62.193076
 42
0.070359
  0
VERTEX
  8
0
 10
333.050488
 20
58.250433
 42
0.068302
  0
VERTEX
  8
0
 10
347.049578
 20
58.005272
 42
0.080842
  0
VERTEX
  8
0
 10
359.755398
 20
61.661830
 42
0.082848
  0
VERTEX
  8
0
 10
370.177734
 20
68.897694
 42
0.078909
  0
VERTEX
  8
0
 10
377.893302
 20
79.236340
 42
0.071004
  0
VERTEX
  8
0
 10
382.594947
 20
92.449571
 42
0.050477
  0
VERTEX
  8
0
 10
384.154499
 20
108.115967
 42
0.079451
  0
VERTEX
  8
0
 10
380.116795
 20
133.101545
 42
0.054712
  0
VERTEX
  8
0
 10
368.188601
 20
159.241251
 42
0.049276
  0
VERTEX
  8
0
 10
349.290026
 20
184.843084
 42
0.040202
  0
VERTEX
  8
0
 10
324.500000
 20
208.220251
 42
-0.000612
  0
VERTEX
  8
0
 10
320.604004
 20
211.351097
 42
-0.000890
  0
VERTEX
  8
0
 10
317.176816
 20
214.122193
 42
-0.000436
  0
VERTEX
  8
0
 10
314.269675
 20
216.485576
 42
-0.015515
  0
VERTEX
  8
0
 10
313.612565
 20
217.055533
 42
-0.744319
  0
VERTEX
  8
0
 10
313.701133
 20
217.236826
 42
-0.016560
  0
VERTEX
  8
0
 10
315.155873
 20
216.947286
 42
-0.013031
  0
VERTEX
  8
0
 10
317.337228
 20
216.377168
 42
-0.006214
  0
VERTEX
  8
0
 10
320.112565
 20
215.536474
 42
0.040630
  0
VERTEX
  8
0
 10
352.983480
 20
208.001281
 42
0.046986
  0
VERTEX
  8
0
 10
385.060585
 20
206.388865
 42
0.050999
  0
VERTEX
  8
0
 10
414.359782
 20
210.684829
 42
0.070178
  0
VERTEX
  8
0
 10
438.966005
 20
220.730995
 42
0.037012
  0
VERTEX
  8
0
 10
446.236528
 20
225.723595
 42
0.025500
  0
VERTEX
  8
0
 10
453.707254
 20
232.365233
 42
0.025755
  0
VERTEX
  8
0
 10
460.123740
 20
239.370042
 42
0.058699
  0
VERTEX
  8
0
 10
464.004777
 20
245.387477
 42
0.044102
  0
VERTEX
  8
0
 10
467.241024
 20
253.795635
 42
0.056295
  0
VERTEX
  8
0
 10
468.618758
 20
261.978765
 42
0.054586
  0
VERTEX
  8
0
 10
468.153997
 20
270.461222
 42
0.038144
  0
VERTEX
  8
0
 10
465.874721
 20
279.773050
 42
0.077032
  0
VERTEX
  8
0
 10
460.936667
 20
289.492734
 42
0.074007
  0
VERTEX
  8
0
 10
453.230846
 20
297.414693
 42
0.071674
  0
VERTEX
  8
0
 10
443.311707
 20
302.941986
 42
0.065377
  0
VERTEX
  8
0
 10
431.918475
 20
305.666310
 42
0.000000
  0
VERTEX
  8
0
 10
426.317750
 20
306.251701
 42
0.000000
  0
VERTEX
  8
0
 10
430.658942
 20
310.253273
 42
0.098115
  0
VERTEX
  8
0
 10
437.806924
 20
320.047031
 42
0.070359
  0
VERTEX
  8
0
 10
441.749567
 20
333.050488
 42
0.068302
  0
VERTEX
  8
0
 10
441.994728
 20
347.049578
 42
0.080842
  0
VERTEX
  8
0
 10
438.338170
 20
359.755398
 42
0.082063
  0
VERTEX
  8
0
 10
431.125437
 20
370.179088
 42
0.079763
  0
VERTEX
  8
0
 10
420.878675
 20
377.848812
 42
0.071417
  0
VERTEX
  8
0
 10
407.727132
 20
382.512259
 42
0.049285
  0
VERTEX
  8
0
 10
391.981877
 20
384.086926
 42
0.079535
  0
VERTEX
  8
0
 10
366.952711
 20
380.110669
 42
0.055107
  0
VERTEX
  8
0
 10
340.812908
 20
368.236541
 42
0.049564
  0
VERTEX
  8
0
 10
315.207882
 20
349.349577
 42
0.040147
  0
VERTEX
  8
0
 10
291.779749
 20
324.500000
 42
-0.000612
  0
VERTEX
  8
0
 10
288.648903
 20
320.604004
 42
-0.000890
  0
VERTEX
  8
0
 10
285.877807
 20
317.176816
 42
-0.000436
  0
VERTEX
  8
0
 10
283.514424
 20
314.269675
 42
-0.015515
  0
VERTEX
  8
0
 10
282.944467
 20
313.612565
 42
-0.744319
  0
VERTEX
  8
0
 10
282.763174
 20
313.701133
 42
-0.016560
  0
VERTEX
  8
0
 10
283.052714
 20
315.155873
 42
-0.013031
  0
VERTEX
  8
0
 10
283.622832
 20
317.337228
 42
-0.006214
  0
VERTEX
  8
0
 10
284.463526
 20
320.112565
 42
0.040630
  0
VERTEX
  8
0
 10
291.998719
 20
352.983480
 42
0.046986
  0
VERTEX
  8
0
 10
293.611135
 20
385.060585
 42
0.050999
  0
VERTEX
  8
0
 10
289.315171
 20
414.359782
 42
0.070178
  0
VERTEX
  8
0
 10
279.269005
 20
438.966005
 42
0.037003
  0
VERTEX
  8
0
 10
274.274207
 20
446.240018
 42
0.025535
  0
VERTEX
  8
0
 10
267.632835
 20
453.709967
 42
0.025794
  0
VERTEX
  8
0
 10
260.629171
 20
460.123122
 42
0.058802
  0
VERTEX
  8
0
 10
254.612523
 20
463.999737
 42
0.034652
  0
VERTEX
  8
0
 10
247.738855
 20
466.790072
 42
0.042689
  0
VERTEX
  8
0
 10
241.005584
 20
468.373853
 42
0.044162
  0
VERTEX
  8
0
 10
234.297495
 20
468.759484
 42
0.041836
  0
SEQEND
  0
ENDSEC
  0
EOF
