999
dxfrw 0.6.3
  0
SECTION
  2
HEADER
  9
$ACADVER
  1
AC1021
  9
$DWGCODEPAGE
  3
ANSI_1252
  9
$INSBASE
 10
0
 20
0
 30
0
  9
$EXTMIN
 10
-0.8139540463541743
 20
-0.7829629255978705
 30
0
  9
$EXTMAX
 10
468.676332261746
 20
468.7776092649258
 30
0
  9
$LIMMIN
 10
0
 20
0
  9
$LIMMAX
 10
420
 20
297
  9
$ORTHOMODE
 70
    0
  9
$REGENMODE
 70
    1
  9
$FILLMODE
 70
    1
  9
$QTEXTMODE
 70
    0
  9
$MIRRTEXT
 70
    0
  9
$LTSCALE
 40
1
  9
$ATTMODE
 70
    0
  9
$TEXTSIZE
 40
2.5
  9
$TRACEWID
 40
15.68
  9
$TEXTSTYLE
  7
STANDARD
  9
$CLAYER
  8
0
  9
$CELTYPE
  6
BYLAYER
  9
$CECOLOR
 62
  256
  9
$CELTSCALE
 40
1
  9
$DISPSILH
 70
    0
  9
$DIMSCALE
 40
2.5
  9
$DIMASZ
 40
2.5
  9
$DIMEXO
 40
0.625
  9
$DIMDLI
 40
3.75
  9
$DIMRND
 40
0
  9
$DIMDLE
 40
0
  9
$DIMEXE
 40
1.25
  9
$DIMTP
 40
0
  9
$DIMTM
 40
0
  9
$DIMTXT
 40
2.5
  9
$DIMCEN
 40
2.5
  9
$DIMTSZ
 40
0
  9
$DIMTOL
 70
    0
  9
$DIMLIM
 70
    0
  9
$DIMTIH
 70
    0
  9
$DIMTOH
 70
    0
  9
$DIMSE1
 70
    0
  9
$DIMSE2
 70
    0
  9
$DIMTAD
 70
    1
  9
$DIMZIN
 70
    8
  9
$DIMBLK
  1

  9
$DIMASO
 70
    1
  9
$DIMSHO
 70
    1
  9
$DIMPOST
  1

  9
$DIMAPOST
  1

  9
$DIMALT
 70
    0
  9
$DIMALTD
 70
    3
  9
$DIMALTF
 40
0.03937
  9
$DIMLFAC
 40
1
  9
$DIMTOFL
 70
    1
  9
$DIMTVP
 40
0
  9
$DIMTIX
 70
    0
  9
$DIMSOXD
 70
    0
  9
$DIMSAH
 70
    0
  9
$DIMBLK1
  1

  9
$DIMBLK2
  1

  9
$DIMSTYLE
  2
Standard
  9
$DIMCLRD
 70
    0
  9
$DIMCLRE
 70
    0
  9
$DIMCLRT
 70
    0
  9
$DIMTFAC
 40
1
  9
$DIMGAP
 40
0.625
  9
$DIMJUST
 70
    0
  9
$DIMSD1
 70
    0
  9
$DIMSD2
 70
    0
  9
$DIMTOLJ
 70
    0
  9
$DIMTZIN
 70
    8
  9
$DIMALTZ
 70
    0
  9
$DIMALTTZ
 70
    0
  9
$DIMUPT
 70
    0
  9
$DIMDEC
 70
    2
  9
$DIMTDEC
 70
    2
  9
$DIMALTU
 70
    2
  9
$DIMALTTD
 70
    3
  9
$DIMTXSTY
  7
STANDARD
  9
$DIMAUNIT
 70
    0
  9
$DIMADEC
 70
    0
  9
$DIMALTRND
 40
0
  9
$DIMAZIN
 70
    0
  9
$DIMDSEP
 70
   44
  9
$DIMATFIT
 70
    3
  9
$DIMFRAC
 70
    0
  9
$DIMLDRBLK
  1
STANDARD
  9
$DIMLUNIT
 70
    2
  9
$DIMLWD
 70
   -2
  9
$DIMLWE
 70
   -2
  9
$DIMTMOVE
 70
    0
  9
$DIMFXL
 40
1
  9
$DIMFXLON
 70
    0
  9
$DIMJOGANG
 40
0.7854
  9
$DIMTFILL
 70
    0
  9
$DIMTFILLCLR
 70
    0
  9
$DIMARCSYM
 70
    0
  9
$DIMLTYPE
  6

  9
$DIMLTEX1
  6

  9
$DIMLTEX2
  6

  9
$LUNITS
 70
    2
  9
$LUPREC
 70
    4
  9
$SKETCHINC
 40
1
  9
$FILLETRAD
 40
0
  9
$AUNITS
 70
    0
  9
$AUPREC
 70
    2
  9
$MENU
  1
.
  9
$ELEVATION
 40
0
  9
$PELEVATION
 40
0
  9
$THICKNESS
 40
0
  9
$LIMCHECK
 70
    0
  9
$CHAMFERA
 40
0
  9
$CHAMFERB
 40
0
  9
$CHAMFERC
 40
0
  9
$CHAMFERD
 40
0
  9
$SKPOLY
 70
    0
  9
$USRTIMER
 70
    1
  9
$ANGBASE
 50
0
  9
$ANGDIR
 70
    0
  9
$PDMODE
 70
   34
  9
$PDSIZE
 40
0
  9
$PLINEWID
 40
0
  9
$SPLFRAME
 70
    0
  9
$SPLINETYPE
 70
    2
  9
$SPLINESEGS
 70
    8
  9
$HANDSEED
  5
20000
  9
$SURFTAB1
 70
    6
  9
$SURFTAB2
 70
    6
  9
$SURFTYPE
 70
    6
  9
$SURFU
 70
    6
  9
$SURFV
 70
    6
  9
$UCSBASE
  2

  9
$UCSNAME
  2

  9
$UCSORG
 10
0
 20
0
 30
0
  9
$UCSXDIR
 10
1
 20
0
 30
0
  9
$UCSYDIR
 10
0
 20
1
 30
0
  9
$UCSORTHOREF
  2

  9
$UCSORTHOVIEW
 70
    0
  9
$UCSORGTOP
 10
0
 20
0
 30
0
  9
$UCSORGBOTTOM
 10
0
 20
0
 30
0
  9
$UCSORGLEFT
 10
0
 20
0
 30
0
  9
$UCSORGRIGHT
 10
0
 20
0
 30
0
  9
$UCSORGFRONT
 10
0
 20
0
 30
0
  9
$UCSORGBACK
 10
0
 20
0
 30
0
  9
$PUCSBASE
  2

  9
$PUCSNAME
  2

  9
$PUCSORG
 10
0
 20
0
 30
0
  9
$PUCSXDIR
 10
1
 20
0
 30
0
  9
$PUCSYDIR
 10
0
 20
1
 30
0
  9
$PUCSORTHOREF
  2

  9
$PUCSORTHOVIEW
 70
    0
  9
$PUCSORGTOP
 10
0
 20
0
 30
0
  9
$PUCSORGBOTTOM
 10
0
 20
0
 30
0
  9
$PUCSORGLEFT
 10
0
 20
0
 30
0
  9
$PUCSORGRIGHT
 10
0
 20
0
 30
0
  9
$PUCSORGFRONT
 10
0
 20
0
 30
0
  9
$PUCSORGBACK
 10
0
 20
0
 30
0
  9
$USERI1
 70
    0
  9
$USERI2
 70
    0
  9
$USERI3
 70
    0
  9
$USERI4
 70
    0
  9
$USERI5
 70
    0
  9
$USERR1
 40
0
  9
$USERR2
 40
0
  9
$USERR3
 40
0
  9
$USERR4
 40
0
  9
$USERR5
 40
0
  9
$WORLDVIEW
 70
    1
  9
$SHADEDGE
 70
    3
  9
$SHADEDIF
 70
   70
  9
$TILEMODE
 70
    1
  9
$MAXACTVP
 70
   64
  9
$PINSBASE
 10
0
 20
0
 30
0
  9
$PLIMCHECK
 70
    0
  9
$PEXTMIN
 10
0
 20
0
 30
0
  9
$PEXTMAX
 10
0
 20
0
 30
0
  9
$SNAPSTYLE
 70
    0
  9
$PLIMMIN
 10
0
 20
0
  9
$PLIMMAX
 10
210
 20
297
  9
$UNITMODE
 70
    0
  9
$VISRETAIN
 70
    1
  9
$PLINEGEN
 70
    0
  9
$PSLTSCALE
 70
    1
  9
$TREEDEPTH
 70
 3020
  9
$CMLSTYLE
  2
Standard
  9
$CMLJUST
 70
    0
  9
$CMLSCALE
 40
20
  9
$PROXYGRAPHICS
 70
    1
  9
$MEASUREMENT
 70
    1
  9
$CELWEIGHT
370
   -1
  9
$ENDCAPS
280
    0
  9
$JOINSTYLE
280
    0
  9
$LWDISPLAY
290
    0
  9
$INSUNITS
 70
    4
  9
$HYPERLINKBASE
  1

  9
$STYLESHEET
  1

  9
$XEDIT
290
    1
  9
$CEPSNTYPE
380
    0
  9
$PSTYLEMODE
290
    1
  9
$EXTNAMES
290
    1
  9
$PSVPSCALE
 40
1
  9
$OLESTARTUP
290
    0
  9
$SORTENTS
280
  127
  9
$INDEXCTL
280
    0
  9
$HIDETEXT
280
    1
  9
$XCLIPFRAME
290
    0
  9
$HALOGAP
280
    0
  9
$OBSCOLOR
 70
  257
  9
$OBSLTYPE
280
    0
  9
$INTERSECTIONDISPLAY
280
    0
  9
$INTERSECTIONCOLOR
 70
  257
  9
$DIMASSOC
280
    1
  9
$PROJECTNAME
  1

  9
$CAMERADISPLAY
290
    0
  9
$LENSLENGTH
 40
50
  9
$CAMERAHEIGHT
 40
0
  9
$STEPSPERSEC
 40
2
  9
$STEPSIZE
 40
50
  9
$3DDWFPREC
 40
2
  9
$PSOLWIDTH
 40
5
  9
$PSOLHEIGHT
 40
80
  9
$LOFTANG1
 40
1.570796326794897
  9
$LOFTANG2
 40
1.570796326794897
  9
$LOFTMAG1
 40
0
  9
$LOFTMAG2
 40
0
  9
$LOFTPARAM
 70
    7
  9
$LOFTNORMALS
280
    1
  9
$LATITUDE
 40
1
  9
$LONGITUDE
 40
1
  9
$NORTHDIRECTION
 40
0
  9
$TIMEZONE
 70
-8000
  9
$LIGHTGLYPHDISPLAY
280
    1
  9
$TILEMODELIGHTSYNCH
280
    1
  9
$SOLIDHIST
280
    1
  9
$SHOWHIST
280
    1
  9
$DWFFRAME
280
    2
  9
$DGNFRAME
280
    0
  9
$REALWORLDSCALE
290
    1
  9
$INTERFERECOLOR
 62
    1
  9
$CSHADOW
280
    0
  9
$SHADOWPLANELOCATION
 40
0
  0
ENDSEC
  0
SECTION
  2
CLASSES
  0
ENDSEC
  0
SECTION
  2
TABLES
  0
TABLE
  2
VPORT
  5
8
330
0
100
AcDbSymbolTable
 70
    1
  0
VPORT
  5
31
330
2
100
AcDbSymbolTableRecord
100
AcDbViewportTableRecord
  2
*ACTIVE
 70
    0
 10
0
 20
0
 11
1
 21
1
 12
22.1039820800006
 22
11.21976320000031
 13
0
 23
0
 14
10
 24
10
 15
10
 25
10
 16
0
 26
0
 36
1
 17
0
 27
0
 37
0
 40
32.38002688000088
 41
1.933937823834197
 42
50
 43
0
 44
0
 50
0
 51
0
 71
    0
 72
  100
 73
    1
 74
    3
 75
    0
 76
    1
 77
    0
 78
    0
281
    0
 65
    1
110
0
120
0
130
0
111
1
121
0
131
0
112
0
122
1
132
0
 79
    0
146
0
348
10020
 60
    7
 61
    5
292
1
282
    1
141
0
142
0
 63
  250
421
3358443
  0
ENDTAB
  0
TABLE
  2
LTYPE
  5
5
330
0
100
AcDbSymbolTable
 70
    4
  0
LTYPE
  5
14
330
5
100
AcDbSymbolTableRecord
100
AcDbLinetypeTableRecord
  2
ByBlock
 70
    0
  3

 72
   65
 73
    0
 40
0
  0
LTYPE
  5
15
330
5
100
AcDbSymbolTableRecord
100
AcDbLinetypeTableRecord
  2
ByLayer
 70
    0
  3

 72
   65
 73
    0
 40
0
  0
LTYPE
  5
16
330
5
100
AcDbSymbolTableRecord
100
AcDbLinetypeTableRecord
  2
Continuous
 70
    0
  3
Solid line
 72
   65
 73
    0
 40
0
  0
LTYPE
  5
32
330
5
100
AcDbSymbolTableRecord
100
AcDbLinetypeTableRecord
  2
DOT
 70
    0
  3
Dot . . . . . . . . . . . . . . . . . . . . . .
 72
   65
 73
    2
 40
6.35
 49
0
 74
    0
 49
-6.35
 74
    0
  0
LTYPE
  5
33
330
5
100
AcDbSymbolTableRecord
100
AcDbLinetypeTableRecord
  2
DOTTINY
 70
    0
  3
Dot (.15x) .....................................
 72
   65
 73
    2
 40
0.9525
 49
0
 74
    0
 49
-0.9525
 74
    0
  0
LTYPE
  5
34
330
5
100
AcDbSymbolTableRecord
100
AcDbLinetypeTableRecord
  2
DOT2
 70
    0
  3
Dot (.5x) .....................................
 72
   65
 73
    2
 40
3.175
 49
0
 74
    0
 49
-3.175
 74
    0
  0
LTYPE
  5
35
330
5
100
AcDbSymbolTableRecord
100
AcDbLinetypeTableRecord
  2
DOTX2
 70
    0
  3
Dot (2x) .  .  .  .  .  .  .  .  .  .  .  .  .
 72
   65
 73
    2
 40
12.7
 49
0
 74
    0
 49
-12.7
 74
    0
  0
LTYPE
  5
36
330
5
100
AcDbSymbolTableRecord
100
AcDbLinetypeTableRecord
  2
DASHED
 70
    0
  3
Dashed _ _ _ _ _ _ _ _ _ _ _ _ _ _ _ _ _
 72
   65
 73
    2
 40
19.05
 49
12.7
 74
    0
 49
-6.35
 74
    0
  0
LTYPE
  5
37
330
5
100
AcDbSymbolTableRecord
100
AcDbLinetypeTableRecord
  2
DASHEDTINY
 70
    0
  3
Dashed (.15x) _ _ _ _ _ _ _ _ _ _ _ _ _ _ _ _ _
 72
   65
 73
    2
 40
2.8575
 49
1.905
 74
    0
 49
-0.9525
 74
    0
  0
LTYPE
  5
38
330
5
100
AcDbSymbolTableRecord
100
AcDbLinetypeTableRecord
  2
DASHED2
 70
    0
  3
Dashed (.5x) _ _ _ _ _ _ _ _ _ _ _ _ _ _ _ _ _
 72
   65
 73
    2
 40
9.524999999999999
 49
6.35
 74
    0
 49
-3.175
 74
    0
  0
LTYPE
  5
39
330
5
100
AcDbSymbolTableRecord
100
AcDbLinetypeTableRecord
  2
DASHEDX2
 70
    0
  3
Dashed (2x) ____  ____  ____  ____  ____  ___
 72
   65
 73
    2
 40
38.09999999999999
 49
25.4
 74
    0
 49
-12.7
 74
    0
  0
LTYPE
  5
3A
330
5
100
AcDbSymbolTableRecord
100
AcDbLinetypeTableRecord
  2
DASHDOT
 70
    0
  3
Dash dot __ . __ . __ . __ . __ . __ . __ . __
 72
   65
 73
    4
 40
25.4
 49
12.7
 74
    0
 49
-6.35
 74
    0
 49
0
 74
    0
 49
-6.35
 74
    0
  0
LTYPE
  5
3B
330
5
100
AcDbSymbolTableRecord
100
AcDbLinetypeTableRecord
  2
DASHDOTTINY
 70
    0
  3
Dash dot (.15x) _._._._._._._._._._._._._._._.
 72
   65
 73
    4
 40
3.81
 49
1.905
 74
    0
 49
-0.9525
 74
    0
 49
0
 74
    0
 49
-0.9525
 74
    0
  0
LTYPE
  5
3C
330
5
100
AcDbSymbolTableRecord
100
AcDbLinetypeTableRecord
  2
DASHDOT2
 70
    0
  3
Dash dot (.5x) _._._._._._._._._._._._._._._.
 72
   65
 73
    4
 40
12.7
 49
6.35
 74
    0
 49
-3.175
 74
    0
 49
0
 74
    0
 49
-3.175
 74
    0
  0
LTYPE
  5
3D
330
5
100
AcDbSymbolTableRecord
100
AcDbLinetypeTableRecord
  2
DASHDOTX2
 70
    0
  3
Dash dot (2x) ____  .  ____  .  ____  .  ___
 72
   65
 73
    4
 40
50.8
 49
25.4
 74
    0
 49
-12.7
 74
    0
 49
0
 74
    0
 49
-12.7
 74
    0
  0
LTYPE
  5
3E
330
5
100
AcDbSymbolTableRecord
100
AcDbLinetypeTableRecord
  2
DIVIDE
 70
    0
  3
Divide ____ . . ____ . . ____ . . ____ . . ____
 72
   65
 73
    6
 40
31.75
 49
12.7
 74
    0
 49
-6.35
 74
    0
 49
0
 74
    0
 49
-6.35
 74
    0
 49
0
 74
    0
 49
-6.35
 74
    0
  0
LTYPE
  5
3F
330
5
100
AcDbSymbolTableRecord
100
AcDbLinetypeTableRecord
  2
DIVIDETINY
 70
    0
  3
Divide (.15x) __..__..__..__..__..__..__..__.._
 72
   65
 73
    6
 40
4.7625
 49
1.905
 74
    0
 49
-0.9525
 74
    0
 49
0
 74
    0
 49
-0.9525
 74
    0
 49
0
 74
    0
 49
-0.9525
 74
    0
  0
LTYPE
  5
40
330
5
100
AcDbSymbolTableRecord
100
AcDbLinetypeTableRecord
  2
DIVIDE2
 70
    0
  3
Divide (.5x) __..__..__..__..__..__..__..__.._
 72
   65
 73
    6
 40
15.875
 49
6.35
 74
    0
 49
-3.175
 74
    0
 49
0
 74
    0
 49
-3.175
 74
    0
 49
0
 74
    0
 49
-3.175
 74
    0
  0
LTYPE
  5
41
330
5
100
AcDbSymbolTableRecord
100
AcDbLinetypeTableRecord
  2
DIVIDEX2
 70
    0
  3
Divide (2x) ________  .  .  ________  .  .  _
 72
   65
 73
    6
 40
63.5
 49
25.4
 74
    0
 49
-12.7
 74
    0
 49
0
 74
    0
 49
-12.7
 74
    0
 49
0
 74
    0
 49
-12.7
 74
    0
  0
LTYPE
  5
42
330
5
100
AcDbSymbolTableRecord
100
AcDbLinetypeTableRecord
  2
BORDER
 70
    0
  3
Border __ __ . __ __ . __ __ . __ __ . __ __ .
 72
   65
 73
    6
 40
44.45
 49
12.7
 74
    0
 49
-6.35
 74
    0
 49
12.7
 74
    0
 49
-6.35
 74
    0
 49
0
 74
    0
 49
-6.35
 74
    0
  0
LTYPE
  5
43
330
5
100
AcDbSymbolTableRecord
100
AcDbLinetypeTableRecord
  2
BORDERTINY
 70
    0
  3
Border (.15x) __.__.__.__.__.__.__.__.__.__.__.
 72
   65
 73
    6
 40
6.6675
 49
1.905
 74
    0
 49
-0.9525
 74
    0
 49
1.905
 74
    0
 49
-0.9525
 74
    0
 49
0
 74
    0
 49
-0.9525
 74
    0
  0
LTYPE
  5
44
330
5
100
AcDbSymbolTableRecord
100
AcDbLinetypeTableRecord
  2
BORDER2
 70
    0
  3
Border (.5x) __.__.__.__.__.__.__.__.__.__.__.
 72
   65
 73
    6
 40
22.225
 49
6.35
 74
    0
 49
-3.175
 74
    0
 49
6.35
 74
    0
 49
-3.175
 74
    0
 49
0
 74
    0
 49
-3.175
 74
    0
  0
LTYPE
  5
45
330
5
100
AcDbSymbolTableRecord
100
AcDbLinetypeTableRecord
  2
BORDERX2
 70
    0
  3
Border (2x) ____  ____  .  ____  ____  .  ___
 72
   65
 73
    6
 40
88.89999999999999
 49
25.4
 74
    0
 49
-12.7
 74
    0
 49
25.4
 74
    0
 49
-12.7
 74
    0
 49
0
 74
    0
 49
-12.7
 74
    0
  0
LTYPE
  5
46
330
5
100
AcDbSymbolTableRecord
100
AcDbLinetypeTableRecord
  2
CENTER
 70
    0
  3
Center ____ _ ____ _ ____ _ ____ _ ____ _ ____
 72
   65
 73
    4
 40
50.8
 49
31.75
 74
    0
 49
-6.35
 74
    0
 49
6.35
 74
    0
 49
-6.35
 74
    0
  0
LTYPE
  5
47
330
5
100
AcDbSymbolTableRecord
100
AcDbLinetypeTableRecord
  2
CENTERTINY
 70
    0
  3
Center (.15x) ___ _ ___ _ ___ _ ___ _ ___ _ ___
 72
   65
 73
    4
 40
7.619999999999999
 49
4.7625
 74
    0
 49
-0.9525
 74
    0
 49
0.9525
 74
    0
 49
-0.9525
 74
    0
  0
LTYPE
  5
48
330
5
100
AcDbSymbolTableRecord
100
AcDbLinetypeTableRecord
  2
CENTER2
 70
    0
  3
Center (.5x) ___ _ ___ _ ___ _ ___ _ ___ _ ___
 72
   65
 73
    4
 40
28.575
 49
19.05
 74
    0
 49
-3.175
 74
    0
 49
3.175
 74
    0
 49
-3.175
 74
    0
  0
LTYPE
  5
49
330
5
100
AcDbSymbolTableRecord
100
AcDbLinetypeTableRecord
  2
CENTERX2
 70
    0
  3
Center (2x) ________  __  ________  __  _____
 72
   65
 73
    4
 40
101.6
 49
63.5
 74
    0
 49
-12.7
 74
    0
 49
12.7
 74
    0
 49
-12.7
 74
    0
  0
ENDTAB
  0
TABLE
  2
LAYER
  5
2
330
0
100
AcDbSymbolTable
 70
    1
  0
LAYER
  5
10
330
2
100
AcDbSymbolTableRecord
100
AcDbLayerTableRecord
  2
0
 70
    0
 62
    7
  6
CONTINUOUS
370
    0
390
F
  0
ENDTAB
  0
TABLE
  2
STYLE
  5
3
330
0
100
AcDbSymbolTable
 70
    3
  0
STYLE
  5
4A
330
2
100
AcDbSymbolTableRecord
100
AcDbTextStyleTableRecord
  2
Standard
 70
    0
 40
0
 41
1
 50
0
 71
    0
 42
1
  3
txt
  4

  0
ENDTAB
  0
TABLE
  2
VIEW
  5
6
330
0
100
AcDbSymbolTable
 70
    0
  0
ENDTAB
  0
TABLE
  2
UCS
  5
7
330
0
100
AcDbSymbolTable
 70
    0
  0
ENDTAB
  0
TABLE
  2
APPID
  5
9
330
0
100
AcDbSymbolTable
 70
    1
  0
APPID
  5
12
330
9
100
AcDbSymbolTableRecord
100
AcDbRegAppTableRecord
  2
ACAD
 70
    0
  0
APPID
  5
4B
330
9
100
AcDbSymbolTableRecord
100
AcDbRegAppTableRecord
  2
LibreCad
 70
    0
  0
ENDTAB
  0
TABLE
  2
DIMSTYLE
  5
A
330
0
100
AcDbSymbolTable
 70
    1
100
AcDbDimStyleTable
 71
    1
  0
DIMSTYLE
105
4C
330
A
100
AcDbSymbolTableRecord
100
AcDbDimStyleTableRecord
  2
Standard
 70
    0
 40
1
 41
2.5
 42
0.625
 43
0.38
 44
1.25
 45
0
 46
0
 47
0
 48
0
 49
1
140
2.5
141
0.09
142
2.5
143
25.4
144
1
145
0
146
1
147
0.625
148
0
 71
    0
 72
    0
 73
    0
 74
    1
 75
    0
 76
    0
 77
    0
 78
    1
 79
    0
170
    0
171
    2
172
    0
173
    0
174
    0
175
    0
176
    0
177
    0
178
    0
179
    0
271
    2
272
    4
273
    2
274
    2
275
    0
276
    0
277
    2
278
    0
279
    0
280
    0
281
    0
282
    0
283
    1
284
    0
285
    0
286
    0
288
    0
289
    3
340
standard
341

371
   -2
372
   -2
  0
ENDTAB
  0
TABLE
  2
BLOCK_RECORD
  5
1
330
0
100
AcDbSymbolTable
 70
    2
  0
BLOCK_RECORD
  5
1F
330
1
100
AcDbSymbolTableRecord
100
AcDbBlockTableRecord
  2
*Model_Space
 70
    0
280
    1
281
    0
  0
BLOCK_RECORD
  5
1E
330
1
100
AcDbSymbolTableRecord
100
AcDbBlockTableRecord
  2
*Paper_Space
 70
    0
280
    1
281
    0
  0
ENDTAB
  0
ENDSEC
  0
SECTION
  2
BLOCKS
  0
BLOCK
  5
20
330
1F
100
AcDbEntity
  8
0
100
AcDbBlockBegin
  2
*Model_Space
 70
    0
 10
0
 20
0
 30
0
  3
*Model_Space
  1

  0
ENDBLK
  5
21
330
1F
100
AcDbEntity
  8
0
100
AcDbBlockEnd
  0
BLOCK
  5
1C
330
1B
100
AcDbEntity
  8
0
100
AcDbBlockBegin
  2
*Paper_Space
 70
    0
 10
0
 20
0
 30
0
  3
*Paper_Space
  1

  0
ENDBLK
  5
1D
330
1F
100
AcDbEntity
  8
0
100
AcDbBlockEnd
  0
ENDSEC
  0
SECTION
  2
ENTITIES
  0
LWPOLYLINE
  5
4D
100
AcDbEntity
  8
0
  6
ByLayer
 62
  256
370
   -1
100
AcDbPolyline
 90
  202
 70
    1
 43
0
 10
2.403768702160562
 20
6.378155405362151
 42
0.061899
 10
2.217489236560567
 20
6.316066809362155
 42
0.07493100000000007
 10
2.065072786160556
 20
6.212918861762148
 42
0.07620000000000005
 10
1.951698077360561
 20
6.071030489762137
 42
0.06692700000000004
 10
1.879821518560561
 20
5.895370762162145
 42
0.01166499999999996
 10
1.870077343760556
 20
5.854017850562144
 42
0.01036399999999999
 10
1.861845462160574
 20
5.810596456162159
 42
0.01046199999999998
 10
1.85606677456056
 20
5.771218038962161
 42
0.03120600000000004
 10
1.854368702160571
 20
5.744037187362153
 10
1.854368702160571
 20
5.690449236162152
 10
1.786678981360581
 20
5.763883926162151
 42
0.07303299999999997
 10
1.670722305760563
 20
5.857706882962162
 42
0.05848199999999999
 10
1.523724202160565
 20
5.922936587362159
 42
0.05525299999999993
 10
1.357033076960562
 20
5.955066499762154
 42
0.05127800000000003
 10
1.182997966160571
 20
5.951159790162137
 42
0.07646600000000014
 10
0.9807506733605749
 20
5.893539570962162
 42
0.08031300000000001
 10
0.8089553269605574
 20
5.778397696562138
 42
0.078543
 10
0.6793163773605784
 20
5.612488687362145
 42
0.068854
 10
0.5998940473605785
 20
5.407130560562138
 42
0.03996300000000003
 10
0.580514167360576
 20
5.280325875362138
 42
0.02133399999999991
 10
0.5758944349605599
 20
5.121696727762156
 42
0.02123899999999984
 10
0.5849365257605541
 20
4.960453010162155
 42
0.03421600000000007
 10
0.6077828081605787
 20
4.824836867362137
 42
0.05556299999999992
 10
0.7309229133605584
 20
4.483592473362137
 42
0.03934099999999977
 10
0.9390644973605617
 20
4.133162570562149
 42
0.03675700000000016
 10
1.21744088536056
 20
3.794558609362156
 42
0.03339099999999997
 10
1.55096870216056
 20
3.488504269362153
 42
-0.0007750000000000443
 10
1.697315676560549
 20
3.370820493362146
 42
-0.03887000000000004
 10
1.724164756160576
 20
3.345479442962159
 42
-0.7435520000000007
 10
1.720192479360577
 20
3.338884707762162
 42
-0.02309900000000017
 10
1.673812754560572
 20
3.353041499362149
 42
0.01481299999999998
 10
1.633096818960581
 20
3.366210600962148
 42
0.003453000000000097
 10
1.563991646960574
 20
3.385804796162148
 42
0.003557999999999929
 10
1.48411443016056
 20
3.407247976562161
 42
0.003482999999999986
 10
1.403368702160577
 20
3.427709895762149
 42
0.03318399999999998
 10
0.9427874449605724
 20
3.509087105762148
 42
0.04263100000000009
 10
0.5129152205605578
 20
3.519116050162154
 42
0.04614199999999997
 10
0.1171997517605803
 20
3.457647570962138
 42
0.05300000000000001
 10
-0.241561137839426
 20
3.325784486162149
 42
0.01336299999999992
 10
-0.3328924426394337
 20
3.277671970162146
 42
0.02432899999999998
 10
-0.4043080138394259
 20
3.232875894962149
 42
0.02420500000000003
 10
-0.4712745766394448
 20
3.181195066962147
 42
0.01307399999999997
 10
-0.5487825182394204
 20
3.111577788562158
 42
0.05279600000000001
 10
-0.7058539282394349
 20
2.927849670962161
 42
0.08363799999999999
 10
-0.7929173134394318
 20
2.740469486562148
 42
0.08638399999999992
 10
-0.8122264438394211
 20
2.539381985362155
 42
0.05999499999999994
 10
-0.7675767222394256
 20
2.315038365762149
 42
0.07703200000000017
 10
-0.6865926366394319
 20
2.155635548162138
 42
0.07400700000000006
 10
-0.5602171722394189
 20
2.025715420562165
 42
0.071674
 10
-0.3975432926394262
 20
1.935067815362146
 42
0.06537699999999995
 10
-0.2106942878394307
 20
1.890388901762151
 10
-0.1188423978394439
 20
1.880788489362146
 10
-0.1900379466394213
 20
1.815162708562156
 42
0.07420100000000006
 10
-0.2825313390394228
 20
1.700304422962148
 42
0.05792499999999998
 10
-0.3470644862394465
 20
1.553477453362149
 42
0.05465499999999995
 10
-0.37896880023942
 20
1.386849812562161
 42
0.05126699999999984
 10
-0.3750747022394307
 20
1.213545649762153
 42
0.07646599999999992
 10
-0.3174544830394268
 20
1.011298356962158
 42
0.08031300000000012
 10
-0.2023126086394313
 20
0.8395030105621402
 42
0.078543
 10
-0.03640359943943849
 20
0.7098640609621611
 42
0.06885400000000011
 10
0.1689545273605688
 20
0.6304417309621613
 42
0.03996300000000003
 10
0.2957592125605686
 20
0.6110618509621588
 42
0.02133400000000002
 10
0.4543883601605785
 20
0.6064421185621427
 42
0.02123900000000006
 10
0.6156320777605799
 20
0.6154842093621369
 42
0.03421599999999985
 10
0.7512482205605693
 20
0.6383304917621615
 42
0.04372900000000005
 10
1.013196892560558
 20
0.7259244989621436
 42
0.03288699999999999
 10
1.283380168560569
 20
0.8651657305621541
 42
0.03064100000000012
 10
1.552658131760552
 20
1.050526418962136
 42
0.0263340000000001
 10
1.811931930960554
 20
1.276458837762164
 10
1.974495159760579
 20
1.43391638576216
 10
1.911807488160576
 20
1.319116385762158
 42
-0.02783000000000002
 10
1.722168170960572
 20
1.013562294962156
 42
-0.02675700000000009
 10
1.497439561360579
 20
0.7267390049621554
 42
-0.02813799999999981
 10
1.259705538560581
 20
0.4837007629621439
 42
-0.04704200000000016
 10
1.031553986560567
 20
0.3116389657621426
 42
-0.02635600000000009
 10
0.8879525689605714
 20
0.2332933449621635
 42
-0.03797299999999994
 10
0.7530985669605741
 20
0.1808596585621558
 42
-0.03972299999999983
 10
0.6166811693605609
 20
0.1509958981621367
 42
-0.03308499999999998
 10
0.4685687021605531
 20
0.1406163381621468
 42
-0.02294599999999998
 10
0.3411095421605808
 20
0.1459811881621533
 42
-0.03554199999999992
 10
0.2323967137605791
 20
0.1634142077621448
 42
-0.0357630000000001
 10
0.1277348821605528
 20
0.1959681749621609
 42
-0.02361199999999987
 10
0.01266656176056813
 20
0.2473909817621518
 42
0.007681000000000055
 10
-0.02492441943942936
 20
0.2656477405621445
 42
0.01224799999999987
 10
-0.05765598223942447
 20
0.2799619557621611
 42
0.006125000000000064
 10
-0.08522375903942248
 20
0.2908298093621511
 42
0.2953290000000059
 10
-0.09077365023944139
 20
0.2896407109621464
 42
0.1852560000000004
 10
-0.09360980063942748
 20
0.2832733453621756
 42
0.0003620000000000414
 10
-0.09951266903942724
 20
0.1697687977621456
 42
0.00247499999999998
 10
-0.1054451066394222
 20
0.04168924216213554
 42
0.001523000000000019
 10
-0.1112227118394458
 20
-0.1091330954378407
 42
0.002676000000000014
 10
-0.1165744746394353
 20
-0.2881240074378582
 42
0.008234999999999904
 10
-0.1175523246394334
 20
-0.409284386637836
 42
0.004749000000000045
 10
-0.1159647882394381
 20
-0.4979757670378433
 42
0.2463450000000019
 10
-0.1078349474394429
 20
-0.5124940638378632
 42
0.119882
 10
-0.06841134823943662
 20
-0.5263791074378616
 42
0.009209000000000021
 10
0.04444689176057182
 20
-0.5356079286378588
 42
0.01371200000000003
 10
0.1616242685605584
 20
-0.5397990634378402
 42
0.0291609999999999
 10
0.2521946625605551
 20
-0.5352689898378458
 42
0.06066000000000002
 10
0.6462528129605687
 20
-0.4432306154378409
 42
0.05977399999999999
 10
1.008827424160557
 20
-0.2590418710378515
 42
0.05607099999999975
 10
1.336546770960553
 20
0.01781125216214718
 42
0.04335800000000013
 10
1.627300288160569
 20
0.3843163857621619
 42
0.01723299999999986
 10
1.715423342960577
 20
0.5282015889621618
 42
0.008418000000000071
 10
1.818260904160553
 20
0.7172401413621401
 42
0.008346000000000027
 10
1.913167277760579
 20
0.906554443362154
 42
0.02061799999999992
 10
1.974607647360557
 20
1.049171614962148
 42
-0.01220299999999998
 10
2.020246748160559
 20
1.16021594936214
 42
-0.009752
 10
2.074640775760571
 20
1.277620925362157
 42
-0.01184099999999993
 10
2.118595744160558
 20
1.362662715362148
 42
-0.8554990000000412
 10
2.126039851760567
 20
1.359985070962153
 42
0.004957000000000004
 10
2.088778313760571
 20
1.155140936562162
 42
0.01769599999999992
 10
2.070900427760563
 20
1.023153900562164
 42
0.01881600000000009
 10
2.062952249760571
 20
0.8943211585621498
 42
0.006162999999999954
 10
2.060734198960574
 20
0.7041163857621484
 42
0.004635000000000025
 10
2.062394485760564
 20
0.5370138173621513
 42
0.01476899999999988
 10
2.067832217360575
 20
0.4255395733621583
 42
0.01943600000000012
 10
2.078817937760562
 20
0.3321899533621604
 42
0.01429599999999988
 10
2.097939566960576
 20
0.2297868445621418
 42
0.02538800000000004
 10
2.160346978960575
 20
-0.001125745837839531
 42
0.03675599999999998
 10
2.240301078960556
 20
-0.1966341474378623
 42
0.03914399999999996
 10
2.343522334560561
 20
-0.3688603546378602
 42
0.03520600000000011
 10
2.475723324960569
 20
-0.5295083914378438
 42
0.05594499999999978
 10
2.653576027760579
 20
-0.6793345930378507
 42
0.08267699999999993
 10
2.839195557360569
 20
-0.7629679674378451
 42
0.08406699999999995
 10
3.039556948560573
 20
-0.7811713442378618
 42
0.05986299999999993
 10
3.261046722160557
 20
-0.7370290386378429
 42
0.07703199999999995
 10
3.420449539760568
 20
-0.6560449530378492
 42
0.07400700000000006
 10
3.55036966736057
 20
-0.5296694886378361
 42
0.071674
 10
3.641017272560561
 20
-0.3669956090378435
 42
0.06537699999999995
 10
3.685696186160555
 20
-0.1801466042378479
 10
3.69529659856056
 20
-0.08829471423786117
 10
3.760922379360579
 20
-0.1594902630378385
 42
0.09811500000000002
 10
3.921540010560562
 20
-0.2767171678378588
 42
0.07035899999999994
 10
4.134796705360571
 20
-0.3413765130378579
 42
0.06830199999999999
 10
4.364381781360578
 20
-0.3453971534378582
 42
0.08084199999999996
 10
4.572757229360576
 20
-0.2854296022378549
 42
0.08284799999999991
 10
4.743683539760582
 20
-0.1667614326378555
 42
0.07890900000000002
 10
4.870218854960569
 20
0.002792361762146811
 42
0.07100399999999979
 10
4.947325832960559
 20
0.2194893501621493
 42
0.05047700000000001
 10
4.972902485760557
 20
0.4764182445621543
 42
0.07945099999999987
 10
4.906684140160564
 20
0.8861817237621494
 42
0.05471199999999996
 10
4.711061758560561
 20
1.314872902162136
 42
0.04927599999999999
 10
4.401125128560579
 20
1.734742963362152
 42
0.04020199999999997
 10
3.994568702160564
 20
2.118128502162136
 42
-0.0006120000000001349
 10
3.93067436776056
 20
2.169474376562164
 42
-0.000889999999999807
 10
3.874468484560566
 20
2.214920350962132
 42
-0.0004360000000001513
 10
3.826791372160557
 20
2.253679832162163
 42
-0.01551499999999982
 10
3.816014768160557
 20
2.263027126962157
 42
-0.7443189999999675
 10
3.817467283360571
 20
2.26600033216215
 42
-0.01656000000000006
 10
3.841325019360568
 20
2.261251876162163
 42
-0.01303100000000008
 10
3.877099241360554
 20
2.251901940962142
 42
-0.006214000000000035
 10
3.922614768160571
 20
2.238114559362145
 42
0.04063000000000003
 10
4.461697774160569
 20
2.114537394162141
 42
0.04698600000000006
 10
4.987762296160582
 20
2.088093771762146
 42
0.0509989999999999
 10
5.468269126960564
 20
2.158547581362143
 42
0.07017799999999985
 10
5.871811184160578
 20
2.323304703762147
 42
0.037012
 10
5.991047761360562
 20
2.405183343762161
 42
0.02549999999999994
 10
6.113567667760577
 20
2.51410620696214
 42
0.0257550000000001
 10
6.218798038160571
 20
2.628985074562138
 42
0.05869899999999991
 10
6.282447044960577
 20
2.72767100856214
 42
0.04410200000000006
 10
6.33552149576056
 20
2.865564799762154
 42
0.05629499999999992
 10
6.358116333360556
 20
2.999768131762153
 42
0.0545860000000003
 10
6.350494252960573
 20
3.138880426562139
 42
0.03814399999999998
 10
6.313114126560578
 20
3.29159440576214
 42
0.07703200000000006
 10
6.232130040960556
 20
3.450997223362151
 42
0.07400700000000006
 10
6.105754576560571
 20
3.580917350962153
 42
0.071674
 10
5.943080696960578
 20
3.671564956162143
 42
0.06537699999999995
 10
5.756231692160554
 20
3.716243869762138
 10
5.664379802160568
 20
3.725844282162143
 10
5.735575350960573
 20
3.791470062962162
 42
0.09811500000000002
 10
5.852802255760565
 20
3.952087694162145
 42
0.07035900000000016
 10
5.917461600960564
 20
4.165344388962154
 42
0.06830200000000021
 10
5.921482241360565
 20
4.394929464962161
 42
0.08084200000000007
 10
5.861514690160561
 20
4.603304912962159
 42
0.08206299999999998
 10
5.743225868960565
 20
4.77425342896214
 42
0.0797629999999999
 10
5.575178972160558
 20
4.900036902562164
 42
0.07141700000000015
 10
5.35949366696056
 20
4.976517433362147
 42
0.04928499999999997
 10
5.101271484960563
 20
5.002341972162156
 42
0.07953499999999998
 10
4.690793162560567
 20
4.937131357362148
 42
0.05510699999999987
 10
4.262100393360555
 20
4.742395658162138
 42
0.04956399999999996
 10
3.842177966960577
 20
4.432649448562159
 42
0.04014699999999996
 10
3.45795658576057
 20
4.025116385762146
 42
-0.0006119999999999129
 10
3.406610711360571
 20
3.961222051362142
 42
-0.000889999999999807
 10
3.361164736960575
 20
3.905016168162149
 42
-0.0004360000000001513
 10
3.322405255760543
 20
3.857339055762139
 42
-0.01551500000000005
 10
3.313057960960577
 20
3.846562451762139
 42
-0.7443190000001573
 10
3.310084755760556
 20
3.848014966962154
 42
-0.01655999999999995
 10
3.314833211760572
 20
3.87187270296215
 42
-0.01303100000000008
 10
3.324183146960564
 20
3.907646924962137
 42
-0.006214000000000035
 10
3.337970528560561
 20
3.953162451762154
 42
0.04062999999999981
 10
3.461547693760565
 20
4.492245457762152
 42
0.04698600000000006
 10
3.48799131616056
 20
5.018309979762165
 42
0.05099900000000001
 10
3.417537506560564
 20
5.498816810562147
 42
0.07017800000000007
 10
3.252780384160559
 20
5.90235886776216
 42
0.03700300000000004
 10
3.170865696960561
 20
6.021652680962148
 42
0.02553499999999998
 10
3.06194719616056
 20
6.144159844562154
 42
0.025794
 10
2.947087106560559
 20
6.249335586562154
 42
0.05880200000000003
 10
2.848414079360566
 20
6.312912072562142
 42
0.03465200000000004
 10
2.735685924160578
 20
6.358673566562146
 42
0.04268900000000011
 10
2.625260279760568
 20
6.384647574962145
 42
0.04416199999999991
 10
2.515247620160579
 20
6.390971923362144
 42
0.04183599999999998
  0
ENDSEC
  0
SECTION
  2
OBJECTS
  0
DICTIONARY
  5
C
330
0
100
AcDbDictionary
281
    1
  3
ACAD_GROUP
350
D
  0
DICTIONARY
  5
D
330
C
100
AcDbDictionary
281
    1
  0
ENDSEC
  0
EOF
